<?xml version="1.0" standalone="no"?>
<!DOCTYPE svg PUBLIC "-//W3C//DTD SVG 20010904//EN"
 "http://www.w3.org/TR/2001/REC-SVG-20010904/DTD/svg10.dtd">
<svg version="1.0" xmlns="http://www.w3.org/2000/svg"
 width="2000.000000pt" height="2000.000000pt" viewBox="0 0 2000.000000 2000.000000"
 preserveAspectRatio="xMidYMid meet">

<g transform="translate(0.000000,2000.000000) scale(0.100000,-0.100000)"
fill="#000000" stroke="none">
<path d="M0 17204 l0 -2797 44 39 c63 57 88 74 106 74 9 0 20 4 26 10 11 11
100 33 204 50 41 7 129 23 195 37 66 13 156 30 200 38 44 8 114 21 155 29 41
8 149 28 240 46 91 17 201 37 245 45 44 8 152 28 240 45 88 17 200 38 249 46
50 8 93 17 96 19 4 2 35 9 71 14 95 16 112 20 120 28 4 5 0 42 -8 83 -9 41
-15 91 -14 110 2 39 39 85 77 94 13 4 34 10 47 15 l25 10 -15 63 c-27 112 -7
241 45 301 8 9 11 17 6 17 -16 0 81 91 124 116 59 35 106 47 332 89 107 20
263 49 345 64 83 16 227 43 320 60 365 67 366 67 407 110 63 66 69 134 18 217
-48 77 -114 85 -325 39 -38 -8 -108 -22 -155 -30 -47 -8 -105 -19 -130 -24
-113 -24 -278 -55 -305 -57 -16 -1 -70 -12 -120 -23 -49 -10 -144 -29 -210
-41 -66 -11 -212 -39 -325 -60 -418 -80 -577 -110 -670 -125 -52 -9 -113 -20
-135 -25 -169 -39 -266 -51 -321 -41 -125 24 -240 105 -287 204 -43 91 -47
106 -47 180 0 141 57 252 167 329 73 49 72 49 663 159 118 22 283 53 365 69
414 81 442 84 485 40 43 -44 42 -100 -2 -144 -33 -32 -46 -36 -203 -61 -24 -4
-180 -34 -415 -79 -14 -3 -52 -9 -85 -15 -33 -6 -80 -15 -105 -20 -49 -11
-246 -47 -295 -54 -16 -3 -75 -14 -130 -26 -55 -12 -107 -22 -115 -24 -8 -1
-17 -4 -20 -7 -3 -3 -16 -13 -30 -22 -14 -8 -36 -36 -49 -61 -29 -56 -24 -121
13 -178 26 -38 95 -79 135 -79 18 0 167 25 271 45 14 3 50 9 80 15 66 12 50 9
340 64 129 25 296 57 370 71 74 14 171 32 215 40 44 8 116 22 160 30 251 45
353 64 380 68 17 3 86 17 155 31 69 15 150 30 180 35 30 5 105 19 165 32 67
14 147 23 205 23 88 1 100 -1 162 -32 83 -41 159 -122 189 -201 56 -148 25
-297 -86 -414 -80 -84 -129 -99 -605 -183 -29 -6 -113 -22 -330 -64 -85 -17
-175 -33 -201 -35 -25 -3 -57 -9 -71 -14 -13 -5 -59 -14 -103 -21 -117 -17
-168 -42 -198 -99 -16 -29 -24 -59 -23 -81 5 -70 19 -140 27 -140 4 0 31 5 59
11 82 17 135 -14 150 -88 5 -21 13 -65 20 -98 6 -33 13 -61 14 -63 2 -1 59 9
127 22 68 13 178 34 244 45 66 12 152 28 190 36 76 16 201 40 420 80 77 14
228 44 335 65 107 21 249 48 315 60 66 12 142 26 168 31 27 5 52 7 57 4 5 -3
11 -1 14 4 7 10 154 27 196 23 98 -10 211 -74 279 -157 66 -80 69 -92 161
-585 16 -85 38 -204 50 -265 11 -60 34 -184 50 -275 16 -91 34 -187 40 -215
70 -340 78 -417 54 -505 -43 -152 -183 -275 -340 -299 -32 -4 -104 -18 -159
-29 -55 -12 -163 -33 -240 -47 -148 -28 -360 -67 -590 -110 -77 -15 -198 -37
-270 -50 -71 -12 -188 -34 -260 -48 -71 -14 -157 -31 -190 -38 -33 -6 -91 -17
-130 -24 -38 -7 -107 -20 -152 -29 -122 -24 -238 -45 -323 -60 -41 -8 -124
-23 -185 -35 -128 -25 -298 -57 -405 -76 -178 -33 -298 -56 -500 -94 -118 -23
-278 -53 -355 -67 -163 -30 -276 -52 -325 -64 -19 -5 -55 -11 -80 -15 -25 -3
-94 -15 -155 -26 -214 -41 -302 -37 -414 20 -82 42 -170 155 -192 249 -10 40
-58 288 -65 337 -3 17 -9 44 -14 60 -5 17 -18 89 -30 160 -12 72 -25 144 -30
160 -5 17 -11 46 -13 65 -10 74 -28 167 -41 215 -12 43 -14 -474 -15 -3761
l-1 -3811 58 -16 c70 -20 527 -138 992 -257 768 -197 1293 -332 1440 -371 85
-22 209 -54 275 -70 152 -38 198 -53 260 -88 35 -20 161 -57 410 -120 198 -51
370 -99 382 -107 27 -17 37 -52 30 -103 l-5 -37 52 -12 c28 -6 80 -26 115 -44
150 -76 236 -262 201 -433 -11 -53 -115 -465 -140 -555 -9 -31 -163 -626 -269
-1045 -55 -212 -81 -272 -146 -339 -64 -65 -136 -101 -231 -117 -81 -14 -73
-16 -499 96 -395 103 -379 100 -412 78 -76 -52 -124 -67 -228 -67 -84 0 -120
5 -230 36 -71 19 -240 64 -375 98 -135 34 -362 93 -505 131 -143 37 -368 95
-500 129 -132 34 -328 84 -435 112 -107 28 -205 53 -218 55 l-22 5 0 -551 0
-551 26 0 c14 0 46 5 72 10 86 19 136 29 252 50 63 12 135 25 160 30 25 5 77
14 115 20 39 6 82 15 97 19 42 13 104 -19 123 -65 10 -25 12 -41 5 -49 -5 -6
-7 -14 -4 -18 11 -10 -17 -47 -47 -62 -17 -9 -72 -23 -122 -31 -51 -8 -117
-21 -147 -29 -30 -8 -73 -16 -95 -18 -22 -3 -107 -18 -190 -35 -82 -17 -171
-34 -197 -37 l-48 -7 0 -184 0 -184 23 5 c12 3 33 7 47 9 14 2 83 15 155 30
72 14 204 39 295 56 91 17 210 40 265 50 55 11 152 29 215 40 136 25 189 34
505 95 553 105 530 101 602 86 185 -42 297 -170 310 -358 5 -79 -4 -119 -45
-201 -46 -91 -158 -176 -256 -193 -23 -4 -88 -16 -146 -27 -58 -12 -168 -32
-245 -46 -77 -14 -171 -32 -210 -41 -38 -8 -133 -26 -210 -40 -77 -15 -183
-34 -235 -45 -52 -10 -116 -21 -143 -25 -69 -9 -128 -57 -145 -117 -11 -39
-11 -58 1 -115 15 -75 12 -73 99 -61 48 7 93 -14 112 -50 15 -29 18 -40 31
-117 15 -91 12 -88 53 -81 161 28 322 59 348 66 17 6 41 10 54 10 12 0 39 4
59 10 20 5 115 23 211 40 96 17 207 38 245 45 388 77 908 174 1007 188 138 19
244 -14 345 -106 83 -77 107 -129 143 -300 l11 -57 806 0 c763 0 805 1 798 18
-4 9 -10 57 -12 107 -7 112 -3 128 131 535 57 173 165 504 241 735 75 231 254
775 398 1208 245 742 264 793 311 865 89 134 223 221 384 249 132 23 190 10
622 -133 206 -68 377 -124 380 -124 4 0 16 18 28 39 35 63 154 183 232 235
211 142 497 184 712 106 265 -97 443 -280 534 -550 26 -76 29 -98 29 -212 0
-71 1 -128 2 -128 4 0 388 -120 463 -145 317 -104 397 -142 490 -236 141 -141
201 -348 155 -533 -9 -33 -47 -155 -85 -271 -38 -115 -130 -399 -205 -630 -75
-231 -173 -528 -217 -660 -44 -132 -97 -293 -118 -357 l-38 -118 1194 0 1193
0 -28 58 c-16 31 -34 75 -41 97 -7 22 -16 45 -20 50 -4 6 -38 78 -75 160 -108
243 -175 388 -190 418 -8 16 -15 32 -15 37 0 9 -53 130 -70 162 -15 27 -12 77
9 159 10 41 24 110 31 154 7 44 16 85 21 91 5 7 12 40 15 75 6 61 4 69 -45
178 -83 187 -90 297 -25 431 26 54 119 160 140 160 8 0 14 5 14 10 0 6 7 10
15 10 8 0 15 4 15 9 0 4 21 16 48 26 26 10 57 24 70 32 12 7 26 11 31 9 5 -3
14 0 20 8 7 8 32 20 56 27 25 7 45 19 45 26 0 11 -21 66 -41 105 -28 56 12
137 64 129 11 -2 9 17 -3 24 -6 4 -8 16 -4 27 4 12 2 18 -4 14 -29 -18 -30
163 0 241 29 79 132 182 201 202 26 7 47 17 47 21 0 4 15 13 33 19 17 7 45 19
60 26 20 11 26 11 22 2 -4 -6 0 -4 7 5 8 9 27 20 44 24 16 4 38 13 50 21 11 7
24 10 29 6 4 -5 5 -3 2 4 -5 7 11 17 45 28 29 10 58 23 64 31 6 8 15 10 19 6
5 -4 5 -2 1 5 -4 7 4 19 19 29 15 10 25 26 25 40 0 13 4 24 10 24 5 0 8 21 6
48 -5 66 -45 128 -99 153 -47 21 -157 27 -157 8 0 -6 -7 -8 -16 -5 -8 3 -13 2
-10 -2 3 -5 -12 -14 -32 -21 -57 -19 -136 -55 -143 -65 -4 -5 -12 -5 -18 -2
-6 4 -11 3 -11 -2 0 -6 -12 -13 -27 -17 -16 -3 -35 -12 -43 -19 -8 -7 -73 -38
-145 -69 -71 -30 -143 -62 -160 -70 -66 -33 -111 -50 -124 -48 -8 1 -10 -2 -5
-10 5 -8 3 -10 -6 -4 -7 4 -15 4 -19 -1 -7 -10 -93 -49 -131 -60 -14 -4 -27
-10 -30 -13 -3 -4 -39 -22 -80 -40 -41 -18 -93 -41 -115 -51 -117 -52 -213
-50 -330 8 -51 25 -145 111 -149 136 -1 8 -7 20 -13 27 -18 24 -36 146 -29
202 17 137 126 259 273 308 21 6 44 18 51 26 7 7 19 13 26 13 7 0 49 18 92 40
43 22 84 40 90 40 6 0 60 23 120 52 60 29 114 52 119 53 6 0 12 3 15 6 13 15
143 68 153 62 5 -3 7 -2 4 4 -6 10 79 43 110 43 25 0 61 -31 72 -62 15 -41
-13 -85 -71 -114 -96 -48 -237 -107 -247 -104 -2 1 -7 -3 -11 -10 -4 -6 -13
-13 -21 -14 -18 -4 -49 -17 -139 -59 -41 -19 -109 -50 -150 -67 -41 -18 -80
-37 -87 -42 -7 -5 -17 -7 -23 -3 -5 3 -10 2 -10 -4 0 -5 -21 -17 -47 -27 -27
-10 -50 -21 -53 -24 -3 -3 -17 -13 -32 -22 -14 -10 -32 -33 -39 -53 -7 -19
-16 -35 -20 -35 -9 0 -6 -113 4 -125 4 -5 17 -26 30 -45 49 -77 160 -94 264
-40 31 16 73 35 93 41 19 7 59 25 88 41 29 15 57 28 63 28 5 0 53 20 106 45
52 25 100 45 105 45 5 0 29 11 54 25 25 14 51 22 57 19 7 -4 9 -4 5 1 -9 10
70 47 83 39 5 -3 9 -1 9 3 0 5 19 17 43 28 23 10 80 36 127 57 46 21 92 40
101 41 10 2 23 8 31 13 7 6 40 22 73 35 33 12 65 26 70 30 29 20 211 30 224
12 3 -4 11 -8 16 -9 24 -1 65 -17 65 -25 0 -5 6 -9 13 -9 30 0 137 -128 137
-163 0 -7 3 -17 7 -21 8 -7 12 -23 19 -81 16 -114 -56 -263 -156 -326 -30 -19
-59 -34 -65 -35 -5 0 -57 -24 -115 -51 -58 -28 -124 -57 -147 -64 -24 -7 -43
-15 -43 -19 0 -4 -21 -15 -47 -25 -100 -36 -154 -141 -122 -234 13 -37 14 -37
75 -11 39 17 53 19 75 10 25 -11 59 -62 59 -90 0 -6 5 -8 12 -4 7 5 9 2 5 -9
-3 -8 1 -21 9 -27 8 -7 14 -18 14 -25 0 -8 9 -10 25 -7 14 2 25 8 25 13 0 5 5
9 10 9 6 0 33 11 61 25 29 13 56 22 62 18 6 -3 7 -1 3 5 -4 7 -1 12 9 12 9 0
27 7 40 16 14 9 25 13 25 9 0 -4 10 -1 22 7 69 44 242 47 330 5 69 -33 147
-94 175 -137 13 -19 27 -40 33 -47 5 -7 10 -14 10 -17 0 -2 15 -37 33 -78 19
-40 39 -87 45 -103 7 -17 31 -41 55 -56 42 -26 157 -92 203 -117 13 -7 24 -18
24 -23 0 -6 4 -7 10 -4 8 5 57 -20 70 -36 3 -3 15 -9 28 -13 12 -4 20 -12 17
-17 -3 -5 1 -6 9 -3 10 4 22 -5 34 -25 10 -17 21 -28 24 -25 3 3 5 -1 5 -8 -1
-7 7 -31 17 -53 11 -22 29 -62 42 -90 12 -27 40 -90 63 -138 23 -49 41 -93 41
-98 0 -6 15 -41 34 -79 19 -37 32 -70 30 -73 -3 -2 11 -33 30 -68 43 -80 202
-435 211 -472 4 -15 10 -27 14 -27 15 0 34 -79 28 -117 -3 -21 -20 -103 -37
-183 -17 -80 -33 -163 -36 -185 -3 -22 -10 -58 -16 -80 -7 -22 -13 -60 -14
-85 -2 -69 -14 -144 -23 -150 -4 -3 -10 -16 -13 -30 -3 -14 -9 -33 -13 -42 -7
-17 94 -18 2040 -18 1949 0 2046 1 2041 18 -3 9 -15 64 -25 122 -11 58 -40
213 -65 345 -25 132 -58 303 -72 380 -14 77 -35 187 -47 245 -27 133 -29 276
-4 313 9 15 17 32 17 38 0 7 11 27 25 44 13 18 22 35 18 38 -3 3 35 24 83 47
49 23 116 58 149 80 60 38 106 51 301 80 29 4 61 11 72 14 11 4 57 13 103 21
46 8 93 16 104 18 11 3 61 12 110 21 50 10 122 23 160 31 59 12 322 61 420 79
17 3 64 12 105 20 41 8 113 21 160 30 47 9 109 21 138 27 l52 10 0 565 c0 310
-3 564 -6 564 -10 0 -463 -85 -589 -110 -185 -37 -363 44 -444 203 -24 48 -31
71 -26 93 12 53 106 339 123 373 29 60 104 87 372 135 52 9 138 26 190 36 52
10 159 31 238 46 l142 27 0 1164 0 1165 -26 -6 c-21 -6 -283 -55 -524 -100
-14 -2 -47 -9 -75 -15 -27 -6 -67 -13 -89 -16 -21 -3 -41 -7 -45 -9 -18 -11
-209 -37 -238 -33 -18 3 -33 2 -33 -4 0 -5 6 -9 14 -9 7 0 47 -17 87 -37 147
-73 264 -221 305 -382 29 -115 17 -227 -45 -416 -29 -88 -111 -340 -183 -560
-71 -220 -152 -465 -178 -545 -26 -80 -175 -527 -330 -995 -155 -467 -293
-871 -307 -897 -64 -118 -180 -212 -322 -261 -78 -27 -93 -29 -195 -25 -104 4
-123 8 -301 67 -478 157 -686 224 -895 291 -124 40 -630 207 -1125 372 -655
218 -916 310 -958 335 -167 101 -276 296 -277 494 0 73 20 149 131 484 102
311 276 850 350 1080 26 83 162 494 303 914 280 838 281 840 395 942 78 70
197 126 299 141 93 14 209 2 309 -32 32 -10 199 -66 370 -124 l313 -105 23 32
c13 18 31 43 40 57 35 51 134 144 206 191 233 152 526 181 766 76 232 -103
384 -268 467 -508 29 -85 32 -107 35 -224 2 -115 4 -130 20 -137 45 -17 542
-178 550 -178 4 0 -9 11 -30 24 -96 59 -157 155 -188 299 -22 99 -29 138 -84
442 -19 110 -39 216 -44 235 -5 19 -13 58 -16 85 -4 28 -13 75 -20 105 -7 30
-18 89 -25 130 -6 41 -17 104 -25 140 -75 347 -82 431 -44 533 28 78 50 111
108 166 65 61 144 94 291 120 69 12 157 28 195 36 39 7 86 16 105 19 19 3 44
8 55 10 100 21 180 37 230 46 33 6 98 18 145 26 115 22 116 22 188 33 34 5 77
14 95 20 17 5 76 17 130 26 l97 17 0 568 0 568 -32 -8 c-143 -35 -297 -51
-369 -37 -64 12 -157 67 -208 123 -71 78 -95 145 -95 264 0 87 2 101 32 161
47 98 126 167 228 202 43 15 120 34 169 42 50 9 131 24 180 33 l90 17 3 719
c2 573 0 717 -10 713 -20 -9 -278 -126 -328 -149 -25 -11 -92 -42 -150 -68
-97 -44 -292 -134 -625 -288 -71 -33 -158 -67 -191 -76 -78 -20 -212 -21 -287
-1 -94 24 -203 87 -261 150 -81 88 -83 92 -348 665 -49 107 -116 250 -149 318
-32 67 -59 125 -59 128 0 3 -16 38 -35 77 -67 141 -318 684 -375 812 -31 72
-88 198 -127 280 -208 446 -373 815 -382 855 -16 67 -13 218 4 284 24 93 81
191 153 262 73 72 146 111 605 320 208 94 257 120 252 133 -15 36 -18 249 -5
317 17 92 53 195 91 263 227 403 734 538 1133 303 76 -45 195 -149 229 -201
l16 -24 133 60 c73 33 242 111 375 172 133 61 264 116 292 123 l51 11 0 641 0
641 -77 -3 c-66 -3 -137 8 -457 72 l-379 76 -59 -40 c-125 -83 -191 -86 -513
-22 -137 28 -459 92 -715 142 -256 50 -658 130 -895 176 -671 133 -695 138
-1130 223 -225 45 -431 85 -456 90 -56 12 -145 53 -180 84 -27 24 -105 120
-111 136 -3 10 -172 47 -558 121 -148 28 -234 50 -277 70 -138 64 -228 208
-227 365 0 49 29 212 80 453 l7 32 -641 0 -641 0 29 -63 c39 -83 53 -163 47
-267 -5 -90 -27 -162 -299 -990 -439 -1338 -716 -2166 -745 -2229 -48 -102
-151 -205 -254 -254 -104 -50 -150 -60 -264 -60 l-100 0 -410 133 c-225 72
-432 140 -460 150 -27 10 -151 50 -275 90 -385 122 -543 174 -910 300 -195 67
-511 173 -701 235 -191 62 -375 127 -409 146 -82 43 -178 138 -223 220 -66
119 -91 267 -66 391 6 29 59 202 119 383 59 182 177 539 260 795 84 256 192
586 241 733 49 148 89 273 89 278 0 5 -529 9 -1297 9 l-1298 -1 28 -22 c109
-85 279 -300 261 -329 -4 -6 -3 -8 3 -5 12 7 36 -40 28 -54 -4 -5 -1 -9 5 -9
15 0 50 -79 50 -116 0 -16 4 -34 8 -40 16 -18 35 -92 30 -118 -3 -16 -1 -23 5
-19 7 4 8 -14 4 -53 -3 -36 -2 -49 3 -34 11 35 11 -64 0 -340 -15 -360 -11
-1272 5 -1289 17 -17 -13 -310 -35 -336 -6 -8 -13 -24 -14 -37 -5 -39 -18 -72
-44 -108 -30 -41 -49 -62 -37 -41 5 9 4 12 -3 7 -7 -4 -12 -13 -12 -21 0 -7
-13 -26 -30 -42 -74 -70 -180 -136 -205 -127 -12 5 -16 4 -12 -3 10 -16 -79
-33 -169 -33 -55 0 -97 7 -162 29 -91 30 -232 105 -232 124 0 5 -3 8 -6 4 -13
-13 -157 130 -147 146 3 6 1 7 -5 3 -10 -6 -112 138 -131 184 -8 20 -203 294
-213 298 -4 2 -4 10 -1 19 4 11 2 14 -5 9 -7 -4 -12 -1 -12 8 0 8 -4 16 -9 18
-5 2 -32 36 -60 77 -28 41 -64 89 -81 107 -16 19 -30 38 -30 43 0 6 -8 16 -18
23 -20 14 -136 180 -172 245 -13 23 -27 40 -32 37 -4 -3 -8 2 -8 10 0 23 -18
29 -35 12 -9 -8 -23 -12 -32 -9 -12 5 -14 3 -8 -7 6 -10 4 -12 -9 -7 -9 4 -15
3 -11 -2 7 -13 -88 -43 -108 -35 -10 3 -17 1 -17 -5 0 -25 -181 -1 -254 34
-19 9 -47 29 -62 43 -15 15 -24 20 -20 12 5 -8 -2 -3 -15 11 -44 48 -74 92
-73 106 1 7 -2 10 -7 7 -5 -3 -11 2 -14 10 -3 9 -8 24 -12 34 -3 9 -5 23 -4
30 1 6 -3 12 -10 12 -6 0 -8 7 -5 16 4 9 2 13 -5 8 -8 -4 -10 10 -7 48 2 42 0
54 -12 54 -8 1 -67 16 -130 33 -63 17 -130 34 -147 38 -19 3 -30 10 -26 16 3
6 1 7 -5 3 -6 -4 -33 0 -60 7 -49 15 -82 9 -82 -15 0 -15 -102 -108 -112 -102
-4 3 -8 1 -8 -5 0 -16 -84 -51 -146 -61 -84 -14 -141 -12 -199 6 -27 8 -58 17
-69 19 -31 7 -67 35 -60 47 4 6 1 9 -7 6 -19 -6 -101 79 -130 135 -13 26 -26
47 -29 47 -3 0 -25 -11 -48 -25 -24 -14 -48 -22 -53 -19 -5 3 -9 1 -9 -5 0 -6
-7 -8 -15 -4 -10 3 -15 0 -13 -8 2 -7 -1 -14 -7 -14 -5 -1 -27 -9 -49 -18 -21
-9 -45 -17 -52 -17 -8 0 -14 -4 -14 -8 0 -5 -30 -21 -67 -37 -38 -15 -85 -36
-106 -46 -21 -11 -43 -16 -49 -13 -6 4 -9 3 -5 -2 3 -5 -34 -25 -81 -44 -92
-36 -198 -83 -297 -131 -33 -16 -68 -29 -78 -29 -10 0 -15 -4 -12 -10 3 -5 3
-10 -2 -11 -30 -3 -49 -11 -83 -34 -23 -16 -44 -24 -52 -19 -7 4 -10 4 -6 -1
14 -15 -164 -92 -264 -115 -77 -18 -118 -21 -190 -18 -98 5 -282 44 -273 58 3
4 -3 7 -13 6 -9 0 -16 5 -14 12 1 7 -3 12 -10 11 -19 -4 -68 23 -62 32 3 5 -1
9 -8 9 -16 0 -120 109 -113 119 2 4 -7 20 -21 36 -13 15 -24 33 -24 40 0 7 -7
26 -16 44 -9 17 -13 38 -10 46 2 7 0 16 -7 18 -8 3 -12 37 -11 118 1 94 6 128
28 197 15 46 36 91 46 99 10 9 17 20 14 25 -3 5 13 41 37 80 55 93 89 143 89
132 1 -5 7 8 14 28 15 41 40 71 51 60 5 -4 5 -1 0 7 -5 9 -2 19 10 28 11 7 16
13 12 13 -9 0 133 224 144 228 5 2 7 8 4 12 -3 5 13 36 34 70 22 34 43 71 46
81 4 11 11 16 18 13 7 -4 9 -4 5 1 -9 9 20 67 39 78 7 5 11 12 8 17 -8 13 17
60 28 53 6 -3 7 -1 4 4 -4 6 7 29 23 52 l30 41 -505 0 -505 0 0 -2796z m6300
935 c0 -33 -4 -59 -10 -59 -6 0 -10 29 -10 66 0 41 4 63 10 59 6 -3 10 -33 10
-66z m-1925 51 c3 -5 1 -10 -4 -10 -6 0 -11 5 -11 10 0 6 2 10 4 10 3 0 8 -4
11 -10z m10434 -762 c11 -10 12 -10 7 -1 -5 9 -2 11 8 7 15 -6 51 -54 41 -54
-3 0 -1 -9 5 -20 15 -28 -15 -77 -55 -90 -18 -5 -217 -9 -492 -8 l-462 0 -46
-28 c-51 -32 -87 -94 -87 -148 0 -40 20 -116 31 -116 4 0 14 -12 21 -26 8 -14
23 -30 33 -36 15 -7 18 -7 12 2 -4 7 4 5 18 -5 23 -15 90 -17 724 -18 l698 -2
36 -27 c20 -16 40 -28 45 -28 27 0 151 -160 139 -179 -3 -6 -1 -11 5 -11 7 0
9 -8 5 -19 -3 -11 -1 -22 5 -26 15 -10 12 -91 -7 -159 -16 -58 -21 -68 -51
-101 -7 -8 -10 -15 -6 -15 21 0 -79 -76 -136 -103 l-65 -32 -275 -3 c-235 -2
-280 -5 -310 -20 -61 -30 -110 -107 -102 -161 4 -28 8 -31 41 -31 45 0 108
-17 117 -32 5 -7 2 -8 -7 -3 -11 7 -12 6 -2 -6 11 -13 18 -53 13 -74 -1 -5 -3
-29 -4 -52 l-1 -41 200 -5 c192 -4 282 -17 269 -39 -3 -4 3 -8 13 -8 41 0 155
-107 200 -189 l37 -65 4 -165 4 -166 35 -49 c19 -26 29 -45 21 -40 -7 4 -1 -6
13 -22 14 -16 36 -45 49 -64 13 -19 41 -55 62 -79 21 -24 36 -47 33 -50 -2 -4
7 -19 21 -34 13 -14 24 -31 24 -37 0 -5 4 -10 9 -10 30 0 32 -61 27 -720 l-5
-661 -27 -37 c-16 -20 -35 -43 -44 -50 -13 -11 -13 -12 0 -6 18 9 12 1 -56
-81 -23 -27 -42 -54 -42 -58 -1 -9 -37 -59 -64 -88 -10 -11 -16 -19 -14 -19 5
0 -55 -95 -74 -117 -6 -7 -10 -17 -10 -23 0 -6 -11 -26 -25 -44 -14 -18 -25
-36 -25 -39 0 -12 -133 -137 -146 -137 -6 0 -19 -12 -29 -26 -10 -15 -22 -23
-31 -20 -8 3 -13 2 -10 -2 10 -16 -155 -107 -289 -160 -60 -24 -119 -47 -130
-52 -76 -32 -205 -51 -287 -40 -78 9 -238 57 -238 70 0 6 -8 10 -17 11 -17 0
-70 26 -200 96 -85 45 -211 142 -263 201 -76 86 -100 119 -100 136 0 9 -4 16
-9 16 -8 0 -24 32 -26 51 0 3 -8 17 -18 30 -57 77 -190 259 -237 326 l-55 78
-2 654 -3 654 31 54 c17 29 35 53 40 53 5 0 9 6 9 13 0 11 10 25 68 93 9 11
23 32 30 46 8 14 24 36 35 50 12 13 28 33 35 44 7 10 21 33 32 49 17 25 20 47
20 135 1 223 38 333 141 419 33 28 90 65 127 83 l66 33 182 3 182 4 5 71 c2
40 6 80 9 91 6 24 36 46 54 39 8 -3 14 0 14 6 0 6 9 11 20 11 15 0 20 7 20 29
0 16 9 57 19 90 31 100 95 171 199 221 l62 30 272 6 c149 3 283 10 296 15 14
5 27 7 30 4 6 -6 49 42 68 77 22 43 22 129 -1 164 -11 16 -19 32 -17 36 1 4
-8 10 -21 14 -12 4 -34 15 -49 26 -26 18 -56 19 -705 21 -636 2 -680 3 -717
20 -22 11 -49 21 -60 23 -11 2 -33 16 -49 31 -15 16 -40 39 -54 53 -58 57
-101 192 -88 278 7 47 44 139 67 168 61 77 131 124 213 143 65 15 958 14 974
-1z m-191 -745 c-21 -2 -55 -2 -75 0 -21 2 -4 4 37 4 41 0 58 -2 38 -4z
m-4245 -1413 c14 -16 27 -34 29 -41 3 -8 18 -4 48 11 158 81 303 78 438 -9 83
-53 107 -91 337 -536 48 -93 98 -188 110 -210 12 -22 132 -247 265 -500 133
-253 251 -472 261 -486 10 -15 26 -55 35 -90 20 -77 8 -174 -33 -276 -40 -98
-91 -143 -259 -229 -76 -39 -193 -100 -259 -135 -66 -35 -165 -86 -219 -115
-96 -49 -100 -52 -111 -95 -19 -72 -52 -132 -103 -184 -47 -49 -122 -92 -607
-346 -356 -186 -497 -261 -715 -376 -135 -72 -301 -160 -370 -195 -69 -36
-199 -105 -290 -153 -91 -48 -217 -114 -280 -147 -63 -34 -142 -75 -175 -93
-33 -18 -123 -65 -200 -105 -77 -40 -153 -80 -170 -90 -27 -16 -204 -109 -359
-189 -105 -54 -229 -64 -335 -26 -42 14 -44 14 -118 -21 -42 -20 -101 -51
-132 -69 -63 -36 -309 -165 -446 -234 -84 -42 -97 -45 -183 -49 -84 -4 -101
-2 -165 24 -56 21 -85 41 -132 88 -54 55 -80 100 -259 441 -110 209 -252 479
-316 600 -246 463 -348 662 -364 709 -18 52 -23 160 -11 216 29 136 138 240
353 341 43 20 51 27 45 44 -3 11 -6 42 -7 70 -1 50 -1 50 54 86 30 20 125 72
210 116 253 131 293 154 346 202 31 28 116 80 220 134 93 48 196 102 229 120
53 29 198 105 485 255 47 24 99 52 115 62 17 9 107 57 200 105 94 48 197 102
230 120 89 48 382 203 525 277 139 72 289 151 395 208 147 79 257 137 515 272
58 31 145 77 194 103 48 25 117 53 152 60 35 7 92 29 126 48 35 19 106 57 158
84 195 103 317 168 375 199 81 44 134 45 168 4z m-6367 -3648 c59 -37 93 -78
117 -140 16 -39 17 -207 17 -2265 0 -2186 -1 -2223 -20 -2265 -34 -76 -102
-134 -185 -161 -32 -10 -291 -12 -1230 -9 l-1190 3 -55 28 c-63 31 -117 93
-143 164 -16 45 -17 168 -13 2258 5 2102 6 2212 23 2255 29 72 101 139 172
160 14 5 573 7 1241 7 l1215 -2 51 -33z m10188 -30 c27 -9 62 -29 77 -44 15
-16 32 -28 37 -28 5 0 13 -7 16 -16 3 -9 11 -12 18 -8 8 5 9 2 5 -10 -4 -9 -3
-15 2 -12 13 8 34 -21 25 -35 -4 -8 -3 -9 4 -5 14 9 46 -58 62 -133 13 -55 8
-160 -8 -170 -5 -3 -15 -31 -22 -61 -13 -55 -17 -63 -57 -106 -13 -14 -23 -28
-23 -32 0 -4 -33 -23 -73 -42 -39 -19 -74 -37 -77 -40 -8 -9 -100 -63 -150
-90 -25 -12 -52 -29 -61 -36 -8 -8 -20 -14 -25 -14 -10 0 -173 -82 -220 -111
-17 -10 -34 -17 -37 -14 -4 3 -5 2 -2 -1 7 -10 -78 -53 -90 -46 -5 3 -7 2 -3
-3 10 -11 -41 -37 -55 -28 -6 3 -7 1 -3 -5 6 -10 -78 -57 -96 -54 -3 1 -12 -5
-18 -13 -7 -8 -20 -15 -30 -15 -10 0 -21 -7 -24 -16 -3 -8 -10 -13 -15 -10 -5
3 -11 -1 -15 -9 -3 -8 -14 -15 -24 -15 -11 0 -25 -7 -32 -15 -7 -9 -19 -14
-27 -11 -9 4 -11 1 -7 -6 5 -8 1 -9 -12 -4 -10 4 -15 4 -11 0 8 -9 -47 -44
-68 -44 -9 0 -20 -11 -27 -25 -6 -13 -14 -22 -18 -20 -11 7 -21 -30 -26 -90
-3 -27 -6 -58 -8 -68 -2 -9 0 -15 4 -12 5 3 12 -4 15 -16 4 -12 20 -44 36 -71
16 -27 32 -60 35 -73 l6 -25 30 26 c17 14 37 23 45 20 8 -3 11 -1 8 4 -9 14
56 28 88 19 37 -10 50 -25 86 -97 17 -34 33 -62 35 -62 1 0 17 7 34 16 18 8
36 12 42 9 6 -4 9 -2 8 4 -2 6 29 28 67 49 39 20 72 40 73 45 2 4 10 7 17 7 7
0 41 16 75 35 34 19 66 35 71 35 5 0 9 5 9 10 0 6 5 10 11 10 18 0 33 22 78
114 24 48 64 115 88 147 23 32 43 63 43 68 0 5 20 27 45 49 24 23 49 51 55 62
6 11 14 19 18 16 9 -5 39 16 40 29 1 6 23 26 49 45 26 19 43 28 39 20 -5 -8 1
-6 12 5 38 36 50 44 76 51 14 3 26 10 26 14 0 13 91 52 107 46 9 -4 11 -2 7 6
-5 8 -2 9 10 5 10 -4 15 -3 11 3 -3 6 0 11 7 12 7 0 24 2 38 4 14 1 45 10 70
19 25 9 64 17 87 18 22 1 39 6 36 10 -6 9 263 3 312 -7 17 -3 53 -10 80 -15
73 -14 216 -61 211 -69 -3 -5 5 -9 16 -9 26 -2 158 -81 165 -99 3 -8 9 -12 13
-9 4 3 52 -38 105 -90 54 -52 95 -95 91 -95 -4 0 -1 -6 6 -14 7 -8 16 -12 20
-10 3 2 12 -9 19 -25 7 -16 17 -27 21 -25 4 3 8 1 8 -5 0 -6 22 -31 50 -57 27
-25 52 -55 55 -65 4 -11 11 -17 16 -14 5 4 9 2 9 -2 0 -5 37 -47 83 -94 110
-114 137 -146 129 -154 -4 -4 -2 -5 5 -3 12 3 153 -137 153 -153 0 -6 5 -7 10
-4 6 3 10 1 10 -5 0 -12 293 -301 415 -410 85 -77 175 -176 175 -195 0 -3 9
-16 20 -28 11 -12 18 -27 15 -35 -2 -7 0 -10 5 -7 6 3 10 -1 10 -10 0 -8 11
-38 25 -65 43 -85 58 -170 45 -259 -21 -144 -88 -268 -194 -361 -49 -43 -85
-62 -99 -53 -5 3 -7 1 -3 -5 7 -12 -29 -26 -44 -17 -6 4 -9 1 -8 -5 3 -11 -39
-30 -127 -57 -62 -19 -290 -30 -308 -15 -7 6 -35 14 -62 17 -28 4 -54 11 -59
16 -6 5 -22 9 -37 9 -46 0 -89 12 -82 23 3 6 1 7 -5 3 -13 -8 -164 20 -199 36
-12 6 -34 10 -50 10 -15 -1 -75 7 -133 18 -58 11 -175 32 -260 46 -298 50
-335 57 -338 65 -2 5 -16 6 -31 3 -16 -4 -32 -1 -35 5 -16 25 -35 9 -46 -39
-7 -28 -16 -53 -21 -56 -5 -3 -9 -13 -9 -23 0 -10 -12 -30 -27 -45 -15 -15
-31 -37 -37 -49 -14 -28 -106 -97 -128 -97 -10 0 -18 -4 -18 -9 0 -21 -112
-42 -194 -38 -99 6 -157 17 -151 27 4 7 -31 23 -46 21 -4 0 -20 12 -35 27 -16
14 -32 25 -36 24 -5 -1 -8 3 -8 8 0 18 -28 11 -80 -20 -28 -17 -49 -26 -45
-20 4 6 -4 6 -19 -1 -14 -7 -23 -16 -20 -20 5 -8 -17 -13 -38 -10 -4 0 -5 -6
-2 -14 4 -10 0 -15 -16 -15 -20 0 -60 -16 -70 -29 -3 -4 -27 -18 -54 -31 -26
-14 -50 -31 -53 -37 -3 -7 -9 -11 -14 -8 -4 3 -3 -8 3 -25 16 -47 -7 -209 -39
-270 -14 -27 -29 -47 -34 -45 -4 3 -11 0 -15 -6 -4 -8 -3 -9 4 -5 7 4 12 3 12
-2 0 -12 -54 -62 -68 -62 -7 0 -12 -6 -12 -13 0 -14 -37 -40 -61 -42 -10 -1
-24 -9 -34 -18 -9 -9 -30 -17 -46 -17 -18 0 -28 -4 -24 -10 4 -7 -3 -8 -21 -4
-21 5 -25 4 -19 -6 12 -19 -163 -7 -204 14 -16 9 -34 16 -39 16 -6 0 -18 -27
-28 -60 -10 -33 -21 -60 -26 -60 -4 0 -8 -9 -8 -21 0 -11 -11 -44 -24 -72 -13
-29 -30 -71 -37 -94 -7 -24 -15 -43 -19 -43 -4 0 -10 -10 -13 -22 -3 -13 -24
-68 -47 -123 -23 -55 -50 -123 -60 -150 -9 -28 -27 -70 -39 -95 -11 -24 -21
-48 -21 -53 0 -5 -14 -43 -31 -85 -17 -43 -53 -141 -80 -220 -56 -165 -105
-264 -163 -330 -23 -26 -49 -59 -59 -74 -12 -19 -22 -25 -34 -21 -9 4 -14 2
-11 -3 2 -5 -8 -22 -24 -37 -15 -15 -28 -24 -28 -20 0 4 -7 -3 -16 -15 -8 -12
-20 -22 -25 -22 -5 0 -23 -10 -38 -21 -16 -12 -34 -18 -40 -15 -6 4 -11 2 -11
-4 0 -7 -7 -9 -16 -6 -9 4 -13 2 -8 -5 4 -8 -1 -9 -16 -4 -14 4 -20 3 -16 -3
8 -13 -12 -20 -76 -27 -29 -4 -64 -8 -76 -11 -13 -3 -21 -1 -18 4 3 6 -17 9
-47 9 -28 0 -65 5 -82 13 -16 7 -38 12 -49 11 -12 -2 -16 1 -11 10 5 8 4 10
-4 5 -13 -9 -123 53 -116 65 3 4 -2 10 -11 13 -10 4 -13 2 -8 -7 4 -6 -12 6
-35 28 -43 40 -116 141 -116 160 0 6 -7 16 -15 23 -8 8 -9 11 -3 7 9 -4 11 -1
7 9 -3 9 -11 13 -17 9 -6 -4 -7 -1 -2 7 4 7 2 16 -5 20 -6 4 -13 19 -13 33 -1
14 -5 23 -9 21 -11 -7 -52 196 -49 245 0 14 -2 21 -6 17 -6 -6 -26 71 -38 144
-2 14 -4 27 -5 30 -2 3 -2 9 -1 14 1 4 -3 14 -9 21 -6 7 -7 20 -4 29 4 10 2
27 -4 39 -18 38 -84 316 -79 331 3 8 1 16 -5 18 -5 2 -11 17 -12 33 -2 17 -5
37 -8 45 -31 84 -41 118 -48 171 -5 34 -13 65 -18 68 -4 3 -13 26 -19 51 -6
25 -18 71 -26 103 -8 31 -12 57 -9 57 2 0 -1 6 -7 13 -14 17 -42 94 -47 127
-2 14 -10 58 -19 99 -8 41 -13 76 -10 79 3 3 1 10 -4 16 -6 7 -13 57 -17 113
-8 116 12 334 28 311 7 -9 8 -8 4 6 -12 37 76 282 97 269 6 -3 7 -1 3 5 -7 11
46 100 83 139 12 12 21 26 21 30 0 14 105 123 118 123 7 0 11 4 7 10 -3 5 7
17 22 27 15 10 32 23 36 30 4 7 14 13 21 13 7 0 21 8 32 18 10 9 31 23 46 31
15 8 36 22 46 31 10 10 34 21 53 25 19 4 36 11 39 15 18 26 198 87 225 76 11
-4 14 -2 9 6 -5 8 3 9 30 5 20 -3 34 -2 31 2 -9 15 200 23 292 12 92 -11 144
-11 137 1 -2 4 6 10 18 13 13 4 31 14 40 22 9 8 22 12 29 7 8 -5 10 -3 4 6 -6
10 -4 12 8 7 9 -3 17 -3 19 1 5 11 66 52 77 52 5 0 11 4 13 8 4 10 138 82 153
82 5 0 16 9 22 19 10 15 9 22 -1 30 -7 6 -19 29 -26 51 -7 21 -17 37 -21 34
-5 -3 -10 1 -11 8 -8 73 1 111 31 122 39 15 71 38 71 52 0 8 -16 38 -35 66
-20 28 -33 53 -31 56 3 2 -4 14 -15 25 -11 12 -17 27 -15 34 3 6 0 13 -6 15
-6 2 -13 44 -16 102 -5 108 7 155 59 234 16 24 29 45 29 47 0 10 76 74 88 75
6 0 12 5 12 10 0 6 4 10 9 10 6 0 38 16 71 36 34 20 67 37 73 38 7 1 19 6 27
11 27 18 55 34 70 41 8 4 17 10 20 13 3 3 23 15 45 26 51 25 165 87 230 126
28 16 75 41 105 56 30 16 57 31 58 36 2 4 10 7 18 7 8 0 14 4 14 8 0 5 18 14
41 21 22 7 43 19 46 27 3 7 9 11 15 8 5 -3 15 1 21 11 7 9 19 17 27 18 8 1 43
19 76 40 34 20 69 37 78 37 10 0 15 4 12 8 -2 4 15 18 40 31 46 25 74 66 74
108 0 16 4 22 12 17 8 -5 9 -2 5 10 -4 10 -10 30 -13 44 -11 53 -26 78 -66
110 -34 27 -48 32 -95 32 -30 0 -67 -7 -84 -15 -16 -9 -34 -13 -39 -10 -6 3
-10 1 -10 -6 0 -7 -3 -10 -6 -6 -3 3 -17 -5 -31 -19 -13 -13 -29 -24 -36 -24
-7 0 -29 -12 -50 -26 -21 -14 -48 -27 -60 -30 -12 -2 -33 -12 -47 -22 -14 -11
-35 -22 -48 -26 -12 -4 -22 -12 -22 -17 0 -6 -5 -7 -10 -4 -6 3 -13 -1 -16 -9
-3 -9 -11 -13 -16 -10 -6 4 -13 2 -17 -3 -3 -6 -44 -31 -91 -55 -47 -25 -116
-65 -155 -89 -38 -23 -76 -42 -82 -42 -7 0 -13 -5 -13 -10 0 -6 -3 -8 -6 -4
-3 3 -15 -4 -26 -15 -11 -11 -26 -17 -34 -14 -10 4 -12 2 -8 -6 5 -8 1 -9 -12
-4 -10 4 -15 4 -11 0 7 -7 -69 -64 -85 -64 -4 0 -29 -13 -55 -28 -27 -16 -54
-27 -62 -24 -9 3 -11 0 -6 -8 6 -10 4 -12 -8 -7 -10 3 -17 2 -17 -3 0 -6 -4
-10 -10 -10 -5 0 -19 -9 -30 -20 -12 -12 -24 -18 -29 -16 -4 3 -17 -2 -27 -12
-10 -9 -35 -25 -54 -34 -19 -10 -57 -30 -85 -46 -50 -29 -244 -132 -300 -161
-16 -8 -39 -23 -50 -33 -10 -10 -25 -16 -33 -13 -7 2 -11 1 -8 -3 5 -9 -92
-62 -113 -62 -10 0 -65 -34 -81 -50 -12 -12 -108 -67 -140 -80 -19 -8 -44 -22
-54 -32 -11 -10 -26 -19 -33 -19 -31 -3 -66 -20 -80 -38 -6 -9 -15 -13 -19 -8
-4 4 -16 0 -25 -9 -38 -35 -248 -26 -285 11 -9 8 -19 13 -24 10 -4 -2 -19 6
-33 19 -14 13 -28 22 -30 20 -8 -8 -89 90 -112 136 -32 64 -48 152 -40 218 12
96 100 252 142 252 8 0 12 4 9 8 -7 12 69 54 79 44 5 -4 5 -2 2 4 -4 7 7 17
26 25 17 7 38 19 46 27 7 7 20 11 28 8 9 -4 11 -2 7 6 -5 8 -2 9 10 5 10 -4
15 -3 11 3 -3 6 6 15 22 20 44 16 75 33 109 57 17 13 36 23 42 23 6 0 17 6 24
13 7 6 31 21 53 32 22 11 42 22 45 25 11 12 113 60 128 60 8 0 12 3 9 7 -4 3
12 15 35 25 23 11 45 23 48 27 3 5 39 27 80 49 41 22 107 56 145 77 39 20 74
41 79 46 6 5 18 9 27 9 10 0 19 3 21 8 5 10 86 62 98 62 6 0 21 7 35 16 19 12
28 13 46 4 14 -8 19 -8 15 -1 -14 21 15 11 44 -16 40 -37 49 -109 19 -142 -11
-11 -24 -21 -30 -21 -6 0 -8 -4 -4 -9 7 -12 -31 -25 -46 -15 -7 4 -9 3 -6 -3
8 -12 -130 -89 -151 -85 -8 2 -11 -1 -8 -6 6 -10 -72 -49 -87 -44 -5 1 -6 -2
-3 -7 4 -5 -4 -13 -16 -17 -13 -3 -35 -15 -49 -25 -14 -10 -32 -19 -40 -21 -8
-2 -16 -6 -19 -9 -9 -10 -174 -105 -215 -122 -22 -10 -47 -22 -55 -27 -8 -6
-34 -19 -57 -31 -24 -12 -43 -25 -43 -30 0 -5 -9 -9 -20 -9 -11 0 -20 -4 -20
-10 0 -5 -6 -10 -14 -10 -8 0 -21 -7 -30 -15 -23 -23 -163 -94 -171 -87 -4 4
-12 0 -18 -9 -7 -9 -36 -29 -65 -44 -29 -15 -58 -37 -64 -49 -6 -11 -15 -24
-20 -27 -11 -7 -28 -152 -18 -159 4 -3 10 -14 14 -25 10 -30 86 -82 131 -90
22 -3 51 -8 65 -11 19 -4 22 -2 10 6 -12 7 -8 10 18 10 17 0 32 4 32 9 0 9 60
37 73 33 4 -1 10 4 13 12 3 8 22 20 42 27 21 7 49 22 65 35 16 14 34 21 44 17
11 -4 14 -3 9 5 -4 7 -3 12 2 12 6 0 40 18 76 40 37 23 71 38 76 35 6 -4 13 0
16 8 3 8 35 30 72 48 37 18 80 42 96 53 48 32 98 56 108 50 4 -3 11 2 14 10 3
9 12 16 20 16 8 0 14 5 14 10 0 6 4 10 10 10 5 0 31 14 57 30 26 17 55 30 65
30 10 0 18 5 18 11 0 5 4 8 9 4 6 -3 13 1 18 8 9 16 93 61 93 50 0 -3 11 4 24
16 15 14 30 20 37 16 7 -5 10 -4 6 2 -4 6 7 16 24 23 17 8 47 24 66 37 19 13
40 20 46 17 7 -4 9 -4 5 1 -6 6 232 144 282 163 8 3 38 20 65 37 28 18 79 47
115 66 36 18 67 36 70 39 9 11 81 50 91 50 6 0 22 9 36 20 14 11 29 17 34 14
5 -3 9 0 9 5 0 9 108 70 127 72 5 0 14 6 21 11 12 10 42 27 145 81 70 36 188
40 281 9z m-1985 -566 c-2 -2 -15 -9 -29 -15 -24 -11 -24 -11 -6 3 16 13 49
24 35 12z m-99 -51 c0 -2 -10 -9 -22 -15 -22 -11 -22 -10 -4 4 21 17 26 19 26
11z m580 -10 c7 -9 11 -17 9 -19 -2 -1 -24 -14 -49 -28 -25 -13 -61 -34 -80
-45 -153 -86 -250 -133 -250 -120 0 9 12 25 26 36 25 19 24 26 -1 21 -6 -1 -5
4 1 10 6 6 23 13 38 14 27 3 89 59 78 71 -3 3 1 3 11 -1 11 -4 19 0 23 10 4 9
14 16 23 15 9 -1 23 -1 31 0 13 1 13 2 0 11 -11 7 -5 10 23 10 24 0 36 4 32
10 -4 7 2 9 18 5 14 -4 28 -2 31 4 10 15 21 14 36 -4z m-655 -33 c-20 -18
-127 -73 -120 -62 3 6 32 24 63 40 60 31 72 35 57 22z m1185 -6 c0 -8 -468
-272 -509 -288 -53 -20 -3 11 242 148 243 137 267 149 267 140z m-1336 -81
c-10 -8 -23 -15 -28 -15 -6 0 -1 7 10 15 10 8 23 15 28 15 6 0 1 -7 -10 -15z
m3236 -51 c0 -2 -19 -4 -42 -4 -26 0 -38 4 -30 8 12 8 72 4 72 -4z m-970 1 c0
-2 -10 -9 -22 -15 -22 -11 -22 -10 -4 4 21 17 26 19 26 11z m-71 -43 c-30 -22
-143 -87 -229 -132 -36 -18 -72 -38 -80 -45 -21 -18 -201 -107 -206 -102 -4 4
131 82 216 125 25 13 65 36 90 52 53 35 211 119 224 119 5 1 -2 -7 -15 -17z
m1736 -322 c3 -11 10 -20 14 -20 5 0 21 -19 36 -42 26 -41 26 -41 -23 12 -51
55 -60 70 -43 70 5 0 13 -9 16 -20z m555 -598 c0 -5 20 -23 44 -40 50 -36 129
-127 124 -142 -1 -5 -47 35 -102 90 -56 58 -91 100 -82 100 9 0 16 -4 16 -8z
m-8512 -643 c70 -24 91 -118 40 -174 -22 -23 -37 -27 -154 -39 -109 -12 -299
-30 -459 -42 -22 -2 -89 -8 -150 -14 -60 -5 -162 -14 -225 -20 -388 -33 -408
-36 -448 -64 -96 -66 -104 -191 -17 -278 54 -54 64 -54 665 2 188 17 556 50
735 65 243 20 445 37 590 51 551 50 631 55 680 44 57 -13 149 -55 181 -83 78
-67 134 -193 134 -302 0 -61 -38 -171 -77 -222 -46 -61 -118 -110 -191 -132
-65 -20 -134 -27 -727 -76 -104 -9 -256 -23 -338 -31 -81 -8 -169 -14 -195
-14 -59 0 -120 -27 -154 -68 -31 -37 -43 -112 -31 -181 l8 -45 71 0 c107 -1
128 -28 139 -174 4 -50 10 -92 14 -92 3 0 105 9 226 20 121 11 276 25 345 30
69 5 170 14 225 19 55 6 161 15 235 21 129 10 326 28 565 51 405 37 420 38
488 24 35 -7 87 -25 113 -39 88 -45 179 -151 205 -238 5 -18 19 -136 29 -263
11 -126 24 -268 30 -315 5 -47 15 -152 21 -235 5 -82 12 -168 14 -190 24 -227
49 -540 50 -625 0 -108 -4 -123 -60 -220 -48 -84 -161 -160 -275 -185 -23 -5
-155 -18 -370 -35 -140 -11 -298 -24 -350 -30 -52 -5 -207 -19 -345 -30 -137
-12 -284 -25 -325 -30 -41 -5 -160 -16 -265 -24 -104 -9 -244 -20 -310 -26
-132 -12 -613 -53 -880 -75 -93 -8 -273 -23 -400 -35 -126 -11 -255 -23 -285
-25 -30 -3 -77 -7 -105 -10 -27 -3 -81 -7 -120 -10 -38 -3 -137 -12 -220 -20
-660 -64 -705 -65 -825 -3 -134 68 -206 192 -221 383 -17 213 -40 471 -49 555
-5 47 -14 146 -20 220 -5 74 -14 173 -20 220 -14 124 -29 291 -35 402 -12 192
34 311 157 409 97 76 127 82 698 129 135 11 263 22 285 24 22 3 74 7 115 11
68 5 564 48 880 75 69 6 144 13 168 16 l43 5 -7 108 -7 108 30 32 c22 26 39
34 73 38 25 3 47 7 50 9 2 3 4 57 5 122 0 106 3 122 27 172 61 124 158 198
293 224 30 6 192 21 340 31 44 3 118 10 165 15 47 5 127 12 177 15 51 4 110 8
130 10 21 3 119 11 218 20 99 8 196 18 217 21 118 18 183 168 113 260 -51 67
-76 76 -195 70 -107 -5 -553 -42 -625 -51 -22 -3 -92 -10 -155 -15 -63 -5
-194 -16 -290 -24 -96 -9 -202 -18 -235 -21 -68 -6 -273 -24 -681 -60 -442
-39 -481 -41 -550 -20 -79 24 -121 49 -172 104 -104 109 -139 276 -86 413 25
63 88 141 147 182 80 54 132 68 322 81 68 5 226 19 445 40 30 3 145 12 255 21
161 12 386 34 451 42 6 1 25 -3 42 -9z m7212 -759 c13 -8 13 -10 -2 -10 -9 0
-23 -3 -32 -6 -11 -4 -16 -1 -16 10 0 18 27 21 50 6z m730 -127 c133 -26 170
-39 81 -27 -40 5 -55 3 -61 -7 -7 -10 -24 -8 -92 14 -46 15 -91 27 -100 27
-24 0 -48 11 -48 22 0 12 46 6 220 -29z m-1540 -108 c0 -6 -76 -45 -87 -45 -9
0 68 48 80 49 4 1 7 -1 7 -4z m-282 -167 c9 -9 3 -16 -26 -30 -45 -21 -52 -22
-52 -5 0 7 12 20 28 29 33 21 35 21 50 6z m-664 -557 c6 -10 -41 -57 -49 -49
-3 3 0 17 6 32 12 26 33 34 43 17z m-1916 -350 c37 -148 28 -162 -18 -30 -33
92 -37 119 -17 119 8 0 21 -34 35 -89z m1779 -38 c-16 -32 -45 -103 -51 -125
-4 -17 -16 -30 -36 -36 -16 -6 -30 -8 -30 -4 0 4 14 42 32 84 30 74 34 79 81
87 5 0 6 -2 4 -6z m-1137 -3647 c0 -2 -7 -7 -16 -10 -8 -3 -12 -2 -9 4 6 10
25 14 25 6z m-89 -46 c-30 -17 -58 -30 -62 -30 -4 0 -20 -7 -36 -15 -38 -20
-156 -65 -160 -61 -2 2 38 22 89 45 51 23 116 53 143 66 71 34 90 30 26 -5z"/>
<path d="M14450 15801 c-23 -6 -26 -12 -21 -41 2 -16 91 -12 107 5 14 13 14
17 0 30 -15 16 -44 18 -86 6z"/>
<path d="M13942 15578 c-63 -9 -148 -60 -183 -109 l-24 -34 -3 -1224 c-2 -822
1 -1228 8 -1235 5 -5 10 -17 10 -27 0 -28 179 -191 270 -246 93 -55 254 -133
276 -133 8 0 14 -3 14 -7 0 -5 14 -9 32 -10 17 -1 34 -6 37 -11 8 -12 189 -16
204 -4 7 5 39 17 72 26 33 10 85 30 115 44 30 14 66 30 80 36 14 6 27 13 30
16 3 3 16 11 30 18 67 35 88 47 118 74 18 15 37 28 43 28 20 0 146 137 168
182 l21 45 0 1177 c0 848 -3 1189 -11 1222 -13 50 -103 159 -124 150 -7 -2
-18 1 -24 7 -14 14 -321 24 -321 10 0 -4 -1 -516 -3 -1138 l-2 -1130 -24 -45
c-14 -25 -38 -57 -55 -72 -16 -16 -26 -28 -21 -28 21 0 -67 -48 -107 -58 -48
-12 -168 -6 -168 9 0 4 -14 10 -31 14 -39 9 -105 67 -123 109 -36 80 -36 86
-36 1195 0 603 0 1110 0 1127 l0 31 -107 -1 c-60 0 -132 -4 -161 -8z m248 -77
c0 -96 -15 -107 -68 -54 -13 13 -27 23 -32 23 -13 0 -38 61 -32 78 3 8 26 12
68 12 l64 0 0 -59z m697 7 c-2 -13 -4 -5 -4 17 -1 22 1 32 4 23 2 -10 2 -28 0
-40z m0 -50 c-3 -8 -6 -5 -6 6 -1 11 2 17 5 13 3 -3 4 -12 1 -19z m-1111
-1000 c17 -49 -1 -397 -22 -417 -2 -2 -4 95 -4 217 0 209 6 257 26 200z m411
-50 c-3 -7 -5 -2 -5 12 0 14 2 19 5 13 2 -7 2 -19 0 -25z"/>
<path d="M14388 14453 l2 -1128 24 -21 c14 -12 22 -25 19 -28 -10 -10 84 -7
111 4 60 22 57 -34 57 1173 0 606 0 1108 -1 1115 0 9 -28 12 -107 12 l-108 0
3 -1127z m163 1088 l29 -29 0 -442 c0 -472 2 -448 -52 -484 -23 -15 -30 -16
-60 -3 -69 29 -68 19 -68 481 0 310 3 422 12 443 31 67 90 82 139 34z m-91
-979 l45 -17 3 -65 c4 -73 12 -95 12 -32 0 22 5 42 10 44 6 2 11 17 13 35 1
21 8 34 20 37 16 4 17 -7 17 -130 0 -113 -2 -133 -15 -128 -8 3 -17 21 -21 40
-6 35 -27 46 -37 20 -4 -9 -14 -12 -26 -9 -16 4 -21 1 -21 -13 0 -11 -7 -28
-15 -38 -8 -11 -15 -32 -15 -48 0 -15 -4 -28 -10 -28 -6 0 -10 65 -10 175 0
96 1 175 3 175 1 0 22 -8 47 -18z"/>
<path d="M13505 14764 c-9 -15 -12 -23 -6 -20 11 7 35 46 28 46 -3 0 -12 -12
-22 -26z"/>
<path d="M13475 14719 c-4 -6 -5 -12 -2 -15 2 -3 7 2 10 11 7 17 1 20 -8 4z"/>
<path d="M13513 14182 c-16 -20 -38 -52 -48 -69 -11 -18 -23 -33 -27 -33 -4 0
-8 -16 -8 -35 0 -32 26 -85 67 -135 7 -8 19 -24 27 -35 8 -11 17 -18 20 -15 6
7 10 349 4 355 -3 3 -18 -12 -35 -33z m15 -144 l-1 -123 -7 100 c-7 90 -5 145
6 145 2 0 3 -55 2 -122z"/>
<path d="M15440 14035 l0 -189 30 40 c16 21 30 45 30 52 0 6 4 12 10 12 11 0
50 72 50 93 0 8 -13 33 -30 55 -16 23 -30 46 -30 52 0 5 -4 10 -10 10 -5 0
-10 6 -10 13 0 8 -9 22 -20 32 -20 18 -20 17 -20 -170z m83 6 c0 -21 -35 -86
-59 -110 -2 -2 -4 47 -4 109 l0 114 32 -43 c17 -24 31 -55 31 -70z"/>
<path d="M15514 13663 c-15 -20 -23 -33 -16 -29 13 8 56 66 49 66 -3 0 -17
-17 -33 -37z"/>
<path d="M10595 15096 c-22 -9 -94 -44 -160 -79 -66 -35 -169 -90 -230 -122
-104 -55 -174 -92 -308 -164 -70 -38 -100 -39 -165 -6 -66 33 -144 34 -210 2
-93 -46 -257 -132 -262 -138 -3 -3 -52 -29 -110 -59 -58 -29 -166 -85 -240
-125 -74 -40 -193 -102 -265 -140 -139 -72 -249 -131 -330 -175 -27 -15 -106
-57 -175 -93 -69 -36 -154 -80 -190 -99 -36 -19 -130 -69 -210 -110 -534 -279
-811 -427 -839 -449 -13 -11 -29 -19 -35 -19 -6 0 -27 -8 -46 -18 -19 -11 -93
-49 -165 -87 -71 -37 -153 -81 -182 -97 -88 -50 -133 -120 -133 -206 0 -42
-33 -75 -116 -117 -182 -94 -440 -229 -449 -235 -5 -5 -48 -27 -95 -50 -164
-83 -202 -122 -216 -227 -6 -49 -4 -55 89 -234 52 -101 137 -265 189 -364 53
-99 162 -306 243 -460 81 -154 166 -316 190 -360 23 -44 68 -129 100 -190 32
-60 70 -123 84 -138 40 -45 93 -67 156 -67 50 0 72 8 218 83 187 97 337 176
490 258 59 32 117 61 130 64 14 4 47 -5 87 -24 114 -54 150 -45 428 107 59 33
170 92 247 132 77 40 196 103 265 140 69 37 197 104 285 150 88 46 189 99 225
118 36 19 112 59 170 89 58 31 128 68 155 83 28 15 109 58 180 95 72 37 200
105 285 150 151 80 220 117 480 252 69 36 152 80 185 98 33 18 107 57 165 87
170 89 220 117 250 139 40 30 71 91 77 154 4 41 12 59 32 78 14 13 152 90 306
172 154 81 291 155 305 165 14 9 58 34 98 55 62 32 78 46 103 89 27 45 30 58
26 116 -4 69 -22 105 -367 750 -66 124 -279 529 -452 860 -27 52 -57 103 -66
114 -48 52 -157 77 -227 52z m-1053 -597 c17 -7 52 -65 116 -187 51 -97 107
-204 125 -237 18 -34 71 -133 117 -220 45 -88 95 -182 110 -210 15 -27 50 -93
77 -145 28 -52 118 -224 202 -381 83 -158 151 -289 151 -291 0 -3 22 -45 50
-94 57 -102 64 -148 27 -184 -22 -21 -76 -51 -357 -197 -80 -42 -149 -79 -155
-83 -5 -4 -73 -40 -150 -80 -77 -40 -171 -89 -210 -110 -66 -35 -126 -67 -390
-205 -60 -32 -141 -74 -180 -95 -38 -21 -110 -59 -160 -85 -49 -26 -128 -68
-175 -93 -131 -69 -231 -122 -405 -212 -88 -46 -209 -109 -268 -142 -59 -32
-110 -58 -112 -58 -2 0 -58 -30 -125 -66 -105 -58 -126 -66 -157 -61 -20 4
-42 12 -49 19 -14 14 -68 110 -156 278 -30 58 -124 236 -208 395 -84 160 -197
376 -253 480 -55 105 -131 251 -170 325 -39 74 -78 146 -87 160 -9 14 -28 48
-42 75 -14 28 -35 67 -47 88 -29 51 -28 117 2 144 28 26 164 102 387 216 157
80 432 224 625 327 89 48 209 111 465 245 113 59 279 147 370 195 91 48 233
122 315 165 83 43 164 85 180 95 17 10 84 46 150 80 66 35 161 85 210 112 91
48 134 57 177 37z m1400 -96 c87 -62 122 -186 79 -272 -57 -111 -183 -159
-291 -110 -81 36 -130 113 -130 201 0 57 16 100 56 147 43 52 96 72 176 69 56
-3 74 -9 110 -35z m-588 -265 c55 -17 110 -74 129 -134 16 -50 16 -60 3 -125
-17 -82 -129 -157 -216 -144 -115 17 -176 79 -187 190 -10 93 33 166 120 205
49 23 93 25 151 8z m812 -187 c51 -23 111 -93 125 -145 15 -56 5 -130 -26
-182 -71 -122 -260 -142 -356 -37 -80 85 -85 205 -14 299 58 76 181 106 271
65z m-514 -327 c59 -41 90 -104 84 -171 -14 -157 -162 -237 -298 -160 -85 47
-124 170 -79 253 31 59 44 72 92 94 64 30 145 24 201 -16z m-4322 -1559 c21
-11 46 -48 96 -144 l68 -130 125 66 c133 69 170 77 216 47 34 -22 43 -77 20
-121 -10 -18 -21 -33 -25 -33 -6 0 -231 -118 -239 -126 -4 -4 52 -118 100
-206 11 -20 23 -52 26 -72 5 -30 1 -40 -25 -66 -24 -23 -39 -30 -69 -30 -53 0
-73 21 -134 143 -78 158 -57 150 -203 73 -76 -40 -138 -66 -157 -66 -39 0 -89
47 -89 85 0 57 24 80 154 146 69 35 126 69 126 75 0 6 -27 61 -60 122 -32 61
-62 122 -66 137 -9 34 13 83 45 100 34 18 55 18 91 0z"/>
<path d="M9375 14252 c-38 -21 -133 -71 -210 -112 -167 -87 -280 -147 -395
-208 -47 -24 -125 -66 -175 -92 -49 -26 -128 -68 -175 -92 -151 -80 -432 -229
-550 -290 -63 -33 -155 -82 -205 -108 -189 -100 -272 -144 -340 -180 -38 -20
-124 -65 -190 -100 -176 -92 -264 -144 -265 -155 0 -5 6 -21 13 -35 7 -14 55
-106 107 -205 51 -99 186 -355 300 -570 114 -214 233 -439 265 -500 167 -319
165 -316 188 -309 21 6 130 62 242 124 28 15 113 60 190 100 77 40 167 87 200
105 33 18 112 60 175 93 122 63 398 209 515 272 39 21 135 71 215 113 80 41
165 86 190 99 25 14 97 52 160 85 63 33 189 100 280 148 91 49 219 116 285
151 66 34 119 67 118 71 -1 5 -78 153 -171 328 -93 176 -231 439 -307 585 -76
146 -163 310 -192 365 -29 55 -83 157 -119 228 -36 70 -69 127 -72 127 -4 0
-38 -17 -77 -38z"/>
<path d="M10772 14260 c-40 -65 35 -133 88 -80 41 41 13 100 -46 100 -18 0
-34 -7 -42 -20z"/>
<path d="M10240 13991 c-38 -32 -37 -75 2 -104 36 -27 95 -16 108 19 15 39 12
61 -11 83 -33 31 -64 31 -99 2z"/>
<path d="M11042 13784 c-47 -33 -9 -107 46 -88 37 13 43 65 10 88 -28 20 -28
20 -56 0z"/>
<path d="M10480 13518 c-36 -39 -25 -100 22 -124 81 -42 154 47 97 120 -27 34
-88 37 -119 4z"/>
<path d="M1526 11479 c-60 -37 -56 141 -54 -2256 2 -1209 5 -2205 8 -2213 3
-8 18 -25 34 -37 l30 -23 1172 0 c738 0 1182 4 1198 10 14 5 35 24 46 42 20
33 20 47 18 2230 l-3 2198 -33 32 -32 33 -1179 0 c-1071 0 -1181 -1 -1205 -16z
m1352 -16 c-10 -2 -28 -2 -40 0 -13 2 -5 4 17 4 22 1 32 -1 23 -4z m932 -123
c33 -21 56 -47 80 -92 l35 -63 3 -1325 3 -1325 -22 -60 c-12 -33 -28 -64 -35
-68 -8 -4 -14 -15 -14 -23 0 -8 -4 -13 -9 -9 -5 3 -12 -3 -15 -12 -6 -17 -70
-53 -94 -53 -7 0 -12 -5 -12 -10 0 -7 -327 -9 -1002 -8 -999 3 -1003 3 -1048
24 -53 25 -130 95 -130 119 0 9 -6 28 -14 43 -12 24 -15 233 -17 1359 l-3
1330 29 59 c33 67 68 104 128 136 l42 23 985 5 c1068 5 1020 8 1110 -50z
m-1774 -3267 c14 -15 23 -32 20 -40 -3 -7 -1 -15 3 -17 13 -8 14 -176 1 -176
-7 0 -7 -4 1 -12 8 -9 47 -13 118 -14 114 0 139 -8 160 -48 19 -34 4 -87 -29
-103 -16 -8 -67 -13 -135 -13 l-110 0 0 -109 c0 -122 -11 -154 -58 -171 -42
-14 -49 -13 -80 15 -26 25 -27 29 -27 135 0 59 -2 114 -5 122 -4 10 -31 12
-121 10 -113 -4 -115 -3 -140 23 -33 36 -31 77 6 115 29 30 29 30 145 30 l115
0 0 114 c0 106 1 115 25 140 33 35 78 35 111 -1z m1229 -39 c84 -55 92 -173
15 -234 -121 -96 -287 42 -215 179 35 69 137 96 200 55z m429 0 c49 -31 66
-62 66 -119 0 -120 -135 -196 -233 -130 -46 32 -67 71 -67 127 0 120 130 188
234 122z m-4 -366 c55 -38 75 -73 75 -133 0 -60 -20 -95 -75 -132 -85 -59
-223 2 -237 105 -9 69 33 148 92 173 41 16 111 10 145 -13z m-415 -22 c27 -18
55 -74 55 -111 0 -41 -30 -95 -64 -116 -47 -29 -117 -25 -156 7 -35 30 -60 73
-60 103 0 11 7 38 16 60 32 81 131 108 209 57z"/>
<path d="M1764 11221 c-10 -2 -34 -18 -51 -36 l-33 -34 0 -1013 c0 -557 4
-1008 8 -1002 15 22 53 26 250 25 l202 -2 0 454 c0 348 3 457 13 468 32 39 41
40 261 39 l216 -1 0 81 c0 51 -4 80 -11 80 -19 0 -6 248 14 285 9 17 17 26 17
21 0 -5 7 -3 15 4 8 6 23 9 36 5 14 -5 19 -4 15 4 -5 8 61 11 238 11 157 0
246 -4 246 -10 0 -5 5 -10 11 -10 7 0 20 -10 30 -22 18 -20 19 -46 19 -472 l0
-451 128 1 c70 1 167 -1 216 -4 77 -4 93 -8 113 -28 l24 -24 -3 -514 c-3 -490
-4 -515 -22 -535 l-19 -21 -967 0 c-532 0 -975 -3 -985 -7 -14 -5 -16 -3 -10
7 6 10 4 12 -9 7 -10 -4 -23 -7 -29 -7 -6 0 6 -16 27 -35 l38 -35 967 3 c1058
2 997 -2 1020 62 15 42 16 2607 1 2651 -22 62 37 59 -1011 59 -525 0 -964 -2
-975 -4z"/>
<path d="M2848 10276 l3 -91 90 3 c74 3 90 6 85 18 -3 8 -1 14 5 14 7 0 9 28
7 76 l-3 75 -95 -2 -95 -2 3 -91z"/>
<path d="M2370 9801 l0 -89 28 -3 c15 -2 55 -3 90 -1 l62 4 1 66 c1 37 3 77 4
90 2 21 0 22 -91 22 l-94 0 0 -89z"/>
<path d="M2855 9868 c-2 -13 -6 -53 -7 -91 l-3 -67 93 0 c80 0 92 2 93 18 1 9
3 50 4 90 l1 72 -88 0 c-83 0 -88 -1 -93 -22z"/>
<path d="M2368 9319 l3 -89 89 0 89 0 3 90 3 91 -95 -2 -95 -1 3 -89z"/>
<path d="M2848 9321 l3 -90 75 4 c41 2 79 7 84 10 6 3 10 30 10 60 0 30 4 64
9 78 l9 23 -96 3 -97 2 3 -90z"/>
<path d="M3380 9401 c-33 -6 -35 -8 -43 -60 -5 -29 -6 -67 -3 -85 l6 -31 85 3
86 3 -3 87 -3 87 -45 1 c-25 1 -61 -1 -80 -5z"/>
<path d="M2017 8933 c-2 -1 -32 -3 -67 -4 l-65 -2 0 -87 c0 -49 3 -83 7 -77 6
9 8 9 8 0 0 -9 24 -13 84 -13 l85 0 3 95 3 95 -28 -2 c-15 -1 -29 -3 -30 -5z"/>
<path d="M2391 8911 c-18 -18 -20 -29 -15 -79 4 -31 11 -62 16 -69 10 -13 133
-11 146 2 11 10 8 133 -3 143 -5 5 -36 13 -67 16 -49 6 -59 5 -77 -13z"/>
<path d="M2851 8850 c-1 -41 2 -80 6 -87 5 -7 43 -13 93 -15 l85 -3 0 93 0 92
-91 -2 -91 -3 -2 -75z"/>
<path d="M3330 8856 c0 -41 -3 -81 -6 -89 -4 -12 11 -15 90 -16 l95 -2 3 91 3
90 -92 0 -93 0 0 -74z"/>
<path d="M3163 7952 c-6 -4 -14 -19 -18 -33 -12 -48 44 -78 79 -43 42 42 -11
108 -61 76z"/>
<path d="M3585 7946 c-11 -8 -16 -22 -13 -41 2 -24 9 -31 29 -33 31 -4 52 18
47 49 -4 28 -40 42 -63 25z"/>
<path d="M3579 7554 c-9 -11 -10 -20 -2 -32 15 -24 44 -27 59 -7 28 38 -27 75
-57 39z"/>
<path d="M3145 7566 c-21 -31 -5 -73 30 -82 34 -8 53 0 67 30 26 59 -61 107
-97 52z"/>
<path d="M14880 10559 c-30 -4 -78 -10 -106 -13 -27 -3 -63 -12 -80 -21 -16
-8 -39 -15 -51 -15 -13 0 -23 -5 -23 -11 0 -6 -7 -9 -15 -5 -8 3 -15 2 -15 -2
0 -5 -34 -26 -76 -47 -41 -21 -86 -49 -100 -61 -13 -13 -24 -20 -24 -16 0 4
-29 -24 -64 -61 -36 -37 -70 -67 -75 -67 -6 0 -8 -6 -5 -14 3 -8 -3 -20 -14
-28 -17 -12 -111 -168 -116 -193 -1 -5 -7 -20 -14 -32 -7 -12 -14 -40 -16 -61
-2 -22 -9 -49 -16 -62 -15 -28 -22 -316 -9 -384 9 -48 86 -236 100 -246 5 -3
17 -26 29 -52 17 -40 83 -114 182 -206 24 -22 26 -22 64 -5 62 27 213 24 288
-6 32 -13 66 -31 75 -40 9 -9 29 -22 43 -30 15 -8 41 -32 59 -54 18 -22 27
-37 21 -33 -8 5 -10 2 -6 -8 3 -9 10 -13 15 -10 5 3 12 -2 16 -11 5 -15 17
-16 91 -10 84 7 215 40 274 69 16 8 35 13 41 10 7 -2 21 3 32 11 19 16 19 16
-2 5 -34 -16 -27 -3 7 15 17 9 35 13 40 10 6 -3 10 -1 10 4 0 6 19 23 43 37
23 15 48 36 56 46 7 11 20 17 28 14 8 -3 11 -2 8 4 -3 5 6 17 20 26 14 9 25
22 25 29 0 17 35 47 45 38 4 -5 5 -3 1 4 -3 6 5 23 19 37 14 14 23 26 20 26
-3 0 2 11 11 25 9 14 21 22 27 18 5 -3 7 -1 3 5 -9 14 14 63 27 55 6 -3 7 -1
4 4 -6 10 -1 26 36 113 6 14 11 32 12 40 1 9 8 34 16 55 10 28 14 88 14 195 0
139 -3 164 -26 240 -15 47 -38 110 -51 140 -14 30 -23 60 -21 67 2 6 -1 15 -8
19 -8 4 -9 3 -5 -4 4 -7 5 -12 2 -12 -3 0 -10 10 -17 21 -9 17 -8 20 3 14 7
-3 4 1 -7 10 -11 9 -19 23 -17 32 2 8 -1 12 -7 9 -5 -4 -20 12 -32 33 -12 22
-26 38 -31 35 -4 -3 -8 2 -8 10 0 8 -13 23 -30 33 -16 9 -30 23 -30 31 0 7 -4
11 -9 8 -5 -4 -11 -3 -13 2 -12 28 -224 159 -273 168 -5 1 -41 11 -80 23 -61
18 -220 43 -250 40 -5 -1 -35 -5 -65 -10z m373 -237 c9 -8 17 -19 17 -25 0 -5
15 -31 34 -57 19 -26 39 -65 45 -86 14 -49 14 -131 1 -139 -5 -3 -10 -14 -10
-24 0 -30 -55 -96 -105 -125 -119 -70 -271 -30 -342 91 -24 41 -28 59 -28 123
0 64 4 82 28 123 51 86 128 127 246 128 34 1 61 5 61 10 0 11 30 0 53 -19z
m451 -222 c-8 -7 -34 31 -34 49 0 10 8 4 20 -14 10 -16 17 -32 14 -35z m-1094
-133 c44 -21 100 -69 100 -85 0 -7 4 -12 8 -12 12 0 32 -70 32 -112 0 -43 -28
-138 -40 -138 -6 0 -10 -6 -10 -13 0 -15 -36 -48 -44 -40 -3 4 -6 2 -6 -4 0
-26 -165 -67 -179 -44 -4 6 -23 12 -42 14 -21 2 -33 8 -31 16 1 7 -1 10 -6 7
-11 -6 -71 58 -94 99 -9 17 -17 50 -19 75 -3 54 10 122 22 114 5 -3 6 1 4 8
-8 19 67 94 118 118 50 24 133 23 187 -3z m906 -189 c61 -28 106 -76 127 -135
50 -139 -9 -276 -142 -336 -62 -27 -162 -20 -224 16 -176 104 -166 365 18 456
57 29 160 28 221 -1z m-608 -357 c138 -70 171 -246 68 -359 -65 -72 -193 -90
-279 -39 -66 39 -100 95 -105 175 -7 106 32 176 123 221 53 27 143 28 193 2z
m-40 -469 c11 -8 7 -42 -5 -42 -8 0 -73 41 -73 46 0 7 65 4 78 -4z"/>
<path d="M15078 10143 c-26 -7 -43 -59 -30 -89 11 -22 47 -44 73 -44 18 0 59
49 59 70 0 44 -52 76 -102 63z"/>
<path d="M14462 9810 c-26 -26 -30 -36 -25 -63 10 -55 27 -73 72 -75 109 -7
122 140 15 163 -26 5 -36 1 -62 -25z"/>
<path d="M15379 9596 c-30 -14 -38 -66 -14 -90 36 -36 95 -9 95 43 0 44 -41
67 -81 47z"/>
<path d="M14749 9281 c-60 -60 -23 -151 61 -151 55 0 90 34 90 87 -1 86 -91
124 -151 64z"/>
<path d="M11411 10524 c0 -11 3 -14 6 -6 3 7 2 16 -1 19 -3 4 -6 -2 -5 -13z"/>
<path d="M16051 9784 c0 -11 3 -14 6 -6 3 7 2 16 -1 19 -3 4 -6 -2 -5 -13z"/>
<path d="M13795 9742 c-16 -10 -32 -20 -33 -25 -2 -4 -8 -5 -12 -2 -5 3 -19
-4 -30 -15 -11 -11 -24 -19 -28 -16 -5 3 -21 -6 -37 -20 -16 -14 -35 -22 -42
-20 -7 3 -12 0 -10 -7 1 -7 -5 -12 -13 -12 -8 0 -24 -8 -34 -17 -11 -10 -23
-18 -28 -18 -4 0 -32 -16 -63 -35 -30 -20 -68 -38 -85 -41 -16 -4 -28 -10 -25
-14 3 -4 -50 -35 -116 -69 -66 -33 -116 -61 -112 -61 20 -1 -24 -20 -45 -20
-13 0 -20 -4 -17 -10 3 -5 2 -10 -4 -10 -6 0 -35 -16 -65 -35 -30 -19 -61 -32
-69 -29 -8 3 -18 0 -23 -7 -5 -8 -3 -10 6 -4 9 5 11 4 6 -3 -4 -7 -13 -12 -21
-12 -7 0 -21 -7 -29 -16 -9 -8 -20 -12 -26 -9 -6 3 -13 -1 -16 -9 -3 -9 -10
-14 -14 -11 -4 3 -13 -1 -18 -8 -8 -10 -6 -13 7 -14 54 -4 281 -177 297 -225
3 -10 11 -18 19 -18 15 0 118 -128 118 -147 0 -7 4 -13 9 -13 4 0 8 -7 8 -15
0 -8 4 -15 8 -15 5 0 15 -12 22 -27 14 -28 17 -36 19 -60 0 -7 5 -13 11 -13 5
0 6 7 3 17 -4 11 -3 14 6 9 6 -4 10 -4 9 1 -5 17 23 52 37 47 8 -4 15 -2 15 3
0 26 175 115 225 115 53 0 95 -46 92 -103 -1 -34 -8 -50 -34 -76 -19 -18 -46
-36 -61 -39 -15 -4 -36 -14 -47 -24 -42 -36 -125 -69 -159 -63 -20 3 -36 1
-40 -6 -4 -6 -3 -11 2 -11 11 0 35 -89 36 -130 1 -14 5 -23 10 -22 5 2 13 -2
17 -10 5 -7 9 -8 9 -2 0 6 21 8 63 4 69 -8 190 -56 180 -73 -3 -6 -1 -7 5 -3
7 4 24 -5 40 -22 32 -34 72 -58 72 -42 0 5 6 10 14 10 8 0 16 4 18 8 2 4 24
20 51 34 26 15 45 23 42 17 -4 -5 5 -4 19 2 14 7 23 16 20 20 -5 8 10 13 29
10 4 0 7 3 7 8 0 13 76 51 86 43 4 -4 5 -2 1 3 -3 6 15 21 39 35 33 17 43 27
38 39 -22 53 -22 217 0 203 5 -3 7 2 3 11 -8 20 16 80 28 70 4 -5 5 -3 1 4 -7
13 27 77 36 68 3 -3 8 1 12 10 3 9 2 13 -4 10 -6 -3 -10 -2 -10 2 0 5 -18 22
-40 39 -22 16 -40 33 -40 38 0 5 -10 17 -22 28 l-23 20 -12 -29 c-6 -15 -19
-35 -30 -44 -33 -29 -129 -79 -138 -72 -4 5 -5 2 -1 -4 6 -11 -5 -18 -19 -10
-2 1 -10 -7 -18 -17 -8 -11 -19 -16 -25 -12 -7 4 -12 2 -12 -3 0 -15 -53 -14
-85 1 -14 6 -25 17 -25 25 0 7 -5 13 -11 13 -5 0 -8 4 -4 9 3 5 1 12 -5 16
-12 7 -13 48 -2 59 4 4 7 11 8 14 3 21 18 42 30 42 8 0 14 4 14 9 0 5 8 11 18
14 9 4 36 18 60 32 24 14 41 21 37 15 -3 -6 0 -7 9 -4 9 3 14 10 11 15 -3 4
18 15 46 23 38 12 56 13 71 5 20 -11 20 -11 2 20 -10 17 -22 31 -26 31 -4 0
-8 4 -8 10 0 5 -16 43 -35 84 -20 41 -37 83 -39 93 -2 10 -11 34 -19 53 -24
53 -47 215 -47 329 0 55 -3 101 -7 100 -5 0 -21 -8 -38 -17z m316 -1315 c-5
-5 -70 -43 -143 -83 -111 -61 -134 -71 -141 -58 -10 18 7 32 93 78 119 63 227
99 191 63z"/>
<path d="M16070 9673 c-1 -49 -1 -101 -1 -118 3 -116 -80 -359 -171 -500 -45
-70 -228 -280 -228 -262 0 4 -12 -4 -27 -18 -15 -14 -33 -25 -40 -25 -7 0 -13
-5 -13 -10 0 -6 -22 -21 -50 -34 -27 -13 -47 -26 -43 -29 3 -4 -13 -9 -36 -13
-25 -4 -38 -10 -30 -14 7 -5 0 -10 -20 -15 -40 -9 -30 -25 15 -25 22 0 33 -4
29 -11 -5 -7 5 -8 32 -4 28 5 34 4 23 -4 -12 -8 -8 -10 15 -5 17 3 58 -1 90
-9 33 -8 87 -18 120 -22 33 -3 78 -11 100 -17 22 -7 44 -10 49 -9 6 1 19 -2
30 -7 12 -6 59 -15 106 -22 47 -7 103 -18 125 -25 22 -7 74 -18 115 -26 41 -7
77 -15 80 -19 4 -5 86 -1 256 14 71 6 241 129 259 187 4 13 11 29 16 34 18 23
30 113 24 177 -4 38 -11 66 -15 63 -4 -3 -11 7 -15 22 -17 68 -99 168 -240
294 -38 34 -68 67 -67 73 2 6 0 8 -4 3 -9 -9 -75 53 -68 64 2 4 -1 11 -7 15
-8 5 -9 3 -4 -6 5 -9 4 -11 -4 -6 -7 5 -16 19 -21 32 -5 13 -15 23 -22 22 -7
-2 -12 3 -10 10 1 6 -2 11 -7 10 -5 -2 -39 28 -76 66 -37 38 -61 65 -54 61 8
-5 11 -4 6 1 -5 5 -12 9 -15 9 -4 0 -47 42 -96 93 -49 50 -92 92 -96 92 -5 0
-9 -39 -10 -87z"/>
<path d="M13250 9703 c-19 -8 -37 -19 -40 -24 -3 -4 -22 -15 -43 -24 -20 -8
-37 -20 -37 -25 0 -6 1 -10 3 -10 10 1 80 29 72 30 -14 0 45 30 60 30 11 0 30
29 23 35 -2 1 -19 -4 -38 -12z"/>
<path d="M12508 9263 c7 -3 16 -2 19 1 4 3 -2 6 -13 5 -11 0 -14 -3 -6 -6z"/>
<path d="M12195 9080 c-44 -4 -97 -12 -118 -19 -20 -7 -42 -9 -49 -5 -7 4 -10
3 -5 -1 4 -5 -22 -18 -58 -30 -36 -11 -74 -29 -85 -38 -11 -9 -25 -17 -32 -17
-16 0 -119 -70 -147 -100 -13 -14 -28 -23 -35 -22 -6 2 -8 0 -4 -4 4 -4 -8
-21 -26 -38 -35 -33 -130 -172 -142 -208 -5 -16 -8 -18 -16 -7 -7 11 -8 9 -5
-6 2 -11 -5 -40 -16 -65 -58 -138 -82 -353 -53 -475 23 -97 44 -172 64 -225 9
-25 17 -53 18 -63 1 -10 5 -21 9 -25 5 -4 5 1 2 11 -4 12 -3 16 4 11 6 -3 9
-15 6 -25 -3 -11 -1 -16 4 -13 5 3 12 -3 16 -13 3 -10 21 -37 39 -59 18 -23
30 -45 26 -49 -4 -5 -2 -5 4 -2 6 3 21 -7 32 -23 12 -16 49 -52 81 -79 33 -27
57 -52 53 -56 -3 -3 2 -3 13 1 11 4 17 4 13 -1 -9 -10 200 -118 213 -110 5 4
9 2 9 -3 0 -5 34 -15 75 -22 41 -7 73 -15 71 -19 -9 -14 260 -1 333 16 42 10
84 17 94 15 10 -1 16 2 13 7 -3 5 5 12 19 15 50 13 141 61 204 108 35 26 69
48 74 48 6 0 8 2 5 5 -3 3 13 24 36 48 124 127 134 148 106 212 -11 25 -15 43
-10 40 14 -8 13 -1 -5 42 -15 36 -21 163 -7 163 4 0 8 16 10 35 2 34 23 73 74
140 12 16 16 25 9 20 -10 -5 -12 -4 -7 3 4 7 14 12 22 12 8 0 14 6 14 14 0 8
11 17 25 20 14 4 23 11 20 16 -3 6 -1 10 5 10 13 0 7 45 -17 130 -8 30 -16 64
-18 75 -3 33 -16 65 -25 65 -5 0 -8 8 -8 18 1 17 -71 128 -124 190 -16 18 -26
38 -22 43 3 5 0 8 -8 7 -7 -2 -12 4 -10 12 2 8 0 12 -3 8 -4 -4 -34 16 -65 45
-75 68 -234 163 -288 172 -23 4 -44 10 -47 15 -3 4 -28 11 -55 15 -28 4 -48
10 -46 13 5 9 -159 10 -259 2z m-81 -453 c29 -5 114 -126 99 -140 -3 -4 -1 -7
5 -7 7 0 12 -7 12 -15 0 -8 4 -15 8 -15 13 0 43 -70 36 -82 -5 -7 -2 -8 6 -3
10 6 12 4 7 -9 -4 -10 -3 -15 3 -11 6 3 10 3 10 -2 0 -4 4 -15 10 -23 8 -12
11 -12 27 1 10 9 43 29 73 45 30 16 79 44 109 62 30 17 63 32 73 32 10 0 18 4
18 9 0 12 57 6 85 -9 13 -7 21 -18 18 -26 -3 -8 2 -17 11 -20 23 -9 22 -89 -1
-103 -10 -6 -14 -11 -8 -11 5 0 -1 -7 -13 -16 -12 -8 -28 -12 -35 -8 -6 4 -9
3 -4 -1 6 -7 -48 -38 -60 -36 -2 1 -12 -8 -23 -19 -11 -11 -26 -20 -34 -20 -7
0 -19 -7 -26 -15 -7 -9 -19 -14 -27 -11 -8 3 -12 2 -9 -3 3 -4 -14 -16 -37
-25 -33 -13 -39 -19 -27 -26 8 -5 11 -10 5 -10 -7 0 -7 -3 0 -8 12 -8 85 -127
85 -137 0 -3 7 -13 16 -22 8 -9 13 -22 10 -29 -3 -8 -1 -14 4 -14 6 0 10 -8
10 -19 0 -10 7 -24 15 -31 8 -7 15 -29 15 -49 0 -45 -38 -90 -78 -92 -45 -2
-76 2 -88 12 -10 9 -116 189 -158 270 l-19 36 -76 -40 c-42 -22 -80 -43 -86
-48 -5 -5 -16 -9 -25 -9 -9 0 -25 -8 -36 -17 -79 -69 -168 -63 -200 14 -12 27
-13 42 -4 69 13 37 56 78 77 70 7 -3 12 0 10 7 -1 7 4 11 11 10 6 -2 12 1 12
7 0 14 59 42 72 34 6 -4 8 -3 5 3 -7 10 42 38 51 29 2 -3 24 8 48 25 l43 29
-22 34 c-47 73 -92 148 -93 157 -1 5 -2 15 -3 23 0 7 -12 30 -26 50 -32 47
-33 99 -3 120 12 9 18 16 13 17 -6 0 4 7 20 15 17 7 41 11 55 8 13 -3 29 -6
34 -7z"/>
<path d="M14507 8757 c-1 -4 -12 -9 -25 -10 -12 0 -22 -5 -22 -10 0 -4 -3 -6
-7 -4 -9 5 -83 -70 -76 -76 2 -3 -3 -19 -12 -36 -19 -39 -19 -166 1 -186 7 -7
15 -19 16 -26 4 -16 42 -49 57 -49 6 0 11 -4 11 -10 0 -5 7 -10 15 -10 8 0 15
-4 15 -10 0 -6 36 -8 90 -7 69 3 94 7 109 21 12 11 25 15 33 10 7 -4 10 -4 6
1 -4 4 0 15 10 24 9 9 23 28 31 43 8 15 17 26 20 24 3 -2 7 32 9 76 5 111 -23
168 -103 211 -41 22 -172 40 -178 24z m260 -229 c-3 -8 -6 -5 -6 6 -1 11 2 17
5 13 3 -3 4 -12 1 -19z m-294 -33 c16 -7 18 -15 12 -59 -4 -28 -9 -52 -10 -54
-2 -2 -13 1 -24 7 -28 15 -71 80 -71 107 0 19 4 21 38 14 20 -4 45 -11 55 -15z"/>
<path d="M16418 8413 c6 -2 18 -2 25 0 6 3 1 5 -13 5 -14 0 -19 -2 -12 -5z"/>
<path d="M13377 8130 c-40 -7 -57 -17 -98 -60 -27 -28 -47 -56 -44 -61 4 -5 3
-9 -2 -9 -16 0 -14 -124 3 -165 16 -39 64 -104 64 -88 1 4 10 -3 21 -17 12
-14 24 -24 28 -23 12 5 71 -9 71 -17 0 -5 26 -2 58 6 31 9 66 16 76 18 11 1
22 9 25 17 2 8 13 20 23 27 21 15 58 83 58 107 0 8 4 15 9 15 4 0 8 18 8 40 0
22 -4 37 -8 34 -5 -3 -9 8 -9 25 0 16 -5 33 -10 36 -6 4 -7 11 -4 17 4 6 2 8
-3 5 -6 -4 -18 9 -27 28 -9 19 -20 34 -24 34 -20 -3 -32 2 -27 11 4 6 3 10 -2
8 -4 -1 -26 4 -48 10 -44 13 -67 13 -138 2z m249 -136 c8 -20 13 -38 11 -41
-3 -2 -19 3 -36 12 -31 16 -38 41 -16 57 18 14 26 8 41 -28z m-222 -86 c9 -34
8 -38 -9 -38 -10 0 -15 10 -15 30 0 35 15 40 24 8z m-34 -23 c0 -16 -62 -21
-95 -9 -27 11 3 24 53 24 31 0 42 -4 42 -15z"/>
<path d="M13298 7883 c12 -2 30 -2 40 0 9 3 -1 5 -23 4 -22 0 -30 -2 -17 -4z"/>
<path d="M11614 7292 c-13 -9 -14 -72 -1 -72 5 0 7 -7 3 -15 -3 -8 -2 -15 2
-15 4 0 18 -46 31 -102 13 -57 34 -141 46 -188 26 -99 47 -198 70 -330 32
-184 72 -324 105 -371 11 -15 20 -32 20 -37 0 -11 77 -77 120 -103 81 -50 220
-51 313 -4 50 26 101 62 129 92 51 54 74 84 70 88 -3 3 -1 5 4 5 12 0 55 84
89 175 14 39 30 78 35 87 6 10 10 28 10 40 0 13 6 34 13 48 7 14 24 57 37 97
13 39 28 69 34 66 5 -4 6 -1 2 6 -5 7 -1 20 7 29 8 9 14 25 14 34 0 16 8 38
49 133 7 17 22 55 34 85 20 50 69 160 91 203 12 22 -8 23 -37 2 -12 -8 -25
-11 -29 -7 -5 4 -6 2 -2 -3 8 -15 -118 -80 -134 -70 -7 5 -10 4 -6 -2 7 -11
-47 -36 -57 -26 -3 3 -13 -2 -22 -11 -9 -10 -23 -15 -30 -12 -8 3 -14 2 -14
-2 0 -16 -149 -43 -266 -48 -116 -6 -319 15 -333 34 -3 4 -13 8 -21 9 -27 4
-145 48 -148 56 -2 4 -8 5 -13 1 -5 -3 -21 3 -37 14 -15 10 -42 24 -59 31 -18
8 -33 17 -33 22 0 5 -7 9 -15 9 -8 0 -15 5 -15 10 0 6 -12 15 -26 20 -14 6
-22 14 -19 20 7 12 4 12 -11 2z m71 -88 c11 -6 26 -23 33 -37 14 -30 18 -205
5 -218 -5 -5 -23 48 -41 119 -31 125 -39 177 -24 157 4 -5 16 -15 27 -21z
m1124 -197 c-35 -88 -44 -104 -60 -100 -27 7 -32 19 -24 53 5 21 13 30 26 30
10 0 19 3 20 8 3 26 9 46 18 55 6 6 11 19 11 29 0 16 38 42 48 33 2 -2 -15
-50 -39 -108z"/>
<path d="M7695 7344 c-5 -2 -35 -5 -65 -6 -53 -3 -55 -4 -56 -31 -1 -35 9 -41
65 -38 68 4 91 16 89 45 -2 25 -14 36 -33 30z"/>
<path d="M9880 7254 c-8 -2 -96 -10 -195 -19 -211 -17 -724 -61 -875 -75 -58
-5 -181 -16 -275 -25 -93 -8 -251 -22 -350 -30 -99 -9 -202 -18 -230 -20 -213
-20 -662 -59 -865 -75 -63 -4 -137 -11 -165 -14 -27 -3 -104 -10 -170 -16 -66
-6 -244 -21 -395 -35 -151 -13 -340 -29 -420 -35 -80 -6 -183 -15 -230 -20
-47 -6 -150 -17 -228 -25 -156 -16 -180 -25 -224 -88 -21 -29 -23 -42 -22
-157 1 -69 6 -177 12 -240 7 -63 19 -198 27 -300 9 -102 22 -255 30 -340 8
-85 24 -259 34 -385 11 -127 25 -244 31 -260 14 -36 53 -79 98 -107 31 -19 44
-20 145 -15 62 3 186 12 277 21 91 8 201 18 245 21 44 4 148 13 230 21 206 20
349 33 485 44 63 5 221 19 350 30 129 11 343 29 475 40 132 11 283 25 335 30
123 13 280 27 510 45 102 8 259 22 350 30 231 21 615 55 740 65 493 40 539 46
588 78 40 25 51 38 67 76 22 53 21 94 -25 606 -13 157 -18 208 -30 330 -5 58
-14 168 -20 245 -18 257 -42 460 -56 491 -21 45 -51 74 -98 95 -37 17 -114 23
-156 13z m-109 -391 c58 -26 117 -82 155 -148 25 -44 29 -60 29 -136 0 -84
-11 -124 -42 -157 -7 -7 -13 -19 -13 -26 0 -19 -93 -97 -120 -101 -3 0 -16 -7
-30 -15 -16 -8 -55 -13 -105 -13 -65 1 -89 5 -132 27 -112 56 -174 155 -176
280 -1 63 3 80 32 138 37 76 91 126 167 157 63 26 169 23 235 -6z m-855 -90
c21 -10 42 -22 45 -26 3 -5 10 -9 15 -10 5 -1 8 -5 7 -9 -2 -5 3 -7 10 -5 6 1
11 -3 10 -10 -2 -6 5 -14 15 -17 22 -8 75 -103 68 -123 -3 -8 -1 -11 4 -8 6 4
10 -15 10 -49 0 -31 -3 -56 -7 -56 -5 0 -8 -16 -9 -35 0 -19 -8 -43 -17 -53
-9 -10 -17 -26 -17 -35 0 -9 -7 -17 -17 -17 -9 0 -14 -3 -10 -6 13 -13 -69
-75 -124 -92 -57 -19 -158 -12 -214 13 -176 80 -231 303 -113 454 23 31 110
88 151 101 45 13 147 5 193 -17z m128 -34 c14 -17 26 -36 26 -42 0 -7 -12 3
-26 20 -14 18 -33 37 -42 43 -16 9 -16 9 0 10 9 0 28 -14 42 -31z m-2912 -270
c16 -19 26 -43 26 -58 -2 -39 25 -310 32 -321 4 -6 53 -4 135 5 211 24 248 20
287 -29 36 -43 13 -126 -41 -156 -10 -5 -94 -16 -187 -25 -92 -9 -171 -18
-174 -20 -7 -4 -5 -67 4 -105 6 -30 20 -204 18 -243 -3 -59 -68 -106 -128 -91
-50 12 -74 46 -84 116 -10 73 -25 252 -25 286 1 12 -2 22 -5 22 -3 0 -54 -4
-115 -10 -266 -23 -272 -23 -308 26 -33 44 -31 86 6 127 30 35 37 37 117 46
47 5 129 13 183 16 91 6 97 8 97 28 0 12 -7 93 -15 180 -17 172 -13 196 37
232 37 26 106 13 140 -26z m1926 -242 c33 -15 65 -72 57 -99 -12 -45 -30 -70
-58 -84 -18 -10 -109 -22 -255 -34 -125 -11 -248 -22 -273 -24 -87 -8 -155 65
-128 138 18 50 61 73 154 80 156 12 231 19 340 30 113 12 124 12 163 -7z
m1807 -102 c28 0 58 -5 67 -9 24 -11 47 -49 52 -88 3 -18 14 -57 25 -86 33
-82 29 -183 -9 -259 -62 -123 -173 -189 -307 -181 -167 11 -287 128 -300 292
-12 149 80 284 226 331 33 11 67 13 121 8 41 -3 98 -7 125 -8z m-878 -125 c63
-28 125 -97 146 -162 33 -104 16 -190 -52 -277 -75 -94 -219 -124 -331 -69
-101 50 -150 123 -158 234 -4 63 -1 79 22 130 44 95 91 135 191 160 59 15 124
9 182 -16z"/>
<path d="M9658 6613 c-2 -30 -7 -38 -23 -38 -12 0 -21 9 -25 24 -8 36 -26 36
-38 1 -20 -57 11 -100 73 -102 30 -1 43 4 62 26 30 35 29 57 -3 95 -34 40 -42
39 -46 -6z"/>
<path d="M8779 6600 c-14 -4 -37 -15 -51 -24 -20 -13 -24 -23 -22 -58 2 -24 3
-52 3 -62 1 -11 4 -16 8 -13 3 4 12 -2 20 -13 9 -12 26 -20 43 -20 15 0 31 -6
33 -12 4 -10 6 -10 6 0 1 6 7 12 15 12 7 0 25 9 40 21 21 17 26 29 26 68 0 39
-5 52 -27 73 -33 30 -58 37 -94 28z m91 -71 c7 -11 10 -22 8 -23 -2 -1 -24
-16 -50 -34 -25 -17 -51 -32 -57 -32 -21 0 -11 18 24 44 19 15 35 36 35 47 0
25 26 24 40 -2z m-35 -89 c-3 -5 -14 -10 -23 -10 -15 0 -15 2 -2 10 20 13 33
13 25 0z"/>
<path d="M9771 5813 c-1 -6 -4 -20 -7 -30 -5 -17 -5 -17 6 0 6 10 9 23 6 30
-3 9 -5 9 -5 0z"/>
<path d="M8825 5851 c-52 -22 -85 -103 -60 -150 25 -48 53 -66 107 -66 45 0
53 4 79 35 43 51 41 110 -5 156 -35 35 -75 43 -121 25z m68 -42 c64 -34 53
-113 -14 -111 -37 1 -54 16 -63 54 -5 21 -1 31 20 47 31 25 29 24 57 10z"/>
<path d="M1323 19871 c7 -146 24 -212 90 -356 23 -49 45 -94 49 -100 65 -89
203 -237 212 -227 3 3 6 0 6 -6 0 -7 3 -11 8 -10 14 4 53 -23 47 -33 -4 -5 -3
-9 2 -8 13 3 63 -20 79 -36 9 -8 24 -15 34 -15 26 0 51 -11 45 -19 -2 -4 10
-8 27 -8 18 0 34 -5 36 -11 2 -7 8 -9 14 -6 6 4 14 0 19 -7 7 -11 53 -14 225
-15 122 -1 210 2 202 7 -10 7 -8 9 7 9 15 0 26 14 42 58 13 31 36 72 53 90 16
18 33 38 37 45 16 24 103 88 123 90 11 1 20 5 20 10 0 4 5 5 10 2 6 -4 22 0
35 9 29 19 135 34 135 18 0 -14 79 10 90 28 5 8 6 19 3 25 -4 5 -2 6 2 2 5 -4
22 20 37 53 16 33 33 60 39 60 6 0 7 5 3 11 -3 6 -2 14 4 18 5 3 12 20 15 36
3 17 13 50 21 75 14 37 29 111 37 180 1 8 1 48 1 88 l-2 72 -401 0 c-222 0
-398 -4 -395 -9 3 -4 27 -14 53 -21 27 -7 53 -17 60 -22 7 -6 17 -7 22 -3 12
7 117 -19 171 -43 46 -19 76 -77 64 -120 -4 -15 -6 -31 -5 -36 1 -5 -5 -6 -13
-3 -9 4 -13 1 -10 -6 2 -7 -5 -18 -17 -25 -17 -11 -20 -11 -14 0 6 10 5 11 -6
1 -15 -14 -59 -18 -59 -5 0 5 -14 9 -31 9 -17 0 -34 5 -39 13 -4 7 -12 10 -17
7 -6 -4 -43 4 -84 17 -122 39 -139 41 -139 18 0 -11 -7 -35 -15 -55 -8 -19
-11 -37 -8 -41 4 -3 1 -6 -5 -6 -7 0 -12 -11 -12 -25 0 -31 -38 -173 -53 -197
-26 -41 -113 -50 -152 -15 -42 37 -38 97 19 291 29 97 31 116 15 116 -5 0 -7
5 -3 12 4 6 3 8 -4 4 -13 -8 -236 51 -240 64 -2 5 -10 6 -18 3 -8 -3 -20 0
-28 6 -7 6 -15 9 -18 6 -7 -8 -29 21 -32 42 -3 17 -19 18 -201 21 l-198 2 6
-129z"/>
<path d="M3340 19908 c0 -130 -11 -233 -22 -216 -6 9 -8 3 -3 -15 4 -20 2 -27
-6 -22 -8 5 -9 1 -4 -14 4 -12 0 -34 -9 -53 -24 -48 -21 -62 9 -42 22 15 32
15 85 3 33 -7 56 -17 53 -23 -4 -5 0 -7 9 -4 16 7 104 -14 145 -34 15 -8 28
-23 30 -38 2 -14 8 -26 13 -28 11 -4 13 -32 4 -56 -3 -9 -11 -13 -17 -9 -5 3
-8 2 -4 -3 3 -5 -1 -18 -9 -29 -8 -10 -14 -15 -14 -9 0 5 -4 3 -8 -4 -14 -21
-82 -16 -194 15 -110 30 -148 52 -148 85 0 10 -4 18 -10 18 -5 0 -10 -4 -10
-9 0 -4 -11 -24 -24 -44 -13 -19 -22 -37 -20 -40 2 -2 -6 -15 -18 -29 -32 -35
-31 -41 2 -73 17 -16 30 -34 30 -39 0 -6 9 -17 20 -23 10 -7 24 -22 31 -34 8
-15 8 -19 0 -15 -17 11 -13 2 9 -24 12 -13 19 -29 16 -36 -3 -7 -1 -14 4 -16
5 -2 12 -34 15 -72 3 -38 10 -76 15 -85 5 -9 10 -11 10 -5 0 8 20 5 63 -8 34
-11 98 -29 142 -40 44 -10 88 -24 99 -30 10 -5 34 -11 54 -13 19 -2 38 -8 41
-14 4 -6 15 7 25 29 10 22 21 38 24 36 4 -2 16 8 26 22 12 15 14 22 5 17 -8
-4 -4 2 8 14 12 11 26 21 32 21 5 0 11 6 14 13 5 14 70 48 145 76 l42 16 5
100 c3 65 1 95 -5 85 -5 -8 -10 -11 -10 -6 0 5 -9 1 -20 -9 -16 -14 -29 -16
-67 -11 -27 3 -49 10 -51 16 -2 5 -10 6 -18 3 -8 -3 -14 -1 -14 3 0 5 -13 9
-28 10 -16 1 -43 8 -61 17 -18 9 -39 13 -48 10 -10 -4 -14 -2 -9 5 3 6 -2 13
-12 16 -21 7 -42 46 -42 76 0 30 33 79 62 91 16 6 40 9 55 5 16 -3 45 -8 65
-10 20 -2 48 -11 62 -20 28 -18 50 -22 26 -5 -12 9 -12 10 3 5 10 -3 24 -6 30
-6 7 0 6 -5 -3 -11 -12 -8 -10 -9 8 -4 31 9 60 -2 67 -26 12 -36 32 -20 44 36
7 30 16 53 21 50 4 -3 6 5 2 17 -4 16 -2 19 8 13 9 -6 11 -4 6 4 -9 14 33 133
44 126 4 -3 11 7 15 23 3 15 12 34 20 42 7 8 16 25 20 38 3 12 10 20 15 17 5
-3 12 0 16 6 5 8 3 9 -6 4 -8 -5 -11 -3 -8 6 3 8 11 13 17 11 7 -1 10 2 7 6
-3 5 6 22 19 36 14 15 25 32 25 37 0 6 4 8 9 5 5 -3 11 4 14 15 4 13 10 18 18
13 7 -4 10 -3 6 3 -4 6 4 21 18 34 13 13 35 35 49 49 l26 25 -23 10 c-13 6
-224 11 -549 13 l-528 3 0 -93z"/>
<path d="M4896 19985 c-16 -9 -36 -13 -44 -10 -8 3 -20 -2 -26 -11 -7 -9 -24
-17 -38 -17 -14 -1 -24 -6 -20 -11 3 -5 -2 -6 -12 -3 -10 4 -15 3 -11 -3 3 -6
1 -10 -5 -10 -5 0 -33 -16 -60 -35 -27 -19 -53 -35 -56 -35 -14 0 -62 -48 -56
-55 4 -5 0 -6 -8 -3 -14 5 -41 -14 -40 -27 2 -11 -38 -55 -49 -55 -6 0 -11 -6
-11 -13 0 -8 -9 -22 -19 -31 -11 -10 -25 -31 -31 -47 -7 -16 -16 -26 -21 -23
-5 3 -6 -3 -2 -13 3 -10 3 -15 -2 -11 -8 8 -42 -59 -64 -125 -7 -20 -16 -35
-20 -32 -5 2 -6 -8 -4 -23 4 -22 2 -24 -7 -12 -9 12 -10 12 -6 -5 3 -11 -1
-52 -10 -90 -18 -81 -24 -285 -9 -285 6 0 3 -5 -5 -11 -12 -8 -10 -9 8 -4 13
4 22 2 22 -4 0 -6 8 -11 18 -11 24 -1 113 -68 119 -91 3 -10 9 -16 14 -13 5 3
9 -2 9 -11 0 -9 4 -14 8 -11 10 6 54 -79 58 -112 1 -13 8 -30 15 -39 17 -20
18 -205 1 -211 -6 -2 3 -15 20 -30 17 -15 43 -39 59 -53 15 -15 30 -24 33 -22
2 3 10 -5 16 -17 6 -12 17 -19 23 -17 7 2 34 -11 62 -28 27 -18 65 -36 83 -39
18 -4 30 -12 27 -17 -4 -5 1 -6 9 -3 8 3 37 -1 63 -9 85 -26 186 -38 283 -34
52 3 102 7 110 10 8 2 51 15 95 27 44 12 109 37 144 56 35 19 65 33 68 31 2
-3 14 5 27 17 35 33 65 56 74 56 4 0 41 35 82 78 41 42 77 76 82 75 4 -2 4 5
1 14 -5 12 -3 14 7 8 8 -5 11 -4 7 1 -3 5 10 34 29 64 19 30 34 59 34 66 0 6
7 17 15 24 8 7 15 21 15 31 0 10 6 24 13 31 8 7 12 21 9 32 -3 11 -1 17 5 13
6 -4 10 6 11 23 0 16 5 37 10 47 23 43 32 254 13 321 -7 24 -11 51 -10 60 1 9
-1 24 -4 32 -3 8 -16 44 -27 80 -22 69 -86 198 -105 215 -7 6 -25 28 -41 50
-16 22 -35 44 -42 48 -7 5 -10 13 -6 18 3 5 0 8 -8 7 -7 -2 -12 3 -11 9 2 7
-2 12 -9 10 -7 -1 -12 4 -13 11 0 6 -3 11 -6 10 -9 -4 -49 33 -45 41 2 3 -22
19 -54 35 -33 17 -57 33 -55 37 5 7 -126 61 -205 85 -68 21 -484 20 -524 -1z
m124 -280 c80 -51 118 -111 127 -200 5 -43 1 -62 -18 -101 -27 -55 -69 -105
-81 -98 -4 3 -8 2 -8 -3 0 -16 -63 -36 -124 -39 -52 -4 -69 0 -115 23 -29 16
-61 39 -70 53 -8 14 -18 27 -21 30 -23 20 -45 141 -31 167 6 10 12 30 16 45 6
31 72 108 92 108 7 0 13 4 13 8 0 19 48 31 115 30 54 -1 78 -6 105 -23z m621
-146 c64 -22 117 -70 150 -137 28 -55 31 -69 26 -122 -9 -105 -82 -194 -180
-221 -50 -13 -146 -5 -186 16 -42 21 -109 102 -121 144 -23 83 -2 188 48 245
61 68 181 102 263 75z m-818 -440 c87 -24 164 -137 155 -228 -9 -90 -59 -160
-140 -192 -113 -46 -232 1 -290 115 -30 58 -21 161 17 216 57 83 157 117 258
89z m649 -142 c75 -19 131 -66 167 -137 52 -106 36 -206 -49 -291 -109 -109
-275 -103 -374 13 -125 146 -55 364 134 414 58 16 65 16 122 1z"/>
<path d="M4894 19573 c-21 -3 -35 -12 -42 -29 -7 -13 -16 -24 -21 -24 -15 0 6
-70 26 -85 34 -26 71 -28 102 -6 33 24 43 61 28 101 -9 23 -50 56 -60 48 -1 0
-16 -3 -33 -5z"/>
<path d="M5526 19366 c-44 -43 -29 -100 29 -112 42 -8 78 22 78 65 0 62 -65
90 -107 47z"/>
<path d="M4712 18985 c-63 -28 -68 -117 -8 -154 44 -28 68 -26 105 5 26 21 31
33 31 69 0 47 -16 70 -57 86 -30 11 -31 11 -71 -6z"/>
<path d="M5370 18770 c-40 -40 -14 -100 43 -100 57 0 74 84 22 108 -35 16 -42
15 -65 -8z"/>
<path d="M8662 19973 c-6 -16 -50 -147 -97 -293 -47 -146 -208 -632 -358
-1080 l-271 -815 0 -95 c0 -76 4 -104 22 -143 24 -52 98 -137 146 -166 36 -22
191 -75 367 -125 121 -35 164 -44 124 -25 -16 7 -12 8 18 6 38 -3 51 8 20 16
-15 4 -16 5 -2 6 9 0 34 -15 55 -34 22 -19 43 -35 47 -35 5 0 6 -4 3 -9 -8
-12 72 -40 419 -150 160 -51 688 -226 1175 -389 871 -292 886 -297 966 -297
73 0 88 4 156 38 79 39 127 85 165 162 11 22 62 168 112 325 50 157 111 344
136 415 24 72 89 272 145 445 56 173 221 673 366 1110 245 736 265 800 265
866 0 82 -26 162 -72 221 -62 78 -14 73 -586 73 l-512 0 -68 -52 c-118 -89
-266 -147 -420 -164 l-61 -6 -42 -119 c-22 -66 -52 -156 -65 -200 l-25 -81 88
-93 c133 -143 192 -252 227 -425 22 -106 16 -259 -14 -375 -27 -103 -143 -334
-179 -358 -15 -9 -58 -42 -97 -73 -83 -67 -222 -136 -331 -165 -102 -27 -297
-30 -394 -5 -156 39 -351 164 -445 284 -68 86 -124 183 -150 260 -120 354 16
763 319 960 99 66 201 107 311 127 50 9 105 20 124 23 l35 7 67 200 67 200
-31 27 -32 27 -841 1 -842 0 -10 -27z m28 -1822 c70 -26 159 -96 201 -157 97
-142 104 -340 16 -481 -42 -67 -106 -135 -168 -179 -44 -31 -59 -36 -117 -38
-157 -6 -259 22 -365 103 -52 39 -107 109 -131 165 -26 63 -39 175 -27 241 24
132 122 269 232 326 105 53 251 61 359 20z m2390 -1201 c192 -58 401 -136 422
-158 11 -10 22 -38 25 -60 5 -37 2 -45 -30 -77 -41 -41 -68 -44 -153 -15 -32
12 -102 32 -154 46 -52 14 -109 32 -126 39 -17 8 -71 28 -120 45 -49 17 -106
38 -127 47 -40 17 -67 56 -67 95 0 38 36 86 72 96 35 9 39 9 258 -58z"/>
<path d="M8484 17961 c-149 -36 -222 -201 -150 -338 64 -123 235 -150 346 -55
82 69 103 168 56 267 -29 63 -47 79 -124 110 -64 26 -77 28 -128 16z"/>
<path d="M10888 19993 c18 -2 45 -2 60 0 15 2 0 4 -33 4 -33 0 -45 -2 -27 -4z"/>
<path d="M14223 19888 c-12 -62 -34 -169 -48 -238 -16 -80 -23 -140 -19 -166
8 -57 42 -113 89 -146 44 -31 29 -28 568 -133 204 -40 333 -70 343 -79 8 -8
28 -41 45 -73 34 -64 51 -83 96 -106 24 -13 711 -153 1333 -272 69 -14 148
-29 175 -35 28 -6 151 -30 275 -55 124 -24 479 -94 790 -155 311 -61 630 -124
710 -141 215 -46 256 -48 320 -13 28 15 56 36 62 47 5 10 25 25 44 33 38 16
-11 24 543 -86 308 -61 380 -69 426 -48 l25 11 0 314 c0 172 -2 313 -5 313 -2
0 -20 -11 -40 -24 -47 -32 -111 -41 -177 -26 -40 10 -63 24 -99 60 -116 116
-83 290 71 371 58 30 177 10 233 -39 16 -14 17 -11 17 61 l0 77 -55 0 c-138 0
-237 109 -221 244 15 114 108 196 224 196 l52 0 0 110 0 110 -488 0 -487 0
-79 -397 c-43 -219 -102 -519 -132 -668 -30 -148 -59 -297 -65 -330 -20 -125
-42 -155 -110 -155 -20 0 -115 16 -210 35 -96 20 -245 49 -331 65 -87 17 -233
45 -325 64 -92 19 -287 57 -433 85 -146 29 -317 62 -380 76 -63 13 -248 49
-410 81 -162 31 -459 89 -660 130 -455 91 -429 73 -390 269 11 55 47 237 80
403 33 167 60 312 60 323 0 18 -12 19 -335 19 l-335 0 0 -25 c0 -64 -68 -124
-124 -109 -41 10 -69 48 -69 94 l0 40 -266 0 -267 0 -21 -112z m5178 -10 c51
-12 113 -63 139 -112 18 -34 18 -168 1 -174 -6 -2 -11 -10 -11 -17 0 -7 -18
-31 -40 -53 -33 -32 -51 -41 -91 -46 -91 -12 -137 1 -190 54 -30 30 -52 62
-58 88 -16 59 -4 141 26 172 7 8 21 24 31 35 22 27 70 57 80 51 4 -3 14 -1 20
3 19 11 41 11 93 -1z m-56 -562 c21 -11 53 -41 69 -65 24 -36 29 -54 29 -100
0 -123 -78 -201 -201 -201 -110 0 -192 83 -192 195 0 93 52 162 143 191 50 15
98 9 152 -20z"/>
<path d="M19311 19741 c-5 -4 -17 -19 -25 -35 -17 -33 -9 -57 27 -88 24 -21
37 -22 72 -6 30 13 46 62 32 95 -14 32 -77 52 -106 34z"/>
<path d="M19207 19214 c-36 -20 -49 -54 -36 -94 22 -61 99 -74 139 -23 28 36
25 70 -9 104 -33 32 -53 35 -94 13z"/>
<path d="M15831 19953 c-38 -171 -142 -725 -137 -730 3 -3 185 -42 403 -85
658 -129 1343 -264 1798 -354 237 -47 482 -96 545 -109 63 -13 118 -21 122
-17 3 4 18 66 32 137 81 412 153 777 192 973 24 122 44 225 44 227 0 3 -672 5
-1494 5 l-1494 0 -11 -47z"/>
<path d="M10552 19688 c-28 -84 -74 -231 -102 -326 -28 -95 -64 -204 -80 -241
-15 -37 -53 -147 -84 -244 -31 -97 -59 -182 -62 -190 -3 -9 13 -18 48 -30 28
-9 53 -15 54 -14 2 2 338 1028 364 1108 l17 57 -39 12 c-22 6 -46 14 -52 16
-8 3 -30 -46 -64 -148z"/>
<path d="M1087 19743 c-4 -3 -7 -15 -7 -25 0 -10 -4 -18 -10 -18 -5 0 -9 -3
-8 -7 4 -16 -57 -123 -69 -123 -7 0 -10 -7 -6 -17 5 -12 3 -14 -7 -8 -9 6 -11
4 -6 -4 5 -7 1 -20 -7 -29 -7 -9 -17 -25 -20 -35 -4 -10 -12 -15 -18 -12 -6 4
-9 0 -7 -11 2 -12 -2 -18 -10 -16 -8 1 -11 -2 -7 -7 6 -10 -126 -236 -149
-256 -7 -5 -23 -31 -37 -57 -13 -27 -27 -48 -30 -48 -4 0 -12 -13 -19 -30 -7
-16 -17 -27 -23 -23 -6 3 -7 1 -3 -6 4 -6 0 -18 -8 -27 -9 -8 -16 -22 -16 -30
0 -8 -4 -13 -9 -10 -5 3 -8 0 -8 -7 1 -6 -11 -37 -26 -67 -14 -30 -32 -88 -39
-128 -11 -64 -10 -80 6 -135 9 -34 18 -67 18 -74 1 -7 5 -10 9 -8 9 6 21 -24
14 -35 -3 -4 7 -15 20 -24 14 -9 23 -21 20 -25 -2 -5 3 -12 13 -15 32 -12 62
-33 55 -39 -3 -4 5 -7 20 -7 14 0 28 -4 31 -9 3 -5 35 -14 71 -21 103 -19 305
3 347 38 9 8 23 11 30 6 7 -4 10 -4 6 0 -6 8 119 76 147 80 7 1 20 8 29 15 9
8 31 17 49 21 17 4 31 12 30 18 -2 7 4 12 12 12 8 0 41 13 72 29 91 47 193 91
208 91 8 0 16 4 19 9 3 5 36 21 73 36 38 15 84 35 103 43 19 9 41 15 49 13 7
-1 10 2 7 7 -3 6 9 15 27 22 35 13 36 13 -46 30 -31 6 -55 15 -53 18 2 4 -12
7 -31 8 -19 0 -38 5 -41 10 -4 5 -18 10 -32 12 -13 1 -27 6 -30 11 -3 4 -26
16 -52 26 -27 10 -48 21 -48 24 0 4 -17 15 -39 24 -21 10 -50 28 -64 41 -14
13 -28 22 -30 19 -3 -2 -15 9 -27 24 -12 15 -24 26 -27 25 -5 -4 -36 24 -111
102 -33 34 -51 60 -46 67 4 7 3 9 -4 5 -13 -8 -75 81 -66 96 4 6 2 8 -4 4 -6
-3 -14 4 -17 16 -4 13 -14 31 -23 41 -8 9 -11 17 -6 17 5 0 3 4 -4 9 -18 11
-88 215 -97 280 -6 47 -20 63 -38 44z"/>
<path d="M19896 19598 c-21 -30 -20 -61 2 -81 40 -36 102 -9 102 45 0 53 -74
79 -104 36z"/>
<path d="M10077 19289 c-85 -29 -131 -61 -230 -160 -67 -68 -96 -105 -122
-161 -136 -285 -47 -604 216 -786 48 -32 131 -67 182 -76 16 -3 45 -11 65 -18
89 -30 257 -6 377 53 59 29 79 46 204 179 144 152 182 412 92 623 -24 55 -89
157 -101 157 -4 0 -11 -10 -15 -22 -4 -13 -8 -25 -9 -28 -4 -10 -29 -54 -37
-64 -53 -64 -73 -110 -154 -350 -36 -104 -66 -190 -67 -191 -40 -27 -57 -35
-81 -35 -52 0 -350 100 -379 128 -45 42 -44 62 21 256 33 98 74 235 91 304 17
69 40 143 51 163 10 21 19 41 19 44 0 12 -69 3 -123 -16z"/>
<path d="M2795 19136 c-32 -12 -44 -20 -77 -51 -11 -11 -17 -14 -13 -6 5 10 4
12 -4 7 -6 -4 -9 -11 -6 -16 3 -4 -2 -13 -10 -20 -23 -19 -46 -108 -39 -154 4
-23 15 -56 25 -74 11 -19 17 -37 14 -42 -3 -4 3 -14 13 -21 16 -13 16 -12 3 6
-7 11 1 4 19 -15 18 -19 29 -28 26 -20 -4 8 -1 7 7 -3 9 -10 18 -18 21 -18 3
0 11 -1 18 -3 28 -9 138 -14 138 -6 0 4 16 11 35 14 19 4 34 12 32 19 -1 7 4
11 11 10 6 -2 12 2 12 8 0 5 4 7 10 4 6 -3 7 1 4 9 -4 9 0 18 10 22 28 11 50
103 42 177 -4 37 -12 67 -18 67 -6 0 -9 3 -6 6 10 9 -63 75 -101 92 -44 18
-126 22 -166 8z"/>
<path d="M19794 19055 c-15 -23 -15 -27 0 -50 30 -46 96 -26 96 29 0 46 -69
61 -96 21z"/>
<path d="M4060 18810 c0 -7 -72 -40 -88 -40 -7 0 -12 -3 -12 -7 0 -5 -13 -22
-28 -38 -16 -17 -27 -36 -24 -44 3 -8 0 -11 -5 -8 -5 3 -9 -2 -10 -11 -10
-120 -9 -128 10 -167 11 -22 18 -41 16 -43 -2 -2 4 -8 14 -13 9 -6 17 -17 17
-25 0 -8 4 -12 10 -9 5 3 18 1 27 -4 10 -6 14 -11 8 -11 -5 0 3 -7 19 -15 16
-9 37 -13 47 -10 10 4 26 2 35 -3 17 -10 83 6 126 29 13 8 28 12 33 10 5 -1 7
1 3 5 -4 4 2 17 15 29 27 27 47 60 47 80 0 9 3 14 8 12 19 -12 4 111 -21 165
-33 75 -77 103 -174 115 -40 5 -73 7 -73 3z"/>
<path d="M2858 18683 c6 -2 18 -2 25 0 6 3 1 5 -13 5 -14 0 -19 -2 -12 -5z"/>
<path d="M6017 18410 c-9 -11 -17 -23 -17 -27 0 -12 -125 -123 -138 -123 -7 0
-11 -4 -8 -8 3 -5 -7 -15 -22 -23 -15 -7 -40 -26 -56 -41 -17 -16 -37 -28 -47
-28 -9 0 -22 -7 -29 -15 -7 -8 -18 -15 -25 -15 -8 0 -15 -4 -17 -10 -4 -12
-118 -55 -233 -87 -77 -22 -112 -26 -245 -27 -93 0 -179 4 -215 12 -86 19
-175 45 -175 52 0 3 -9 6 -20 7 -27 2 -13 -30 39 -86 23 -24 41 -51 41 -58 0
-8 5 -11 12 -7 7 5 8 3 3 -5 -4 -7 1 -20 11 -31 34 -32 52 -58 47 -64 -4 -3
-1 -6 5 -6 6 0 19 -15 28 -32 9 -18 29 -47 43 -64 14 -17 42 -52 61 -79 19
-27 42 -58 50 -69 13 -18 13 -19 0 -11 -14 8 13 -25 54 -65 11 -11 15 -24 10
-32 -4 -7 -3 -10 1 -5 7 6 67 -74 70 -93 5 -37 152 -201 210 -236 24 -14 46
-32 49 -40 3 -8 10 -13 15 -10 4 3 27 -4 50 -15 56 -27 155 -35 231 -19 33 7
60 17 60 21 0 5 5 9 10 9 13 0 29 13 83 66 46 45 71 74 63 74 -3 0 6 25 20 56
13 30 22 59 19 64 -3 5 -1 11 4 15 9 5 15 139 10 190 -2 11 -3 64 -3 118 -1
53 -4 97 -8 97 -5 0 -8 151 -8 335 0 184 -3 335 -8 335 -4 0 -15 -9 -25 -20z"/>
<path d="M19845 16464 c-77 -36 -210 -97 -295 -135 -309 -141 -303 -137 -295
-157 4 -9 17 -53 27 -97 17 -66 19 -102 15 -205 -3 -69 -12 -152 -21 -185 -26
-96 -99 -234 -164 -310 l-59 -70 54 -120 c30 -66 70 -152 88 -191 l34 -71 113
-6 c251 -14 433 -96 592 -268 l66 -71 0 976 c0 537 -3 976 -8 976 -4 0 -70
-30 -147 -66z"/>
<path d="M18347 16494 c-66 -16 -159 -58 -177 -79 -11 -13 -8 -13 23 0 53 22
91 19 125 -10 61 -51 47 -137 -28 -175 -170 -87 -256 -299 -191 -470 28 -74
27 -103 -8 -142 -25 -28 -36 -33 -75 -33 -25 0 -46 -1 -46 -3 0 -14 70 -99
112 -136 96 -84 182 -120 345 -146 167 -26 354 41 488 175 116 116 175 260
175 430 0 107 -16 173 -66 274 -46 94 -161 212 -251 259 -126 66 -294 88 -426
56z"/>
<path d="M18109 16373 c-13 -16 -12 -17 4 -4 16 13 21 21 13 21 -2 0 -10 -8
-17 -17z"/>
<path d="M18069 16343 c-13 -16 -12 -17 4 -4 9 7 17 15 17 17 0 8 -8 3 -21
-13z"/>
<path d="M17740 15493 c-8 -4 -64 -29 -125 -58 -60 -28 -211 -98 -335 -155
-124 -57 -244 -116 -266 -132 -75 -50 -134 -150 -148 -251 -11 -74 10 -148 89
-317 40 -85 147 -315 238 -511 91 -196 191 -407 222 -469 31 -62 63 -129 70
-149 13 -37 198 -443 547 -1206 36 -77 93 -203 128 -280 35 -77 76 -159 92
-182 74 -110 216 -173 344 -153 69 11 155 47 424 175 124 59 245 115 270 125
25 10 173 79 330 153 157 74 306 144 333 155 l47 21 0 668 0 668 -32 -40
c-113 -139 -248 -227 -426 -277 -110 -31 -322 -31 -437 1 -279 76 -483 275
-580 566 -36 106 -45 283 -21 398 30 145 91 270 189 386 l54 65 -39 90 c-22
50 -62 138 -89 196 l-50 105 -102 1 c-109 2 -205 20 -297 57 -126 51 -281 179
-365 302 -21 30 -41 55 -44 54 -3 0 -13 -3 -21 -6z m1100 -2894 c161 -56 270
-196 291 -375 24 -211 -104 -399 -312 -459 -72 -20 -190 -21 -252 -2 -109 34
-217 132 -270 245 -41 88 -49 214 -19 308 76 240 325 366 562 283z"/>
<path d="M18585 12377 c-49 -27 -64 -41 -88 -87 -26 -49 -28 -63 -24 -121 3
-53 10 -75 35 -110 42 -63 119 -104 192 -103 203 3 301 256 153 396 -70 67
-173 77 -268 25z"/>
<path d="M4675 15169 c-55 -10 -136 -25 -180 -33 -200 -37 -365 -68 -420 -81
-60 -14 -135 -28 -254 -46 -36 -5 -84 -16 -108 -24 -24 -8 -58 -15 -77 -15
-18 0 -88 -11 -157 -24 -132 -26 -343 -66 -604 -115 -199 -37 -249 -47 -350
-66 -89 -17 -214 -41 -290 -55 -128 -23 -236 -43 -300 -55 -38 -8 -144 -28
-235 -44 -270 -50 -332 -62 -402 -77 -37 -8 -84 -16 -105 -19 -21 -2 -72 -11
-113 -20 -253 -51 -647 -125 -700 -131 -90 -10 -149 -33 -194 -77 -39 -37 -45
-49 -51 -99 -7 -54 11 -197 35 -288 9 -33 90 -461 130 -686 28 -157 90 -481
107 -561 18 -82 53 -132 114 -163 52 -27 76 -26 279 14 96 19 204 40 240 46
36 5 83 15 105 20 22 5 83 16 135 25 52 9 124 23 160 30 70 15 180 35 220 40
14 2 48 8 75 14 28 6 73 15 100 20 28 5 109 21 180 35 117 22 193 36 235 41 8
2 36 7 61 13 25 6 83 18 130 26 73 13 167 31 544 102 44 8 118 22 165 30 47 9
103 19 125 24 40 8 180 33 245 45 19 3 125 24 235 45 110 21 218 41 240 45 37
5 102 17 165 31 14 3 59 11 100 19 41 8 181 34 310 59 129 24 278 52 330 60
53 9 111 21 130 26 19 6 47 10 62 10 30 0 90 30 126 63 60 55 64 108 27 302
-13 72 -27 144 -30 160 -11 57 -63 350 -68 380 -3 17 -18 98 -35 180 -16 83
-37 188 -45 235 -9 47 -19 103 -23 125 -4 22 -8 45 -9 50 0 6 -4 21 -7 35 -11
44 -28 134 -32 171 -8 72 -50 127 -121 160 -49 23 -73 22 -200 -2z m-6 -408
c65 -34 126 -95 152 -154 19 -41 24 -69 23 -133 0 -72 -4 -87 -33 -140 -36
-64 -83 -114 -107 -114 -8 0 -12 -4 -9 -10 3 -5 0 -11 -7 -12 -24 -2 -33 -5
-63 -17 -49 -20 -143 -16 -205 8 -215 86 -264 375 -88 524 71 59 124 77 218
73 54 -2 88 -9 119 -25z m-836 -175 c32 -14 56 -30 53 -35 -3 -5 5 -12 18 -15
14 -3 29 -18 36 -36 7 -16 16 -30 20 -30 16 0 40 -97 39 -151 -1 -60 -16 -119
-29 -119 -5 0 -6 -7 -3 -17 4 -11 3 -14 -5 -9 -8 5 -12 0 -12 -13 0 -11 -5
-23 -12 -27 -7 -5 -9 -2 -4 7 4 8 -1 3 -12 -11 -11 -13 -19 -27 -16 -31 7 -12
-123 -71 -144 -65 -11 4 -23 2 -27 -4 -11 -18 -103 -2 -157 27 -66 36 -106 78
-139 149 -52 110 -35 236 44 323 29 31 96 73 106 66 5 -2 14 2 20 9 20 24 154
14 224 -18z m95 -10 c52 -48 37 -51 -21 -5 -28 22 -42 39 -33 39 9 0 33 -15
54 -34z m-2879 -550 c20 -19 31 -44 40 -89 16 -82 43 -237 45 -261 3 -28 17
-30 99 -13 40 9 117 23 171 33 94 16 101 16 132 -1 40 -21 68 -75 59 -114 -3
-16 -18 -40 -33 -54 -26 -24 -96 -42 -272 -71 -79 -14 -105 -23 -104 -37 1 -8
11 -63 22 -124 12 -60 24 -129 27 -152 2 -23 6 -46 7 -50 1 -4 -1 -22 -4 -39
-11 -49 -58 -72 -134 -65 -6 1 -22 11 -36 24 -27 24 -40 64 -63 202 -18 107
-31 165 -39 172 -3 3 -72 -6 -153 -20 -210 -37 -220 -38 -234 -21 -6 8 -17 14
-24 14 -6 0 -17 11 -23 25 -24 52 -10 119 29 143 17 11 214 53 322 69 21 3 40
9 42 14 3 4 -8 76 -25 160 -16 84 -30 169 -30 188 1 90 112 131 179 67z m3809
-3 c36 -35 112 -147 124 -181 7 -20 13 -71 13 -112 0 -89 -29 -162 -90 -224
-62 -62 -135 -91 -230 -91 -95 0 -169 29 -228 90 -64 65 -82 116 -82 225 0 84
4 101 27 146 34 64 104 127 172 154 45 18 65 20 165 15 84 -4 117 -10 129 -22z
m-1840 -61 c47 -41 51 -108 9 -155 -21 -24 -95 -46 -202 -62 -16 -2 -86 -16
-155 -30 -69 -14 -154 -29 -190 -32 -61 -5 -68 -4 -97 21 -37 31 -53 87 -33
111 7 8 9 15 4 15 -11 0 27 35 53 49 12 6 39 13 60 16 48 7 347 64 393 75 65
15 135 12 158 -8z m953 -138 c53 -26 112 -88 135 -141 10 -23 17 -66 17 -108
1 -162 -119 -281 -283 -279 -235 3 -359 280 -206 462 81 94 224 123 337 66z"/>
<path d="M4502 14553 c-35 -7 -56 -56 -42 -99 23 -70 112 -78 146 -13 16 31
17 30 -33 45 -7 2 -13 19 -13 39 0 37 -4 38 -58 28z"/>
<path d="M3684 14418 c-3 -4 -10 -6 -15 -3 -12 8 -43 -23 -64 -65 -12 -23 -14
-35 -6 -38 6 -2 11 -12 11 -21 0 -20 55 -73 65 -63 3 4 10 1 14 -6 9 -16 52 0
89 32 22 20 29 72 16 122 -8 29 -97 63 -110 42z m66 -43 c14 -16 10 -18 -14
-9 -9 3 -16 10 -16 15 0 14 16 11 30 -6z m0 -110 c-7 -8 -26 -15 -43 -15 -30
0 -30 1 -12 14 20 14 57 25 64 19 2 -1 -2 -9 -9 -18z"/>
<path d="M4628 13783 c-21 -24 -31 -60 -19 -67 5 -4 12 -2 16 4 3 5 15 10 27
10 17 0 20 -5 16 -35 -4 -31 -1 -35 19 -35 32 0 63 34 63 68 0 58 -86 96 -122
55z"/>
<path d="M3790 13668 c-48 -33 -65 -65 -56 -113 10 -53 56 -95 105 -95 106 0
158 110 89 185 -44 48 -90 55 -138 23z m31 -42 c-9 -11 -4 -13 30 -13 54 0 74
-20 58 -56 -22 -48 -109 -46 -109 2 0 9 -4 21 -10 27 -11 11 14 54 32 54 7 0
7 -4 -1 -14z"/>
<path d="M18825 15158 c-22 -11 -41 -22 -43 -23 -3 -3 86 -198 217 -472 55
-117 101 -217 101 -221 0 -5 39 -92 86 -193 47 -101 90 -194 95 -206 l8 -22
48 21 c26 11 50 22 52 24 3 3 -118 269 -415 909 -50 110 -96 200 -101 202 -4
1 -26 -7 -48 -19z"/>
<path d="M2460 15037 c-49 -11 -55 -15 -55 -37 0 -24 2 -25 55 -22 90 4 99 8
97 42 -2 34 -9 35 -97 17z"/>
<path d="M19363 14698 c3 -7 22 -50 42 -96 20 -45 38 -97 40 -116 5 -35 37
-113 129 -313 60 -131 69 -182 38 -219 -23 -27 -316 -165 -363 -171 -59 -8
-84 17 -140 134 -27 58 -49 107 -49 109 0 5 -210 435 -216 443 -6 8 -45 -45
-73 -99 -42 -80 -61 -153 -67 -255 -12 -182 46 -334 177 -467 63 -65 91 -85
170 -122 173 -81 353 -86 514 -15 215 96 347 267 374 488 41 323 -154 612
-467 692 -88 22 -116 24 -109 7z"/>
<path d="M19870 10345 c-69 -13 -154 -31 -190 -40 -36 -8 -72 -17 -80 -18 -17
-2 -64 -57 -86 -99 -33 -63 14 -181 86 -218 49 -25 91 -25 216 -1 55 11 118
22 142 26 l42 7 0 184 c0 101 -1 183 -2 183 -2 -1 -59 -12 -128 -24z"/>
<path d="M19903 8419 c-11 -4 -33 -10 -49 -12 -16 -3 -92 -18 -169 -32 -77
-15 -162 -31 -190 -36 -27 -5 -84 -15 -125 -23 -104 -20 -200 -38 -455 -86
-121 -22 -231 -45 -245 -50 -37 -15 -90 -68 -106 -106 -19 -46 -18 -86 10
-221 13 -65 38 -194 56 -288 17 -93 37 -199 45 -235 7 -36 19 -99 25 -140 7
-41 27 -151 45 -245 18 -93 36 -188 39 -210 3 -22 14 -83 25 -135 10 -52 22
-112 26 -133 9 -52 78 -122 136 -137 47 -13 89 -9 239 20 52 10 111 21 130 24
19 3 76 14 125 25 121 25 312 60 355 65 19 3 55 9 80 15 25 5 57 12 73 16 l27
5 0 440 0 439 -32 -18 c-18 -11 -62 -24 -98 -30 -152 -24 -246 -43 -254 -51
-5 -6 4 -78 23 -181 28 -145 31 -176 20 -200 -29 -71 -114 -92 -169 -41 -26
24 -32 40 -50 137 -22 121 -40 213 -46 233 -3 10 -15 12 -47 7 -52 -8 -176
-32 -240 -46 -66 -15 -110 -5 -142 32 -52 63 -9 165 75 174 8 1 29 4 45 8 17
3 82 16 145 28 63 12 116 23 118 24 1 1 -9 67 -23 146 -15 79 -29 160 -31 179
-7 51 22 101 69 119 33 12 42 12 76 -4 21 -9 43 -27 49 -40 10 -21 33 -129 63
-285 6 -36 15 -68 18 -72 4 -4 33 -1 66 7 73 17 239 46 279 49 18 2 39 -6 57
-22 l29 -24 0 461 0 461 -38 -2 c-21 0 -47 -5 -59 -9z"/>
<path d="M17448 7033 c6 -2 18 -2 25 0 6 3 1 5 -13 5 -14 0 -19 -2 -12 -5z"/>
<path d="M17638 6985 c38 -32 48 -72 28 -118 -22 -53 -56 -71 -114 -61 -26 4
-87 8 -137 8 -76 0 -99 -4 -147 -26 -84 -39 -152 -107 -193 -194 -38 -80 -64
-104 -110 -104 -33 0 -95 33 -95 50 0 6 -4 9 -9 6 -15 -10 -22 -133 -11 -201
13 -83 29 -130 65 -191 24 -41 29 -45 36 -29 6 18 8 17 19 -10 7 -16 15 -38
17 -48 5 -31 52 -85 106 -123 199 -143 425 -157 655 -40 106 54 191 146 252
271 128 267 42 591 -200 754 -97 66 -226 110 -162 56z"/>
<path d="M15737 6880 c-67 -17 -133 -58 -184 -114 -61 -66 -63 -72 -238 -617
-70 -217 -152 -470 -182 -564 -46 -141 -68 -219 -96 -330 -1 -5 -5 -14 -8 -20
-4 -5 -16 -41 -28 -80 -12 -38 -29 -82 -37 -97 -8 -15 -121 -346 -252 -735
l-236 -708 -1 -90 c0 -77 4 -98 26 -145 32 -70 76 -120 137 -158 51 -32 97
-49 662 -232 206 -67 843 -278 1415 -468 1018 -338 1042 -345 1120 -346 69 0
90 4 145 31 75 34 142 97 175 163 12 25 78 214 145 420 67 206 184 564 260
795 669 2028 623 1883 623 1962 -1 59 -6 84 -31 135 -59 125 -128 178 -300
229 -54 15 -209 66 -347 112 -137 47 -260 88 -272 91 -19 6 -26 0 -49 -46 -88
-175 -245 -321 -427 -396 -73 -31 -137 -46 -239 -57 l-57 -6 -61 -184 c-46
-137 -59 -190 -54 -211 4 -16 42 -66 85 -112 166 -176 238 -370 226 -607 -12
-224 -95 -414 -243 -556 -89 -85 -149 -125 -255 -170 -119 -52 -216 -70 -373
-70 -130 0 -132 1 -230 41 -55 22 -118 51 -141 65 -91 53 -188 141 -256 232
-124 164 -162 279 -162 493 -1 200 46 341 176 527 44 62 74 92 132 132 138 96
301 159 456 176 l64 7 67 202 68 201 -56 49 c-65 57 -168 191 -195 252 -46
110 -85 305 -75 385 2 19 7 66 11 105 l7 70 -169 53 c-92 30 -262 85 -377 123
-216 71 -296 86 -369 68z m-482 -2910 c251 -120 332 -425 174 -654 -55 -80
-105 -123 -182 -154 -54 -23 -76 -27 -172 -27 -107 0 -112 1 -185 37 -136 67
-224 180 -250 319 -25 140 30 301 136 399 99 90 189 122 325 116 71 -3 97 -9
154 -36z m2307 -1171 c321 -101 451 -150 481 -181 36 -37 36 -85 2 -126 -41
-49 -68 -49 -233 3 -282 89 -467 156 -489 177 -49 46 -33 136 29 163 18 8 36
14 40 15 4 0 80 -23 170 -51z"/>
<path d="M15004 3787 c-163 -62 -210 -262 -90 -382 73 -73 163 -84 266 -32 83
41 119 99 120 191 0 109 -52 180 -157 215 -70 23 -94 25 -139 8z"/>
<path d="M0 5698 l0 -83 138 -34 c75 -18 160 -39 187 -47 79 -23 1281 -334
1365 -354 41 -10 147 -37 235 -60 88 -23 255 -66 370 -96 418 -107 417 -107
428 -160 2 -14 -8 -73 -22 -132 -109 -434 -136 -540 -161 -637 -16 -60 -34
-130 -40 -155 -7 -25 -17 -67 -22 -95 -6 -27 -19 -74 -29 -103 -11 -29 -19
-65 -19 -80 0 -15 -11 -58 -24 -97 -14 -38 -64 -223 -111 -410 -96 -377 -100
-386 -171 -387 -21 0 -100 16 -175 36 -75 20 -174 45 -220 55 -46 10 -109 26
-139 35 -30 9 -82 23 -115 30 -33 8 -87 22 -120 31 -87 24 -230 62 -570 149
-165 43 -349 90 -410 106 -261 68 -348 90 -361 90 -11 0 -14 -18 -14 -79 0
-74 2 -80 23 -87 12 -4 123 -33 247 -64 124 -32 324 -83 445 -114 121 -32 369
-95 550 -142 381 -98 721 -186 850 -221 179 -47 229 -42 319 32 28 23 54 35
73 35 29 0 414 -95 678 -167 186 -51 259 -47 333 21 44 39 40 28 167 521 30
116 72 280 94 365 22 85 67 263 101 395 34 132 81 316 106 409 24 92 44 182
44 200 0 60 -21 110 -65 152 -44 43 -98 62 -360 125 -306 75 -539 140 -556
155 -10 9 -24 33 -29 53 -15 54 -45 97 -87 125 -39 25 -86 38 -668 187 -170
43 -386 99 -480 124 -93 24 -372 96 -620 160 -247 63 -484 124 -525 135 -124
34 -624 160 -632 160 -5 0 -8 -37 -8 -82z m2979 -1554 c125 -62 163 -220 79
-324 -19 -24 -85 -71 -94 -69 -5 1 -26 -1 -47 -6 -30 -6 -51 -2 -98 16 -50 20
-66 32 -93 74 -42 63 -49 96 -36 163 10 56 44 107 85 128 71 37 152 44 204 18z
m623 -159 c55 -39 98 -120 98 -185 0 -70 -44 -147 -106 -185 -41 -25 -59 -30
-115 -30 -56 0 -73 5 -115 30 -96 59 -132 182 -82 281 43 87 110 126 210 121
55 -2 75 -8 110 -32z m-742 -383 c47 -25 89 -86 96 -142 18 -134 -85 -242
-217 -227 -65 8 -106 32 -144 86 -26 36 -30 52 -30 104 1 96 53 169 141 197
39 13 110 4 154 -18z m588 -124 c134 -63 164 -255 56 -361 -142 -142 -384 -41
-384 160 0 116 70 201 183 222 52 10 90 4 145 -21z"/>
<path d="M2872 4023 c-46 -9 -61 -83 -24 -125 21 -25 77 -23 95 2 8 11 17 17
20 13 4 -3 7 10 7 29 0 36 -40 90 -64 87 -6 -1 -21 -4 -34 -6z"/>
<path d="M3433 3841 c-17 -28 -16 -52 3 -79 23 -33 73 -27 94 11 13 24 13 30
0 55 -20 36 -78 43 -97 13z"/>
<path d="M2705 3485 c-52 -51 -15 -135 59 -135 45 0 76 32 76 77 0 44 -38 83
-80 83 -19 0 -40 -9 -55 -25z"/>
<path d="M3306 3308 c-20 -28 -20 -43 0 -62 24 -24 61 -20 80 9 15 23 15 27 0
50 -21 32 -59 33 -80 3z"/>
<path d="M17102 5548 c-52 -157 -89 -283 -97 -328 -11 -64 -14 -75 -24 -109
-6 -18 -17 -43 -24 -55 -24 -36 -71 -161 -131 -351 -32 -99 -59 -184 -60 -189
-1 -11 91 -42 100 -34 3 4 88 258 189 565 101 307 187 566 190 575 5 13 -2 19
-35 28 -23 6 -47 13 -54 16 -9 4 -25 -32 -54 -118z"/>
<path d="M0 4462 l0 -960 88 -21 c48 -12 181 -46 297 -76 116 -31 397 -103
625 -160 228 -58 431 -110 450 -115 19 -5 85 -21 145 -36 61 -15 121 -31 133
-35 50 -19 279 -78 303 -79 11 0 19 10 21 28 5 23 24 102 102 412 8 30 24 91
35 135 12 44 25 101 31 126 5 26 14 59 20 74 14 36 32 104 124 465 41 162 89
347 106 410 37 142 37 147 3 152 -16 3 -194 48 -398 101 -203 53 -460 119
-570 147 -220 57 -352 91 -585 151 -236 61 -403 104 -655 169 -126 33 -240 62
-252 66 l-23 6 0 -960z"/>
<path d="M16613 5116 c-88 -33 -147 -74 -234 -163 -113 -115 -163 -228 -175
-388 -17 -228 118 -471 321 -578 55 -29 136 -60 142 -53 2 2 25 -3 50 -10 100
-30 262 -12 376 41 157 75 311 267 346 433 16 75 14 207 -4 277 -27 102 -108
255 -136 255 -4 0 -11 -10 -15 -22 -4 -13 -17 -37 -30 -54 -13 -17 -24 -35
-24 -40 0 -6 -14 -32 -32 -60 -17 -27 -62 -139 -100 -249 -80 -233 -82 -239
-115 -254 -40 -18 -68 -13 -242 44 -171 56 -202 74 -214 124 -4 16 20 106 67
255 93 290 108 343 112 382 1 18 7 41 13 52 21 39 -15 42 -106 8z"/>
<path d="M19885 3714 c-69 -14 -190 -37 -470 -90 -167 -31 -213 -49 -251 -100
-23 -30 -29 -48 -29 -88 0 -79 7 -98 49 -138 65 -62 119 -62 406 -4 48 9 403
76 406 76 2 0 4 81 4 180 l0 180 -22 -1 c-13 -1 -54 -8 -93 -15z"/>
<path d="M8473 3606 c40 -43 43 -105 6 -145 -29 -31 -62 -35 -154 -21 -46 7
-101 10 -124 6 -131 -21 -239 -101 -297 -222 -19 -40 -45 -81 -57 -89 -36 -25
-92 -19 -131 15 l-34 31 -8 -78 c-5 -57 -3 -99 9 -156 16 -81 69 -207 86 -207
5 0 20 -19 34 -43 62 -106 207 -201 352 -232 228 -48 464 40 608 226 75 98
127 252 127 376 -1 115 -49 254 -124 358 -65 90 -199 184 -288 202 l-30 6 25
-27z"/>
<path d="M6565 3506 c-27 -7 -65 -20 -84 -30 -48 -25 -119 -93 -146 -140 -13
-23 -87 -237 -165 -476 -77 -239 -304 -925 -503 -1525 l-362 -1090 0 -95 c0
-52 6 -107 12 -122 12 -27 14 -28 99 -28 78 0 85 2 79 18 -4 9 -14 52 -23 94
-62 292 193 560 492 517 230 -32 392 -236 372 -467 -3 -39 -13 -88 -21 -108
-8 -20 -15 -40 -15 -45 0 -5 650 -9 1509 -9 l1509 0 72 222 c39 123 195 595
346 1049 245 740 274 833 274 891 0 103 -31 178 -109 261 -48 51 -100 77 -256
125 -71 22 -237 77 -369 122 -131 44 -239 80 -240 78 -1 -2 -12 -25 -25 -53
-36 -78 -103 -166 -183 -239 -131 -123 -267 -186 -443 -208 l-93 -11 -57 -164
c-32 -90 -60 -184 -63 -208 -4 -42 -2 -46 42 -86 63 -58 146 -168 194 -259
134 -253 95 -625 -93 -875 -98 -132 -281 -249 -460 -296 -105 -28 -300 -31
-393 -6 -214 57 -384 180 -506 365 -71 108 -88 149 -116 266 -49 201 -10 428
105 622 64 108 140 188 242 254 114 75 300 139 404 140 19 0 42 6 51 13 14 11
138 365 138 394 0 6 -25 36 -56 65 -99 93 -173 200 -209 302 -51 143 -67 325
-39 462 7 37 54 18 -416 173 -191 63 -359 113 -390 115 -30 3 -77 0 -105 -8z"/>
<path d="M12753 2549 c-24 -6 -43 -14 -43 -20 0 -5 -6 -9 -12 -9 -7 0 -26 -7
-42 -15 -15 -8 -32 -12 -37 -9 -5 3 -9 1 -9 -4 0 -10 -89 -48 -102 -44 -12 3
-10 -4 11 -45 46 -89 75 -159 73 -176 -1 -10 3 -15 8 -12 6 3 11 0 12 -7 3
-27 6 -36 62 -151 31 -64 56 -127 56 -139 0 -12 3 -18 7 -15 7 7 33 -38 33
-58 0 -13 29 -76 39 -85 3 -3 8 -14 9 -25 2 -11 8 -21 13 -23 5 -2 9 -8 9 -13
0 -6 8 -29 19 -52 49 -110 59 -136 53 -141 -3 -3 0 -6 6 -6 7 0 12 -5 12 -11
0 -7 18 -50 40 -96 22 -47 40 -87 40 -90 0 -2 23 -51 50 -109 28 -58 50 -108
50 -113 0 -5 12 -29 26 -55 14 -25 22 -51 18 -58 -4 -7 -3 -10 1 -5 5 4 31
-43 58 -105 27 -62 53 -117 58 -122 5 -6 9 -16 9 -24 0 -7 9 -32 19 -55 10
-23 38 -87 61 -142 24 -55 48 -106 54 -114 10 -13 12 -123 3 -187 -4 -31 -49
-101 -76 -118 -7 -4 -21 -16 -30 -25 -26 -26 -112 -51 -173 -51 -67 0 -140 34
-190 88 -20 22 -39 37 -43 34 -4 -4 -6 -2 -4 3 3 11 -7 37 -45 115 -14 29 -26
62 -26 72 0 11 -4 16 -10 13 -6 -3 -10 5 -10 19 0 13 -6 31 -13 38 -7 7 -22
36 -32 63 -10 28 -22 55 -26 60 -4 6 -24 50 -44 100 -46 110 -73 171 -136 303
-27 57 -49 106 -49 111 0 4 -11 31 -25 59 -14 29 -25 54 -25 57 0 2 -11 29
-25 59 -14 30 -25 59 -25 65 0 5 -3 11 -7 13 -5 2 -30 55 -56 118 -27 63 -53
122 -58 130 -11 18 -30 59 -59 125 -34 78 -46 105 -79 178 -17 38 -31 73 -31
78 0 6 -10 29 -23 52 -13 23 -36 75 -52 115 -16 40 -32 75 -37 78 -4 3 -8 14
-8 24 0 19 -2 19 -57 -2 -32 -12 -73 -30 -91 -40 -18 -10 -38 -15 -44 -12 -6
4 -8 2 -4 -4 3 -6 -4 -14 -16 -18 -34 -10 -118 -74 -118 -89 0 -7 -4 -15 -10
-17 -19 -7 -39 -114 -29 -159 10 -43 47 -138 75 -191 8 -14 14 -31 14 -36 0
-6 27 -66 60 -135 33 -69 60 -129 60 -133 0 -4 23 -55 51 -113 28 -58 52 -110
53 -116 1 -5 11 -30 22 -55 44 -97 54 -121 54 -135 0 -8 4 -15 8 -15 5 0 16
-17 25 -37 9 -21 35 -83 59 -138 23 -55 42 -103 40 -108 -1 -4 2 -7 8 -7 5 0
12 -15 16 -34 3 -19 13 -37 21 -40 8 -4 13 -13 9 -21 -6 -18 3 -47 13 -40 4 2
14 -18 21 -45 8 -28 17 -50 22 -50 4 0 8 -7 8 -16 0 -9 13 -42 29 -73 17 -31
48 -96 71 -146 22 -50 49 -106 60 -125 l19 -35 734 -3 735 -2 34 82 c19 46 38
107 42 136 7 53 -3 84 -75 238 -10 22 -19 46 -19 52 0 7 -3 12 -7 12 -5 0 -16
21 -26 48 -10 26 -24 58 -31 72 -7 14 -16 37 -20 52 -3 16 -11 28 -16 28 -6 0
-10 6 -10 13 0 7 -9 33 -21 58 -11 24 -33 71 -49 104 -15 33 -47 105 -70 160
-63 150 -157 364 -185 420 -13 28 -41 88 -61 135 -20 47 -45 105 -56 130 -53
116 -67 150 -93 217 -15 40 -32 70 -36 67 -5 -3 -9 1 -9 9 0 7 -9 32 -21 56
-46 95 -89 193 -91 209 -2 9 -5 19 -8 22 -3 3 -18 33 -34 67 -63 134 -173 193
-303 162z m-153 -135 c0 -3 -6 -2 -12 2 -10 6 -10 4 -2 -7 5 -8 9 -20 8 -26
-1 -7 -2 -17 -3 -23 -3 -22 -23 -8 -37 26 -12 30 -13 38 -3 45 12 7 49 -5 49
-17z m50 -18 c0 -12 -5 -7 -19 24 -11 24 -11 24 3 6 9 -11 16 -24 16 -30z
m-670 -251 c0 -8 -2 -15 -4 -15 -2 0 -6 7 -10 15 -3 8 -1 15 4 15 6 0 10 -7
10 -15z"/>
<path d="M12160 2524 c-19 -12 -41 -23 -47 -23 -17 -1 -16 -13 3 -37 8 -10 13
-14 10 -8 -3 6 12 17 35 24 44 15 56 30 42 53 -7 12 -14 11 -43 -9z"/>
<path d="M12325 2362 c-10 -8 -104 -51 -158 -71 l-27 -11 30 -53 c16 -30 27
-57 23 -60 -3 -4 -2 -7 4 -7 5 0 16 -19 23 -42 7 -24 19 -54 26 -68 27 -51
108 -234 123 -275 4 -11 18 -42 32 -70 13 -27 23 -53 22 -57 -2 -4 2 -8 7 -8
6 0 10 -6 10 -13 0 -6 11 -33 25 -59 14 -26 33 -68 44 -95 16 -41 136 -317
191 -438 10 -22 39 -87 65 -145 63 -144 72 -162 121 -267 24 -50 44 -94 44
-97 0 -3 13 -33 30 -67 16 -34 27 -66 24 -70 -3 -5 -1 -9 5 -9 6 0 15 -17 21
-37 16 -60 53 -116 80 -124 46 -13 120 -10 120 4 0 8 9 22 20 32 36 33 25 81
-61 262 -21 46 -39 86 -39 89 0 4 -18 44 -41 90 -22 46 -37 89 -33 95 4 8 3 9
-4 5 -7 -4 -12 -2 -12 5 0 10 -33 89 -85 204 -16 34 -27 68 -25 74 1 2 -2 7
-7 10 -8 6 -63 113 -63 124 0 7 -65 151 -81 180 -5 9 -19 43 -31 75 -11 31
-26 63 -32 71 -6 8 -21 39 -32 70 -22 57 -155 351 -175 384 -5 10 -28 63 -49
118 -43 110 -112 258 -120 259 -4 0 -10 -4 -15 -8z m16 -67 c22 -20 99 -175
99 -201 0 -8 4 -14 10 -14 5 0 6 -7 3 -17 -4 -11 -3 -14 5 -9 8 4 12 0 12 -11
0 -10 10 -36 22 -58 11 -22 40 -85 63 -140 24 -55 65 -149 93 -210 28 -60 54
-126 57 -146 6 -34 4 -39 -29 -64 -29 -22 -43 -26 -72 -22 -20 3 -42 14 -50
24 -17 23 -90 195 -86 206 1 4 -3 7 -10 7 -6 0 -8 3 -5 7 4 3 -11 40 -33 82
-43 84 -61 122 -150 326 -71 163 -73 170 -60 211 18 52 87 68 131 29z m309
-934 c0 -8 6 -11 15 -7 9 3 15 0 15 -9 0 -11 -12 -15 -45 -15 -25 0 -45 4 -45
9 0 5 -2 16 -5 23 -4 11 3 14 30 14 22 -1 35 -6 35 -15z"/>
<path d="M7927 2163 c-25 -76 -60 -185 -77 -243 -32 -107 -40 -131 -179 -540
-45 -129 -81 -238 -81 -242 0 -7 101 -41 105 -35 1 1 23 65 48 142 25 77 109
333 186 568 78 236 141 435 141 442 0 8 -18 19 -42 26 -24 6 -46 13 -50 15 -3
2 -27 -58 -51 -133z"/>
<path d="M13430 2006 c0 -3 9 -10 20 -16 11 -6 20 -8 20 -6 0 3 -9 10 -20 16
-11 6 -20 8 -20 6z"/>
<path d="M13530 1946 c0 -3 9 -10 20 -16 11 -6 20 -8 20 -6 0 3 -9 10 -20 16
-11 6 -20 8 -20 6z"/>
<path d="M19800 1764 c-96 -19 -217 -41 -269 -49 -51 -9 -96 -17 -100 -19 -4
-3 -74 -16 -156 -31 -83 -15 -193 -35 -245 -45 -164 -31 -254 -48 -290 -54
-117 -18 -365 -70 -422 -88 -88 -27 -120 -64 -137 -153 -5 -25 -5 -63 0 -83 9
-42 54 -279 99 -522 16 -91 37 -196 44 -235 8 -38 18 -90 21 -115 4 -25 13
-67 20 -95 8 -27 16 -68 18 -90 3 -22 11 -73 17 -112 l13 -73 793 0 794 0 0
900 c0 714 -3 900 -12 899 -7 0 -92 -16 -188 -35z m-747 -563 c48 -18 73 -58
87 -134 31 -177 48 -269 53 -273 4 -4 164 24 264 46 93 22 142 10 168 -40 28
-55 14 -114 -34 -143 -15 -9 -101 -30 -191 -47 -90 -17 -166 -32 -168 -35 -2
-2 10 -74 27 -159 17 -86 31 -171 31 -188 -1 -39 -33 -80 -75 -97 -38 -14 -94
5 -117 41 -13 21 -65 265 -70 330 -1 15 -7 29 -13 31 -5 2 -77 -9 -160 -25
-215 -41 -219 -41 -262 6 -31 34 -35 43 -30 79 5 39 47 94 61 80 3 -4 6 -2 6
4 0 10 48 21 160 39 45 7 173 35 182 40 3 2 2 19 -2 37 -5 17 -18 82 -29 142
-37 203 -37 207 27 250 41 28 49 29 85 16z"/>
<path d="M7460 1751 c-92 -30 -141 -60 -211 -132 -37 -38 -71 -69 -76 -69 -10
0 -70 -96 -91 -144 -49 -111 -65 -267 -38 -378 33 -140 108 -263 214 -351 70
-59 133 -90 237 -118 295 -80 580 53 720 336 67 136 82 266 45 409 -21 84 -74
193 -119 247 -31 36 -35 36 -45 2 -6 -17 -3 -23 8 -23 20 0 12 -20 -36 -92
-21 -31 -38 -61 -38 -65 0 -5 -10 -21 -22 -36 -12 -16 -52 -115 -88 -222 -67
-200 -88 -238 -138 -248 -18 -4 -91 16 -210 55 -167 54 -185 62 -203 91 -10
18 -19 38 -19 46 0 8 30 107 66 220 37 113 75 238 85 276 9 39 28 100 42 137
14 37 22 69 19 72 -9 10 -45 5 -102 -13z"/>
<path d="M13657 1463 c3 -10 10 -23 14 -29 16 -21 67 -152 61 -158 -3 -3 0 -6
6 -6 5 0 18 -21 28 -47 20 -53 44 -96 51 -89 2 2 13 45 23 95 16 81 17 96 5
124 -8 18 -14 28 -15 22 0 -6 -3 -5 -8 1 -4 6 -25 21 -47 32 -22 11 -55 32
-74 46 -41 30 -53 33 -44 9z m117 -83 c44 -29 53 -50 20 -50 -8 0 -13 -3 -11
-7 3 -5 1 -17 -3 -28 -6 -17 -10 -14 -29 23 -30 59 -42 92 -33 92 5 0 29 -14
56 -30z"/>
<path d="M1830 1380 c-237 -47 -405 -79 -445 -85 -16 -2 -52 -9 -80 -14 -128
-26 -283 -55 -350 -66 -11 -2 -65 -12 -120 -24 -55 -11 -152 -29 -215 -40 -63
-11 -126 -23 -140 -26 -14 -3 -61 -12 -105 -20 -44 -7 -102 -19 -130 -24 -73
-15 -102 -21 -178 -33 l-67 -10 0 -519 0 -519 235 0 c129 0 235 3 235 8 -1 4
-7 34 -15 67 -35 143 -10 194 107 219 l26 6 -15 62 c-30 125 -3 259 69 349 31
38 118 106 130 101 5 -1 8 3 8 10 0 6 3 9 6 5 4 -3 19 0 33 8 15 7 92 25 171
40 80 14 217 40 305 56 88 17 183 34 210 39 28 5 95 18 150 29 55 11 174 34
264 51 91 17 182 40 203 51 74 38 101 150 56 230 -22 39 -102 90 -137 88 -9 0
-104 -18 -211 -39z"/>
<path d="M11691 1244 c0 -11 3 -14 6 -6 3 7 2 16 -1 19 -3 4 -6 -2 -5 -13z"/>
<path d="M11671 1144 c0 -11 3 -14 6 -6 3 7 2 16 -1 19 -3 4 -6 -2 -5 -13z"/>
<path d="M14077 723 c-4 -3 -7 -11 -7 -17 0 -6 5 -5 12 2 6 6 9 14 7 17 -3 3
-9 2 -12 -2z"/>
<path d="M11915 612 c-11 -53 -19 -107 -17 -120 2 -15 26 -38 76 -70 39 -27
80 -51 89 -55 31 -12 20 24 -52 178 -21 44 -44 96 -51 115 -7 19 -16 38 -19
42 -4 4 -15 -36 -26 -90z m55 -46 c0 -18 -17 8 -24 34 l-7 25 15 -25 c9 -14
15 -29 16 -34z"/>
<path d="M14052 590 c0 -14 2 -19 5 -12 2 6 2 18 0 25 -3 6 -5 1 -5 -13z"/>
<path d="M5846 419 c-99 -23 -176 -119 -176 -221 0 -49 31 -122 68 -160 l36
-38 127 0 127 0 33 32 c72 72 89 174 43 266 -29 58 -94 108 -153 118 -20 3
-43 7 -51 9 -8 1 -33 -1 -54 -6z"/>
<path d="M2850 219 c-107 -21 -265 -50 -350 -64 -85 -15 -171 -31 -190 -35
-41 -11 -38 -10 -250 -50 -91 -17 -203 -37 -249 -45 -46 -8 -86 -16 -89 -19
-3 -3 347 -6 778 -6 l783 0 -7 38 c-19 114 -72 189 -151 211 -53 14 -50 15
-275 -30z"/>
<path d="M12100 146 c0 -2 7 -7 16 -10 8 -3 12 -2 9 4 -6 10 -25 14 -25 6z"/>
<path d="M799 116 c-2 -2 -28 -6 -58 -9 -30 -3 -58 -10 -64 -16 -14 -14 1 -64
17 -58 7 3 38 8 69 12 57 7 57 8 57 41 0 30 -8 42 -21 30z"/>
</g>
</svg>
