<?xml version="1.0" standalone="no"?>
<!DOCTYPE svg PUBLIC "-//W3C//DTD SVG 20010904//EN"
 "http://www.w3.org/TR/2001/REC-SVG-20010904/DTD/svg10.dtd">
<svg version="1.0" xmlns="http://www.w3.org/2000/svg"
 width="2048.000000pt" height="768.000000pt" viewBox="0 0 2048.000000 768.000000"
 preserveAspectRatio="xMidYMid meet">

<g transform="translate(0.000000,768.000000) scale(0.100000,-0.100000)"
fill="#000000" stroke="none">
<path d="M0 3840 l0 -3840 866 0 867 0 -75 78 c-336 352 -328 898 19 1246 157
157 352 246 571 259 l74 5 54 113 c207 429 585 728 1044 826 123 26 450 26
570 -1 449 -98 801 -370 1005 -776 l43 -86 74 -17 c216 -52 387 -195 493 -412
98 -201 114 -391 54 -617 l-21 -78 45 -50 c101 -112 175 -253 208 -396 l21
-94 7284 0 7284 0 0 3840 0 3840 -10240 0 -10240 0 0 -3840z m18245 3640 c17
-7 44 -12 62 -11 41 3 89 -25 103 -60 7 -15 25 -33 42 -40 17 -7 39 -26 49
-43 44 -72 8 -149 -81 -179 -30 -10 -64 -27 -75 -37 -11 -10 -67 -32 -124 -50
-85 -26 -112 -30 -155 -25 -92 13 -136 53 -136 125 0 34 25 90 40 90 6 0 10
21 10 48 1 145 133 236 265 182z m704 11 c11 -7 10 -20 -8 -79 -24 -81 -24
-82 -10 -82 23 0 149 -42 149 -50 0 -5 -4 -20 -9 -33 l-10 -25 -82 24 c-45 13
-83 23 -84 21 -1 -1 -12 -32 -24 -69 -23 -69 -27 -73 -69 -62 -16 5 -21 11
-17 23 4 9 15 42 25 73 l18 58 -72 20 c-39 12 -76 23 -83 25 -15 5 3 65 19 65
6 0 42 -9 80 -20 37 -12 72 -19 77 -16 5 3 17 35 27 71 15 52 23 65 39 65 11
0 26 -4 34 -9z m-4369 -92 c0 -17 -123 -299 -130 -299 -6 0 -175 271 -188 302
-2 5 69 8 157 8 106 0 161 -4 161 -11z m4630 -1300 c-105 -580 -201 -1109
-212 -1177 l-22 -122 -22 55 -23 56 34 191 c19 106 41 212 49 237 23 74 36
142 40 211 2 36 13 117 25 180 11 63 68 378 126 700 58 322 108 596 111 609 5
21 3 23 -23 17 -15 -4 -397 -115 -848 -248 l-820 -240 -70 12 c-58 11 -66 14
-45 21 14 4 396 117 850 249 454 133 872 256 930 274 58 18 106 32 108 31 1
-1 -83 -476 -188 -1056z m-12125 607 c44 -15 111 -45 148 -67 l68 -40 76 17
c95 21 177 9 268 -39 107 -56 207 -184 230 -293 5 -27 13 -34 51 -44 103 -29
227 -138 282 -247 114 -224 18 -508 -210 -624 -21 -11 -113 -40 -204 -64 -173
-47 -204 -59 -204 -76 0 -19 -90 -106 -127 -122 -60 -27 -873 -237 -912 -237
-42 1 -99 20 -138 46 -16 10 -42 17 -58 15 -51 -4 -169 26 -235 59 -173 87
-280 295 -250 488 19 121 108 264 199 318 l26 15 0 157 c1 145 3 163 29 237
91 262 285 446 546 515 113 30 305 24 415 -14z m10074 -121 c74 -3 137 -8 141
-10 3 -2 29 -7 56 -10 27 -4 58 -9 69 -11 37 -9 115 -47 115 -56 0 -5 4 -7 9
-3 5 3 30 -6 54 -19 24 -14 55 -27 68 -29 13 -2 31 -7 39 -10 8 -3 45 -11 83
-18 44 -8 67 -17 67 -26 0 -8 5 -11 11 -7 6 3 21 1 34 -6 21 -11 22 -15 11
-34 -7 -11 -12 -36 -11 -54 1 -18 0 -30 -3 -28 -2 3 -12 -4 -21 -15 l-17 -21
-1 21 c-1 12 2 19 7 16 6 -3 7 1 4 10 -5 11 -2 14 10 9 9 -3 16 -1 16 5 0 6
-9 11 -20 11 -11 0 -20 -7 -20 -15 0 -8 -4 -15 -9 -15 -11 0 -9 -14 7 -52 6
-15 9 -35 6 -43 -4 -8 -1 -15 6 -15 6 0 8 -5 4 -12 -5 -8 -2 -9 10 -5 13 5 16
3 12 -11 -4 -12 1 -21 16 -27 12 -6 29 -27 37 -48 13 -35 12 -39 -5 -52 -10
-8 -24 -13 -31 -10 -6 2 -14 -3 -17 -11 -3 -8 -10 -14 -16 -14 -6 0 -9 4 -6 8
7 11 -25 9 -44 -3 -9 -5 -15 -4 -18 3 -2 7 -7 10 -12 7 -4 -3 -13 2 -20 9 -8
11 -9 20 0 36 9 16 9 25 0 35 -6 8 -11 22 -10 32 4 37 0 59 -8 45 -6 -8 -16 6
-32 43 -13 30 -28 55 -33 55 -5 0 -3 -8 4 -17 7 -10 -5 -1 -26 19 -22 20 -53
39 -70 43 -29 5 -29 5 -5 -5 66 -29 79 -79 33 -122 -37 -34 -55 -42 -141 -63
-112 -27 -181 -10 -185 44 -2 32 -11 25 -25 -19 -15 -50 -15 -93 0 -108 8 -8
8 -15 -2 -27 -8 -10 -9 -15 -1 -15 6 0 11 -7 11 -16 0 -11 5 -14 16 -10 14 5
15 4 5 -8 -9 -11 -8 -15 4 -20 10 -3 13 -11 9 -18 -6 -11 -5 -11 8 0 13 10 15
8 14 -19 -1 -20 -11 -39 -29 -55 -15 -12 -27 -28 -27 -34 0 -6 -4 -8 -10 -5
-16 10 -12 -7 7 -27 19 -21 6 -24 -22 -5 -11 7 -27 12 -35 12 -8 -1 -21 -3
-28 -3 -7 -1 -10 -6 -7 -12 3 -6 -1 -7 -9 -4 -9 3 -14 10 -11 15 3 4 -12 13
-34 19 -31 8 -38 14 -34 29 3 10 -1 24 -9 31 -8 8 -12 27 -10 50 10 103 -44
174 -193 251 -117 61 -155 72 -97 30 44 -33 73 -82 71 -123 0 -15 -5 -8 -14
21 -16 51 -46 86 -97 112 -34 17 -37 21 -28 45 23 59 6 128 -41 169 -21 19
-21 19 -12 1 24 -44 -26 -143 -100 -197 -93 -69 -214 -109 -330 -109 -81 0
-130 14 -171 51 -48 41 -53 71 -21 125 49 83 181 161 315 186 48 9 119 29 185
53 17 6 17 5 5 -5 -12 -9 -11 -10 8 -5 12 4 36 8 53 10 17 3 36 9 43 14 6 5
30 15 54 22 23 6 42 16 42 22 0 5 6 7 14 4 8 -3 30 -1 48 4 33 10 174 27 193
23 6 -1 70 -5 144 -9z m-3549 -177 c53 -15 127 -73 160 -125 18 -28 43 -52 62
-60 75 -32 113 -98 105 -185 -3 -34 -1 -61 5 -64 6 -4 19 -25 29 -48 45 -99 3
-211 -96 -257 -52 -24 -91 -24 -181 3 -60 17 -79 19 -100 10 -37 -18 -44 -16
-241 41 l-181 53 -66 65 c-70 70 -96 117 -96 177 0 83 79 178 158 189 33 4 42
11 56 39 24 51 92 120 141 144 80 39 154 44 245 18z m-1101 -201 c50 -70 91
-130 91 -132 0 -7 -338 -5 -356 2 -8 3 -11 10 -7 16 4 6 1 7 -7 2 -22 -13 -6
19 77 157 75 125 76 127 93 105 9 -12 58 -79 109 -150z m5663 119 c43 -48 45
-56 17 -82 -32 -29 -186 -28 -226 2 -38 28 -41 58 -8 88 33 30 88 46 140 39
31 -4 48 -14 77 -47z m-2722 -76 l0 -60 69 0 c62 0 69 -2 74 -22 9 -33 1 -38
-70 -38 l-65 0 4 -57 c3 -53 1 -58 -19 -61 -22 -3 -27 7 -35 88 -3 23 -7 25
-73 30 -67 5 -70 6 -70 30 0 24 3 25 67 28 l66 3 -5 59 -6 60 32 0 31 0 0 -60z
m2926 9 c19 -22 19 -22 -3 -8 -13 8 -23 17 -23 21 0 12 6 9 26 -13z m-6011
-323 c110 -105 254 -243 320 -306 238 -228 302 -289 435 -414 74 -71 136 -131
138 -135 1 -4 -11 -11 -26 -17 -35 -13 -20 -25 -287 230 -110 105 -240 229
-290 276 -49 47 -183 175 -297 284 -127 121 -209 193 -212 185 -2 -8 -32 -250
-66 -539 -34 -289 -77 -651 -96 -805 -177 -1486 -244 -2058 -241 -2061 2 -2
55 23 118 56 62 33 115 60 116 60 2 0 3 -94 3 -210 0 -115 -1 -210 -2 -210 -2
0 -59 29 -128 65 -68 35 -126 62 -128 60 -2 -2 -12 -71 -22 -152 l-19 -148 34
-31 c51 -48 68 -88 63 -151 -6 -72 -27 -99 -122 -158 -12 -8 -22 -62 -45 -250
-16 -132 -27 -242 -25 -244 2 -2 30 6 61 17 892 321 2326 837 2351 845 28 9
36 8 54 -11 12 -12 20 -23 17 -26 -4 -3 -189 -70 -1264 -457 -181 -65 -547
-196 -812 -292 -266 -96 -483 -171 -483 -168 0 4 49 414 63 533 4 35 -17 37
-38 4 -20 -30 -16 -28 -210 -86 -132 -39 -165 -46 -190 -38 -16 6 -51 13 -78
17 -142 22 -203 188 -107 291 26 28 30 40 30 89 0 78 23 141 73 197 81 92 213
121 322 70 37 -17 57 -21 74 -14 40 14 92 -2 136 -43 l42 -39 12 103 c6 56 14
120 17 143 6 39 5 41 -35 59 -23 10 -41 21 -41 25 0 3 20 16 44 27 52 26 47 7
81 298 14 121 37 312 51 425 13 113 42 356 64 540 22 184 58 486 80 670 21
184 73 621 115 970 41 349 78 652 81 673 l6 37 31 -26 c18 -15 122 -113 232
-218z m3648 192 c2 -18 4 -33 3 -34 0 0 -329 -96 -731 -214 -401 -117 -736
-216 -742 -219 -8 -4 104 -94 271 -219 l284 -213 98 22 c55 11 124 27 154 35
71 18 73 18 65 -8 -6 -20 -2 -18 28 11 35 33 36 34 83 22 26 -7 62 -18 81 -26
l33 -14 -61 -58 c-67 -64 -124 -131 -117 -139 10 -9 233 49 245 64 11 13 15
10 29 -23 27 -65 14 -94 -81 -186 -46 -45 -100 -92 -119 -105 l-36 -25 -82 21
c-45 12 -108 23 -140 25 -53 3 -62 1 -102 -29 -83 -64 -181 -126 -198 -126
-22 0 -126 39 -133 49 -2 5 23 30 56 56 33 26 59 49 57 51 -2 2 -22 -6 -45
-17 -50 -25 -113 -36 -113 -20 0 6 5 11 11 11 5 0 8 4 5 9 -3 5 29 25 72 46
42 20 88 42 102 49 16 7 25 20 25 35 0 18 -14 28 -80 57 -44 20 -81 40 -83 44
-2 5 -10 6 -19 3 -13 -5 -13 -3 -5 14 14 26 74 78 130 114 l44 28 -312 233
-313 232 34 9 c33 9 1258 368 1474 432 61 18 113 33 116 34 4 1 9 -14 12 -31z
m727 -43 c59 -31 75 -84 34 -117 -32 -26 -68 -31 -108 -14 -30 13 -36 20 -36
46 0 16 -6 39 -12 51 -11 18 -10 23 15 44 29 26 39 25 107 -10z m1534 -25 c33
-12 60 -64 47 -89 -31 -57 -149 -109 -217 -97 -36 7 -64 38 -64 72 0 27 66 88
111 102 73 23 91 25 123 12z m-2195 -87 c-25 -49 -24 -109 1 -151 12 -19 16
-31 10 -27 -41 26 -51 136 -16 189 24 38 27 32 5 -11z m189 -33 c2 -14 13 -35
25 -48 l21 -22 -21 -28 c-28 -37 -71 -41 -106 -8 -32 29 -35 65 -10 107 15 25
23 29 53 27 29 -2 36 -7 38 -28z m1431 -23 c34 -17 45 -39 36 -73 -4 -16 -9
-24 -12 -17 -3 8 -17 4 -45 -15 -34 -22 -52 -26 -107 -26 -36 0 -83 2 -104 5
-21 3 -41 1 -44 -4 -4 -6 -10 0 -15 13 -26 71 201 163 291 117z m1187 -280
c-40 -72 -137 -196 -222 -284 l-56 -58 43 53 c98 119 166 215 199 279 46 89
51 96 63 84 6 -6 -3 -32 -27 -74z m-8735 -154 c-6 -81 -29 -394 -51 -694 -55
-756 -70 -952 -73 -955 -1 -1 -121 68 -267 155 -146 87 -418 249 -605 360
-763 454 -864 516 -857 522 4 3 48 23 97 43 50 19 466 191 925 380 459 189
837 343 839 341 2 -2 -2 -71 -8 -152z m7384 -59 c22 -23 15 -48 -15 -53 -14
-1 -27 -6 -30 -10 -7 -11 -132 -41 -142 -35 -4 3 -8 15 -8 28 0 22 27 53 65
74 31 17 111 15 130 -4z m-338 -10 c-3 -3 -12 -4 -19 -1 -8 3 -5 6 6 6 11 1
17 -2 13 -5z m-48 -8 c-2 -2 -31 -6 -64 -9 -39 -4 -50 -3 -30 2 31 9 102 14
94 7z m1618 -7 c-9 -6 -15 -15 -11 -20 4 -6 15 -4 30 6 13 8 24 11 24 6 0 -5
8 -11 17 -13 14 -3 9 -13 -26 -51 -24 -26 -46 -45 -49 -42 -3 3 7 19 23 35 29
30 41 60 25 60 -5 0 -12 -4 -15 -10 -3 -5 -1 -10 5 -10 6 0 8 -5 5 -10 -5 -8
-12 -7 -22 2 -22 18 -41 18 -55 0 -11 -15 -11 -15 2 -6 19 13 42 12 47 -1 4
-14 -54 -45 -85 -45 -25 0 -24 3 28 55 30 30 59 55 65 55 5 0 2 -5 -8 -11z
m-2880 -40 c-21 -11 -60 -42 -88 -68 -27 -26 -49 -44 -49 -39 0 4 -4 8 -10 8
-5 0 -10 -7 -10 -15 0 -8 -6 -12 -15 -9 -11 5 -12 10 -2 25 6 10 17 19 24 19
7 0 10 7 6 15 -3 9 3 25 12 35 20 22 41 27 29 8 -5 -9 -2 -9 9 1 14 11 20 11
32 1 15 -12 16 -11 19 13 0 6 11 13 24 13 12 1 25 4 29 8 3 3 11 6 17 6 6 -1
-6 -10 -27 -21z m98 1 c21 -33 -163 -163 -201 -142 -13 7 -12 13 11 40 32 38
141 112 166 112 10 0 21 -5 24 -10z m2670 -89 c3 -5 19 -12 35 -16 17 -4 30
-11 30 -16 0 -5 -12 -6 -27 -3 -52 13 -74 24 -68 34 8 13 22 13 30 1z m-2965
-36 c13 -14 19 -25 14 -25 -8 1 -50 50 -41 50 2 0 14 -11 27 -25z m-1627 -64
c38 -15 80 -14 96 2 8 6 11 8 8 2 -3 -6 48 -11 141 -13 219 -5 327 -37 412
-122 40 -40 44 -58 22 -113 -16 -37 -89 -81 -162 -97 -93 -20 -240 -9 -321 24
-112 45 -191 132 -173 188 10 34 -16 10 -32 -28 -19 -46 -18 -93 5 -137 l19
-36 -34 -26 c-38 -29 -60 -66 -73 -122 l-9 -38 -1 32 c-2 48 15 82 62 125 34
32 36 36 12 22 -49 -30 -96 -66 -162 -123 -78 -68 -106 -123 -101 -200 1 -31
7 -59 11 -62 4 -3 4 -17 -2 -30 -5 -15 -5 -31 0 -41 7 -13 3 -18 -22 -23 -19
-4 -29 -12 -25 -20 7 -18 -21 -27 -45 -15 -14 8 -19 7 -19 -1 0 -7 -3 -9 -7
-6 -3 4 -17 -3 -30 -15 -22 -20 -34 -13 -13 8 6 6 6 15 0 24 -7 10 -10 11 -10
3 0 -7 -5 -13 -11 -13 -5 0 -8 4 -5 8 3 5 -5 14 -17 21 -30 16 -62 71 -42 71
9 0 12 6 9 15 -4 8 -1 15 6 15 9 0 9 4 -1 17 -12 15 -12 16 5 10 14 -6 17 -4
12 8 -3 8 0 15 6 15 7 0 6 5 -2 15 -9 11 -9 22 -2 44 8 23 7 36 -8 63 -10 18
-23 43 -29 55 -23 50 -140 104 -226 103 -48 -1 -9 -16 56 -23 142 -14 211
-110 109 -151 -59 -23 -202 -21 -257 4 -77 35 -80 97 -7 136 18 10 32 20 30
22 -7 6 -60 -25 -80 -47 -10 -11 -22 -18 -26 -16 -5 3 -6 -5 -4 -17 2 -13 2
-17 -2 -10 -3 6 -10 12 -16 12 -5 0 -8 -6 -5 -12 2 -7 0 -21 -5 -31 -5 -10
-10 -32 -10 -48 -1 -21 -5 -28 -15 -25 -8 3 -13 -2 -13 -14 0 -11 3 -20 8 -20
4 0 7 -22 7 -49 0 -30 -4 -47 -10 -44 -5 3 -4 0 3 -8 17 -18 15 -27 -5 -25
-10 0 -17 -4 -16 -10 1 -6 -4 -11 -12 -11 -8 0 -11 5 -8 10 4 7 -1 7 -13 3
-25 -11 -39 -10 -91 8 -37 12 -26 77 17 113 12 10 13 14 2 21 -11 7 -9 10 7
15 22 5 29 31 11 42 -5 3 -7 11 -5 18 6 15 -13 40 -42 56 -13 6 -23 17 -23 23
0 7 5 6 15 -2 8 -6 19 -9 24 -5 6 3 13 -6 17 -21 6 -24 8 -25 17 -9 7 14 4 22
-14 36 -13 9 -27 15 -31 13 -4 -3 -8 0 -8 6 0 7 -7 10 -15 7 -8 -4 -17 -1 -21
5 -4 7 -3 8 4 4 14 -9 16 6 2 20 -14 14 37 74 77 90 18 8 33 18 33 23 0 4 21
19 48 32 26 13 49 27 52 30 3 3 35 18 71 32 36 14 97 44 135 67 38 22 73 40
79 40 5 0 22 6 37 14 41 22 279 86 350 95 83 10 266 5 301 -8z m2267 -34 c0
-2 -15 -16 -32 -33 l-33 -29 29 33 c28 30 36 37 36 29z m-4930 -132 l0 -85 95
0 95 0 0 -40 0 -40 -96 0 -96 0 7 -85 7 -85 -41 0 -41 0 0 85 0 85 -95 0 -95
0 0 40 0 40 93 0 92 0 -4 85 -3 85 41 0 41 0 0 -85z m8250 -103 c66 -101 120
-186 120 -189 0 -5 -177 1 -366 13 l-91 6 100 179 c55 99 104 178 108 177 5
-2 62 -85 129 -186z m-880 74 c0 -2 -8 -10 -17 -17 -16 -13 -17 -12 -4 4 13
16 21 21 21 13z m-3984 -258 c19 -36 18 -109 -2 -134 -15 -18 -15 -18 -5 3 20
41 13 96 -20 149 -25 39 -27 45 -9 29 12 -11 28 -32 36 -47z m-595 36 c23 -11
29 -20 23 -32 -4 -9 -7 -34 -6 -54 1 -30 -4 -41 -27 -58 -35 -25 -73 -26 -112
-3 -51 30 -30 98 45 144 38 23 39 23 77 3z m-1352 -19 c89 -46 9 -133 -132
-143 -55 -4 -71 -1 -87 13 -19 17 -19 18 10 69 17 30 41 56 57 63 39 17 118
16 152 -2z m1836 -52 c32 -48 32 -55 -6 -98 -34 -38 -45 -41 -83 -23 -33 15
-41 41 -21 72 10 15 14 33 10 46 -5 15 -1 22 17 29 41 17 57 12 83 -26z
m-3855 -130 c6 -42 14 -82 17 -89 3 -8 25 -6 84 9 44 11 81 18 83 16 2 -2 7
-18 10 -36 l7 -31 -75 -18 c-42 -10 -80 -20 -85 -23 -5 -4 -3 -35 5 -76 7 -38
13 -77 14 -87 0 -16 -53 -42 -64 -31 -3 3 -10 38 -17 78 -6 40 -15 78 -19 84
-5 9 -27 7 -86 -8 -43 -11 -80 -18 -82 -16 -2 2 -5 18 -5 36 -2 32 -1 33 65
49 105 27 97 18 81 102 -7 40 -14 79 -16 87 -2 13 26 27 59 30 6 1 17 -32 24
-76z m1631 14 l-23 -22 17 28 c10 15 20 25 23 22 3 -3 -5 -16 -17 -28z m4253
27 c9 -3 16 -15 16 -25 0 -12 -5 -16 -15 -13 -9 4 -15 0 -15 -9 0 -10 -17 -16
-61 -21 -34 -3 -68 -11 -75 -17 -19 -15 -44 -4 -44 20 0 18 36 51 70 64 21 8
105 8 124 1z m-894 -56 c10 -6 7 -7 -10 -2 -14 3 -32 11 -40 16 -10 6 -7 7 10
2 14 -3 32 -11 40 -16z m-3043 -143 c110 -45 90 -143 -31 -153 -103 -8 -200
44 -189 102 6 31 40 63 73 69 35 6 109 -3 147 -18z m673 -26 c31 -17 45 -31
46 -47 1 -13 -5 -22 -13 -22 -10 0 -13 7 -9 23 3 14 1 13 -6 -6 -7 -17 -17
-26 -26 -22 -7 2 -23 -2 -36 -10 -13 -9 -52 -18 -87 -21 -52 -4 -71 -2 -101
14 -25 13 -38 16 -41 8 -2 -6 -9 -1 -16 12 -16 30 6 67 52 88 51 23 182 14
237 -17z m-5355 -644 c97 -330 207 -702 244 -828 54 -179 65 -226 52 -223 -18
5 -136 27 -611 111 -571 102 -924 166 -925 168 -1 1 235 318 524 705 412 552
527 700 533 685 4 -10 86 -288 183 -618z m7005 575 c3 -3 18 -11 33 -18 15 -7
26 -16 23 -21 -4 -5 3 -7 14 -4 23 6 49 -16 42 -36 -3 -8 1 -12 9 -9 8 3 22
-6 32 -19 10 -13 28 -23 39 -23 15 0 18 -5 14 -16 -5 -13 -4 -14 7 -6 8 7 17
9 20 5 4 -3 15 1 24 9 10 9 42 28 72 43 l53 27 36 -26 c38 -27 54 -27 31 0
-13 16 2 17 221 10 218 -7 239 -9 287 -31 29 -13 68 -36 88 -50 l34 -27 -76
-61 c-75 -61 -102 -91 -92 -101 3 -3 45 -13 93 -21 48 -9 100 -22 116 -30 28
-14 44 -38 33 -49 -10 -10 -79 -7 -109 4 -51 20 -36 1 25 -29 34 -17 61 -33
61 -35 0 -9 -108 -76 -131 -81 -18 -4 -54 5 -115 29 -49 20 -95 34 -102 31 -8
-3 -26 3 -40 14 -24 16 -29 17 -40 4 -12 -12 -16 -12 -30 0 -15 13 -28 10
-115 -28 l-98 -44 -45 19 c-46 20 -159 92 -207 132 -35 29 -46 71 -33 128 5
25 11 38 13 29 2 -9 18 -19 35 -23 47 -9 208 -7 208 3 0 8 -141 112 -184 137
-17 9 -23 4 -47 -40 -14 -28 -50 -76 -79 -106 -29 -30 -48 -46 -42 -35 6 11
22 31 36 44 38 36 34 72 -11 111 -48 43 -131 80 -179 82 -21 1 -33 3 -26 6 6
2 12 10 12 18 0 8 5 14 10 14 6 0 10 13 10 29 0 16 7 34 15 41 8 7 12 17 9 22
-6 9 35 -11 46 -22z m3640 -856 c-87 -480 -159 -877 -161 -882 -3 -8 -1278
933 -1314 970 -7 6 15 58 25 58 3 0 283 -207 621 -460 337 -253 616 -460 619
-460 3 0 66 332 139 738 73 405 140 774 148 819 15 81 16 82 47 85 17 2 32 3
32 3 1 0 -69 -392 -156 -871z m-11915 525 c6 -6 -721 -904 -731 -904 -4 0 -27
45 -51 100 -25 55 -144 318 -265 585 -121 267 -222 490 -224 495 -4 10 1259
-265 1271 -276z m8280 177 c83 -42 109 -61 100 -75 -9 -16 -44 -13 -111 9 -73
25 -120 60 -111 83 10 26 46 20 122 -17z m-2875 -51 c13 -14 21 -25 18 -25 -2
0 -15 11 -28 25 -13 14 -21 25 -18 25 2 0 15 -11 28 -25z m4023 -117 c3 -10 4
-18 2 -18 -6 0 -45 76 -45 87 0 10 34 -45 43 -69z m-2355 5 c-21 -2 -55 -2
-75 0 -21 2 -4 4 37 4 41 0 58 -2 38 -4z m-289 -48 c28 -14 41 -33 41 -61 0
-11 -17 -14 -76 -14 -49 0 -73 4 -69 10 4 7 -4 9 -23 5 -46 -8 -61 17 -28 50
20 20 35 25 76 25 28 0 64 -7 79 -15z m-1504 -61 c49 -64 140 -151 240 -229
68 -53 76 -61 38 -39 -36 20 -209 157 -262 207 -66 63 -104 129 -73 126 4 0
30 -29 57 -65z m2674 -62 l46 -43 -58 45 c-31 25 -71 53 -87 61 -17 9 -30 18
-30 21 0 12 86 -44 129 -84z m325 -15 c-18 -56 -31 -77 -46 -77 -6 0 -5 6 1
14 9 10 9 20 2 33 -7 15 -5 22 11 32 11 7 17 15 13 19 -3 3 -11 0 -16 -8 -9
-12 -10 -11 -5 4 5 16 2 18 -21 13 l-27 -5 25 18 c17 14 25 15 29 7 9 -22 28
-17 23 6 -4 18 -3 19 6 7 9 -13 11 -12 12 5 1 17 2 17 6 2 2 -9 -3 -41 -13
-70z m-3838 -82 c88 -52 116 -157 60 -230 -83 -108 -255 -76 -311 59 -26 62
-1 137 57 175 49 31 138 29 194 -4z m4356 -17 c-9 -9 -15 -9 -24 0 -9 9 -7 12
12 12 19 0 21 -3 12 -12z m-6840 -142 c117 -57 391 -190 608 -296 596 -291
754 -367 884 -430 l118 -57 -523 -400 c-522 -399 -622 -476 -816 -625 -56 -43
-104 -78 -107 -78 -4 0 -6 10 -6 23 -1 12 -85 460 -188 995 -104 534 -187 972
-186 972 1 0 98 -47 216 -104z m3483 84 c0 -8 -6 -18 -15 -23 -8 -4 -3 -5 13
-2 21 4 27 2 21 -6 -4 -8 -3 -9 5 -5 9 6 9 11 -1 24 -7 8 6 3 30 -13 37 -24
41 -30 26 -38 -15 -9 -44 -3 -113 20 -9 3 0 -8 19 -25 19 -17 32 -31 27 -32
-10 0 -107 73 -107 81 0 10 49 21 60 14 6 -4 15 -3 22 1 8 5 6 10 -8 16 -18 8
-18 8 1 5 11 -1 20 -9 20 -17z m148 -86 c4 -4 -14 -18 -39 -31 -57 -31 -69
-23 -17 11 42 27 47 29 56 20z m3258 -100 c104 -19 173 -52 238 -110 37 -34
49 -50 46 -69 -1 -14 2 -25 8 -25 5 0 4 -7 -3 -15 -9 -11 -9 -15 -1 -15 7 0 9
-5 4 -12 -4 -7 -8 -21 -8 -30 0 -19 -40 -68 -55 -68 -5 0 -10 -6 -10 -14 0
-19 -26 -40 -34 -27 -4 5 2 14 11 20 10 6 14 10 8 10 -18 0 -47 -27 -34 -31
25 -8 -3 -26 -51 -33 -28 -4 -47 -11 -44 -16 7 -12 -7 -11 -26 1 -9 5 -19 5
-26 -1 -10 -8 -98 -6 -169 4 -39 5 -135 40 -135 48 0 5 -6 9 -12 9 -20 0 -80
58 -73 69 4 7 -1 8 -11 4 -13 -5 -16 -3 -11 10 4 10 2 16 -6 14 -7 -1 -12 9
-12 24 0 15 -4 25 -10 23 -6 -3 -11 3 -12 13 0 10 -3 35 -5 56 -5 33 -1 43 27
73 18 18 57 45 88 59 101 46 186 54 318 29z m-1083 -174 c35 -16 43 -24 40
-42 -3 -21 -7 -22 -98 -23 -52 0 -101 4 -107 8 -11 8 -19 47 -10 47 1 0 20 7
42 15 54 19 82 18 133 -5z m-2287 -17 c13 -16 12 -17 -3 -4 -10 7 -18 15 -18
17 0 8 8 3 21 -13z m50 -40 c13 -16 12 -17 -3 -4 -10 7 -18 15 -18 17 0 8 8 3
21 -13z m2289 -23 c0 -5 -5 -10 -11 -10 -5 0 -7 5 -4 10 3 6 8 10 11 10 2 0 4
-4 4 -10z m5316 -54 c28 -28 34 -41 34 -77 0 -82 -68 -159 -141 -159 -122 0
-141 180 -26 250 50 31 93 26 133 -14z m-4661 -166 c43 -33 51 -45 47 -65 -3
-17 -11 -25 -26 -26 -11 -1 -34 -2 -51 -4 -76 -5 -100 42 -53 107 10 16 22 28
25 28 3 0 30 -18 58 -40z m629 -84 c22 -48 21 -113 -2 -125 -23 -12 -62 11
-62 37 0 25 -64 74 -79 59 -8 -8 -11 -8 -11 1 0 7 8 15 18 18 9 3 35 14 57 24
55 26 60 25 79 -14z m3703 14 c1 0 -12 -36 -28 -81 -16 -44 -27 -84 -24 -89 3
-4 37 -16 76 -25 39 -10 73 -23 75 -30 3 -6 0 -23 -5 -38 l-10 -26 -65 19
c-35 10 -72 21 -83 24 -16 5 -23 -6 -48 -80 -30 -84 -30 -85 -59 -80 -16 4
-32 9 -35 12 -3 3 7 42 22 86 19 53 25 83 18 88 -6 3 -43 14 -82 24 -68 18
-70 20 -64 45 4 14 10 30 15 34 4 5 42 -1 84 -12 42 -12 78 -21 80 -21 3 0 14
30 27 68 33 101 34 102 71 91 18 -5 34 -9 35 -9z m-5325 -699 c2 -17 1 -28 -4
-25 -8 5 -12 54 -4 54 2 0 6 -13 8 -29z m54 -87 c-10 -27 22 -59 132 -134 59
-40 112 -77 117 -83 21 -19 -63 28 -140 80 -102 68 -125 88 -125 106 0 19 10
47 17 47 3 0 2 -7 -1 -16z m324 -254 c8 -5 11 -10 5 -10 -5 0 -17 5 -25 10 -8
5 -10 10 -5 10 6 0 17 -5 25 -10z m462 -152 c-7 -7 -12 -8 -12 -2 0 14 12 26
19 19 2 -3 -1 -11 -7 -17z m3678 -29 c32 -12 83 -21 120 -22 82 -2 130 -30
159 -90 15 -32 32 -49 66 -65 79 -38 122 -135 95 -217 -22 -66 -63 -102 -151
-130 -55 -17 -87 -34 -106 -55 -24 -25 -55 -38 -202 -81 -115 -33 -183 -49
-200 -44 -14 3 -47 10 -73 15 -61 11 -99 32 -136 74 -58 66 -53 171 10 238 29
30 32 38 29 88 -6 119 72 240 184 285 73 30 132 31 205 4z m-4200 -100 c21
-17 18 -17 -16 3 -61 35 -99 64 -49 38 22 -12 51 -30 65 -41z m85 -54 l20 -16
-20 10 c-11 5 -29 17 -40 26 l-20 16 20 -10 c11 -5 29 -17 40 -26z m-1556
-186 c17 -6 31 -14 31 -18 0 -4 -11 -41 -25 -81 -14 -40 -25 -79 -25 -86 0 -6
41 -27 90 -45 90 -34 91 -34 84 -64 -3 -16 -9 -34 -14 -38 -4 -4 -44 6 -90 23
-46 16 -88 30 -92 30 -10 0 -9 1 -39 -98 l-22 -74 -30 6 c-17 4 -35 10 -39 14
-4 4 3 44 17 87 14 44 25 85 25 91 0 6 -39 26 -87 44 -49 18 -90 34 -91 36 -2
1 1 19 8 39 13 41 7 41 127 -5 l73 -28 26 89 c15 49 30 89 34 89 4 0 21 -5 39
-11z m6551 -199 l0 -70 61 0 c60 0 60 0 57 -27 -3 -30 -3 -30 -78 -32 l-50 -1
-1 -42 c-2 -65 -12 -93 -37 -96 -21 -3 -22 0 -22 67 l0 71 -61 0 c-60 0 -60 0
-57 28 3 26 6 27 66 30 l62 3 0 32 c0 18 3 49 6 70 6 31 11 37 30 37 23 0 24
-3 24 -70z m-2550 -18 c50 -25 80 -74 80 -134 0 -121 -94 -218 -210 -218 -45
0 -55 4 -92 38 -37 35 -42 45 -46 94 -6 74 10 118 63 172 62 64 138 82 205 48z
m-710 -521 c0 -43 -21 -285 -25 -289 -4 -4 -255 124 -281 143 -15 10 5 23 137
93 85 45 157 81 162 82 4 0 7 -13 7 -29z"/>
<path d="M18095 7466 c-63 -28 -114 -122 -101 -188 3 -16 1 -28 -4 -28 -16 0
-50 -62 -50 -90 0 -38 34 -86 69 -98 33 -12 34 -10 31 25 -1 13 2 28 7 35 4 7
8 25 9 40 1 19 17 42 50 72 42 39 55 45 92 46 36 0 49 -6 75 -32 18 -18 41
-37 52 -43 11 -6 25 -21 30 -33 8 -19 15 -22 39 -18 52 11 81 31 100 69 16 34
17 42 4 75 -9 25 -26 44 -51 57 -20 11 -42 33 -48 48 -15 36 -61 60 -99 52
-18 -4 -40 0 -59 9 -36 19 -105 20 -146 2z"/>
<path d="M18175 7200 c-8 -16 -15 -31 -15 -35 0 -11 28 -5 33 8 2 6 9 -5 16
-25 7 -21 17 -38 22 -38 12 0 11 22 -1 55 -9 24 -8 26 10 20 27 -9 25 10 -2
29 -32 23 -45 20 -63 -14z"/>
<path d="M18135 7149 c5 -22 4 -29 -4 -25 -6 4 -11 3 -11 -3 0 -10 39 -36 45
-29 1 2 8 14 15 27 11 21 10 23 -4 18 -11 -4 -18 1 -22 18 -9 37 -27 31 -19
-6z"/>
<path d="M14320 7374 c0 -6 89 -157 115 -196 11 -17 31 20 103 194 2 4 -46 8
-107 8 -61 0 -111 -3 -111 -6z"/>
<path d="M6749 6680 c-156 -25 -282 -91 -399 -209 -68 -69 -94 -103 -127 -171
-71 -146 -96 -296 -74 -440 7 -46 8 -76 2 -78 -32 -11 -109 -72 -141 -114 -63
-79 -84 -146 -85 -264 0 -96 2 -103 37 -175 64 -129 187 -220 321 -235 l59 -7
-21 41 c-37 73 -24 189 31 262 19 26 22 44 23 113 0 72 4 88 28 130 31 52 92
102 137 112 20 4 37 19 54 49 57 98 174 176 295 197 168 30 363 -73 444 -233
23 -46 32 -54 58 -56 44 -3 122 -46 154 -84 38 -44 65 -108 68 -157 1 -23 7
-41 12 -41 27 0 321 82 353 99 72 37 139 108 179 189 37 73 38 80 38 182 0
100 -2 109 -34 175 -57 115 -159 198 -281 230 -44 11 -45 12 -60 71 -59 223
-269 352 -464 286 l-60 -20 -43 30 c-60 40 -156 84 -228 103 -76 19 -204 26
-276 15z"/>
<path d="M6876 5564 c-43 -74 -77 -136 -75 -138 2 -1 20 -12 40 -23 l36 -21
34 59 c19 32 37 59 41 59 7 0 25 -56 64 -206 l26 -101 39 10 c22 5 39 13 39
18 0 5 -16 75 -36 155 -20 79 -34 147 -32 150 3 2 32 -11 65 -29 l59 -34 23
39 c12 22 21 41 19 42 -2 2 -52 32 -113 66 -60 35 -119 69 -130 76 -19 12 -25
4 -99 -122z"/>
<path d="M6698 5463 c-10 -2 -18 -5 -18 -6 0 -1 13 -51 29 -112 16 -60 27
-111 26 -113 -1 -1 -22 9 -46 22 l-43 25 -18 -26 -17 -27 91 -53 c49 -29 93
-53 97 -53 3 1 30 42 59 92 48 84 51 92 35 104 -29 21 -40 17 -66 -27 -14 -22
-27 -37 -30 -32 -2 4 -17 54 -33 111 -15 56 -33 101 -38 101 -6 -1 -19 -3 -28
-6z"/>
<path d="M16377 6419 c-68 -9 -140 -39 -187 -77 l-25 -21 25 6 c14 3 30 11 35
17 10 11 16 13 53 19 9 2 27 8 39 15 12 7 36 14 52 15 17 2 34 7 38 10 3 4 17
7 29 7 13 0 26 5 29 10 7 11 8 11 -88 -1z"/>
<path d="M16485 6400 c-3 -5 -2 -10 4 -10 5 0 13 5 16 10 3 6 2 10 -4 10 -5 0
-13 -4 -16 -10z"/>
<path d="M16160 6300 c-12 -8 -11 -10 8 -10 12 0 22 5 22 10 0 13 -11 13 -30
0z"/>
<path d="M17460 6281 c-49 -15 -105 -50 -135 -82 l-30 -33 38 32 c49 42 85 60
154 76 39 10 48 14 28 14 -16 0 -41 -3 -55 -7z"/>
<path d="M17785 6010 c-3 -5 -1 -10 4 -10 6 0 11 5 11 10 0 6 -2 10 -4 10 -3
0 -8 -4 -11 -10z"/>
<path d="M17300 5850 c0 -5 5 -10 11 -10 5 0 7 5 4 10 -3 6 -8 10 -11 10 -2 0
-4 -4 -4 -10z"/>
<path d="M13407 6386 c-64 -23 -129 -82 -162 -147 -22 -42 -28 -47 -66 -52
-133 -18 -191 -181 -103 -287 30 -35 44 -38 44 -11 0 24 47 81 66 81 7 0 20
13 29 30 21 40 56 61 96 59 19 -2 44 3 56 9 30 16 108 15 142 -2 47 -25 89
-81 96 -130 4 -24 4 -49 1 -54 -3 -5 2 -16 11 -23 28 -24 43 -73 33 -109 -5
-18 -8 -36 -5 -40 2 -3 38 -15 79 -25 83 -21 129 -14 181 27 33 26 65 91 65
133 0 35 -30 104 -52 123 -12 10 -13 19 -5 50 5 21 7 55 3 75 -9 49 -59 105
-99 113 -25 4 -39 17 -62 57 -34 58 -98 111 -153 127 -51 14 -149 12 -195 -4z"/>
<path d="M13428 5961 c-60 -34 -63 -38 -49 -55 11 -14 16 -13 37 1 28 18 29
17 8 -54 -11 -37 -13 -58 -6 -65 15 -15 30 -2 38 35 3 17 11 43 16 57 l9 25
19 -25 c15 -20 21 -23 32 -12 10 10 6 23 -17 67 -17 30 -32 54 -35 54 -3 -1
-26 -13 -52 -28z"/>
<path d="M13321 5918 c-11 -37 -15 -40 -25 -26 -7 10 -17 13 -24 9 -10 -6 -7
-18 11 -49 l23 -41 37 22 c41 23 52 53 16 42 -23 -8 -23 -10 -3 63 5 15 2 22
-8 22 -9 0 -20 -18 -27 -42z"/>
<path d="M12354 6268 c-15 -24 -41 -65 -59 -93 -17 -27 -35 -56 -39 -62 -6
-10 24 -13 134 -13 115 0 141 3 137 14 -7 18 -127 185 -138 191 -4 3 -20 -14
-35 -37z"/>
<path d="M11837 2639 c-54 -27 -100 -55 -102 -62 -2 -7 -6 -26 -9 -44 l-5 -32
110 -53 c60 -30 112 -52 113 -50 3 3 -5 285 -8 288 0 1 -45 -20 -99 -47z"/>
<path d="M11650 2540 c0 -5 5 -10 10 -10 6 0 10 5 10 10 0 6 -4 10 -10 10 -5
0 -10 -4 -10 -10z"/>
<path d="M11153 2291 c-98 -45 -157 -146 -152 -260 2 -56 0 -62 -25 -82 -32
-25 -56 -75 -56 -116 0 -38 37 -108 67 -129 15 -9 41 -20 59 -24 l31 -7 -5 42
c-2 25 1 52 9 66 7 13 12 38 10 56 -2 24 4 38 23 55 14 13 44 42 67 65 47 48
95 68 146 60 41 -7 100 -49 115 -83 6 -13 20 -24 30 -24 26 0 78 -53 78 -79 0
-21 14 -28 24 -12 3 5 15 84 27 175 20 164 20 167 2 204 -27 52 -100 89 -148
75 -29 -9 -41 -7 -81 13 -61 31 -159 33 -221 5z"/>
<path d="M11679 2118 c-9 -26 -32 -278 -26 -278 17 0 62 32 81 57 21 28 32 98
22 137 -9 38 -70 104 -77 84z"/>
<path d="M11274 1898 c-19 -38 -23 -53 -14 -62 8 -8 16 -5 29 13 l18 24 14
-53 c12 -47 31 -71 45 -57 3 3 -1 29 -10 58 -16 58 -15 69 8 50 16 -14 36 -7
36 12 0 7 -23 24 -50 39 l-51 26 -25 -50z"/>
<path d="M11207 1854 c-3 -3 -2 -17 4 -31 14 -38 12 -58 -5 -44 -10 9 -16 9
-21 1 -4 -6 -5 -13 -4 -14 10 -9 71 -37 74 -34 1 2 10 17 19 35 12 24 13 34 4
39 -6 4 -14 2 -16 -4 -7 -23 -20 -12 -26 23 -7 33 -15 42 -29 29z"/>
<path d="M15470 5248 c-36 -21 -49 -33 -38 -36 20 -4 118 44 118 58 0 17 -23
11 -80 -22z"/>
<path d="M15525 5209 c-4 -6 -5 -12 -2 -15 2 -3 7 2 10 11 7 17 1 20 -8 4z"/>
<path d="M14945 5164 c-11 -8 -27 -19 -35 -24 -13 -7 -11 -12 8 -33 27 -28 37
-29 72 -4 34 23 47 21 24 -4 -19 -21 -19 -21 8 -9 15 7 35 9 45 5 16 -6 16 -8
-4 -16 -13 -4 -23 -16 -23 -24 0 -12 6 -15 23 -9 12 3 22 7 22 8 0 0 6 11 13
24 11 19 10 25 -8 44 -52 56 -106 72 -145 42z"/>
<path d="M15403 5153 c-7 -2 -13 -9 -13 -15 0 -12 41 -6 41 7 1 12 -11 15 -28
8z"/>
<path d="M15505 4900 c-47 -48 -36 -54 13 -7 l33 32 19 -25 c11 -14 20 -20 20
-15 0 14 -29 55 -39 55 -4 0 -25 -18 -46 -40z"/>
<path d="M15410 4920 c0 -5 9 -10 20 -10 11 0 20 5 20 10 0 6 -9 10 -20 10
-11 0 -20 -4 -20 -10z"/>
<path d="M15055 4839 c-4 -6 -5 -12 -2 -15 7 -7 37 7 37 17 0 13 -27 11 -35
-2z"/>
<path d="M14945 4779 c-9 -17 -14 -36 -12 -42 2 -7 11 3 21 21 19 37 21 37 70
17 20 -8 36 -11 36 -6 0 9 -71 41 -90 41 -5 0 -17 -14 -25 -31z"/>
<path d="M17434 5838 l-19 -23 25 20 c14 11 27 21 29 22 2 2 0 3 -6 3 -5 0
-18 -10 -29 -22z"/>
<path d="M9237 5237 c-493 -204 -894 -374 -890 -378 5 -4 136 -83 293 -176
157 -94 528 -315 824 -492 297 -177 541 -319 544 -316 6 5 14 105 57 700 25
351 45 622 65 894 6 74 9 135 8 136 -2 1 -407 -164 -901 -368z"/>
<path d="M14315 5121 c-22 -5 -38 -9 -35 -10 6 -3 145 -12 177 -13 13 0 21 -3
19 -7 -2 -3 6 -6 17 -7 12 0 40 -4 62 -7 l40 -7 -52 26 c-57 27 -157 38 -228
25z"/>
<path d="M14255 5080 c3 -5 11 -10 16 -10 6 0 7 5 4 10 -3 6 -11 10 -16 10 -6
0 -7 -4 -4 -10z"/>
<path d="M14585 5050 c-3 -5 1 -10 10 -10 9 0 13 5 10 10 -3 6 -8 10 -10 10
-2 0 -7 -4 -10 -10z"/>
<path d="M19447 4900 c-37 -66 -67 -124 -67 -129 0 -7 310 -24 317 -17 4 3
-171 266 -178 266 -3 0 -35 -54 -72 -120z"/>
<path d="M13420 4356 c0 -2 7 -7 16 -10 8 -3 12 -2 9 4 -6 10 -25 14 -25 6z"/>
<path d="M7722 4098 c-87 -117 -313 -419 -501 -671 -188 -253 -341 -461 -338
-463 4 -4 289 -56 1097 -200 201 -35 371 -66 378 -69 6 -2 12 -2 12 1 0 3
-106 362 -235 798 -129 436 -235 798 -235 804 0 32 -31 -4 -178 -200z"/>
<path d="M15018 4203 c7 -3 16 -2 19 1 4 3 -2 6 -13 5 -11 0 -14 -3 -6 -6z"/>
<path d="M15410 4161 c0 -10 113 -35 132 -29 7 3 -11 13 -41 22 -61 18 -91 20
-91 7z"/>
<path d="M15986 4151 c-27 -5 -50 -31 -29 -31 32 0 122 24 117 31 -6 10 -44
10 -88 0z"/>
<path d="M15552 4069 c2 -7 12 -13 22 -15 23 -3 15 20 -8 24 -11 3 -17 -1 -14
-9z"/>
<path d="M15245 4059 c-4 -6 -5 -12 -2 -15 2 -3 7 2 10 11 7 17 1 20 -8 4z"/>
<path d="M15910 4056 c0 -10 9 -16 21 -16 24 0 21 23 -4 28 -10 2 -17 -3 -17
-12z"/>
<path d="M15585 3850 c-4 -6 3 -10 14 -10 25 0 27 6 6 13 -8 4 -17 2 -20 -3z"/>
<path d="M15460 3821 c-14 -27 -12 -51 2 -26 6 11 12 22 14 24 2 2 23 -8 48
-22 60 -33 60 -20 1 16 -54 32 -52 32 -65 8z"/>
<path d="M15944 3833 c10 -11 36 -12 36 -2 0 5 -10 9 -22 9 -12 0 -18 -3 -14
-7z"/>
<path d="M16022 3799 c-18 -12 -31 -24 -28 -26 3 -3 22 5 42 18 l37 23 21 -27
c30 -37 42 -34 14 3 -26 35 -42 37 -86 9z"/>
<path d="M5570 4228 c0 -18 509 -1133 518 -1133 5 0 122 140 261 310 138 171
297 365 351 432 55 67 100 124 100 127 0 4 -8 6 -17 6 -10 0 -287 60 -615 133
-329 73 -598 129 -598 125z"/>
<path d="M11095 3688 c-36 -19 -55 -52 -55 -95 0 -53 34 -95 96 -119 37 -14
51 -15 84 -5 106 32 106 161 -1 216 -33 18 -96 19 -124 3z"/>
<path d="M8675 3143 c51 -263 132 -685 180 -938 48 -253 91 -468 94 -477 5
-14 141 85 694 508 378 289 687 529 687 533 0 5 -33 23 -72 41 -40 19 -210
101 -378 183 -168 82 -345 168 -395 192 -49 23 -271 131 -493 239 -222 108
-404 196 -406 196 -1 0 39 -215 89 -477z"/>
<path d="M15451 3429 c-13 -11 -27 -16 -30 -12 -12 16 -30 13 -24 -4 5 -13 2
-15 -11 -10 -10 4 -15 3 -11 -3 3 -6 1 -10 -4 -10 -27 0 -77 -70 -84 -118 -5
-28 -3 -33 11 -28 13 5 12 2 -2 -9 -17 -13 -17 -15 -4 -15 9 0 20 5 23 10 3 6
11 10 17 10 7 0 5 -7 -4 -17 -28 -33 -29 -41 -6 -35 12 3 17 7 10 10 -7 2 -10
8 -6 13 7 12 44 12 44 -1 0 -5 -4 -10 -10 -10 -5 0 -10 -6 -10 -12 1 -7 10 -2
20 11 11 13 20 18 20 12 0 -7 5 -9 10 -6 6 4 8 11 4 16 -8 13 18 7 35 -9 9 -9
17 -10 24 -3 5 5 16 7 23 4 8 -3 22 4 32 15 15 18 20 19 47 6 17 -7 24 -13 16
-14 -8 0 -12 -2 -9 -5 3 -3 24 1 46 10 31 13 45 14 61 6 25 -14 34 -14 26 -1
-4 6 5 5 20 -2 19 -9 28 -9 37 0 18 18 28 15 21 -5 -6 -17 -5 -17 14 0 22 19
33 22 33 6 0 -5 -4 -7 -10 -4 -16 10 -12 -11 5 -25 13 -11 14 -10 9 4 -5 12
-2 15 10 10 16 -6 23 10 9 19 -5 2 -3 2 4 1 7 -2 15 1 18 6 4 6 12 10 18 10 7
0 6 -4 -3 -11 -12 -8 -10 -9 9 -4 18 6 22 4 15 -6 -6 -10 -3 -10 11 1 18 14
18 15 -3 18 -23 4 -39 32 -18 32 8 0 17 -5 19 -10 3 -6 4 -5 3 2 -1 7 -10 14
-20 16 -9 2 -36 21 -59 43 -23 21 -48 39 -56 39 -10 0 -11 3 -2 14 9 11 8 15
-5 20 -23 9 -31 7 -14 -4 13 -8 13 -10 -2 -10 -9 0 -20 5 -23 10 -3 6 -15 10
-26 10 -10 0 -19 4 -19 9 0 4 -11 6 -25 3 -14 -2 -25 0 -25 5 0 4 -41 8 -92 7
-57 -1 -86 1 -77 7 8 5 10 9 4 9 -5 -1 -21 -10 -34 -21z m78 -162 c-2 -1 -13
-9 -24 -17 -19 -14 -19 -14 -6 3 7 9 18 17 24 17 6 0 8 -1 6 -3z m-133 -29
c-9 -5 -24 -7 -34 -5 -12 3 -11 5 6 6 12 0 22 6 22 12 0 5 5 7 11 3 8 -5 6
-10 -5 -16z m90 -10 c4 -6 3 -8 -4 -4 -6 3 -13 2 -17 -4 -4 -6 -11 -7 -17 -4
-6 4 -5 10 3 15 19 12 27 11 35 -3z m271 6 c-3 -3 -12 -4 -19 -1 -8 3 -5 6 6
6 11 1 17 -2 13 -5z"/>
<path d="M15568 3443 c7 -3 16 -2 19 1 4 3 -2 6 -13 5 -11 0 -14 -3 -6 -6z"/>
<path d="M15837 3359 c7 -7 15 -10 18 -7 3 3 -2 9 -12 12 -14 6 -15 5 -6 -5z"/>
<path d="M15633 3223 c-25 -9 -13 -19 18 -15 22 3 27 7 18 13 -15 10 -18 10
-36 2z"/>
<path d="M15531 3213 c-1 -17 16 -25 25 -12 4 7 3 9 -4 5 -5 -3 -13 0 -15 6
-4 9 -6 10 -6 1z"/>
<path d="M15889 3138 l-12 -23 24 20 c13 11 26 21 28 22 2 2 -3 3 -12 3 -9 0
-22 -10 -28 -22z"/>
<path d="M15400 3109 c0 -5 5 -7 10 -4 6 3 10 8 10 11 0 2 -4 4 -10 4 -5 0
-10 -5 -10 -11z"/>
<path d="M19843 3135 c-68 -29 -95 -124 -48 -170 28 -29 45 -31 84 -11 55 29
80 95 57 151 -8 19 -19 35 -25 35 -5 0 -15 2 -23 5 -7 2 -28 -2 -45 -10z"/>
<path d="M18620 1673 c-26 -9 -66 -37 -96 -67 -64 -64 -89 -131 -81 -217 5
-53 3 -59 -19 -74 -31 -20 -64 -86 -64 -127 0 -57 39 -120 90 -145 24 -13 52
-23 61 -23 15 0 16 5 7 34 -8 27 -7 40 6 66 9 18 16 51 16 72 0 30 7 45 28 64
15 14 47 45 72 69 50 47 95 62 155 51 39 -8 100 -56 110 -87 4 -10 15 -19 25
-19 28 0 77 -46 83 -79 l6 -30 52 15 c84 25 94 30 127 68 75 86 38 225 -68
257 -31 9 -40 18 -45 41 -15 68 -111 124 -174 101 -21 -7 -36 -4 -75 16 -61
32 -152 38 -216 14z"/>
<path d="M18725 1249 c-22 -42 -25 -53 -14 -60 21 -13 27 -11 34 11 11 33 21
23 35 -35 10 -42 18 -55 32 -55 22 0 22 4 3 66 -19 63 -19 67 5 54 20 -11 40
-6 40 10 0 9 -83 60 -98 60 -5 0 -21 -23 -37 -51z"/>
<path d="M18665 1169 c19 -52 19 -52 -4 -39 -14 7 -22 7 -26 -1 -4 -6 -5 -12
-4 -13 7 -6 68 -36 73 -36 2 0 13 16 25 35 20 35 13 57 -14 35 -10 -9 -16 -4
-25 25 -6 19 -18 35 -25 35 -12 0 -12 -7 0 -41z"/>
<path d="M17012 1083 c-98 -48 -131 -190 -56 -240 38 -25 117 -13 156 23 125
117 46 289 -100 217z"/>
<path d="M16288 534 c-60 -30 -108 -56 -108 -58 0 -3 43 -28 96 -57 69 -37 98
-48 104 -39 6 10 22 202 17 206 -1 1 -50 -22 -109 -52z"/>
<path d="M3500 2435 c-501 -84 -897 -412 -1081 -892 l-24 -63 -95 0 c-208 -1
-378 -67 -532 -209 -165 -152 -250 -349 -249 -581 0 -261 111 -486 316 -637
l59 -45 12 79 c16 111 61 200 145 284 65 66 159 121 228 135 21 4 31 12 31 24
0 10 18 53 40 97 50 101 122 170 227 221 73 35 84 37 168 36 54 0 106 -7 130
-16 40 -15 40 -15 120 28 118 63 200 85 336 91 132 6 223 -9 340 -58 206 -85
376 -266 450 -482 37 -108 53 -244 39 -350 -5 -45 -10 -85 -10 -89 0 -5 371
-8 825 -8 l825 0 0 24 c0 36 -38 153 -72 221 -43 84 -80 137 -154 215 l-64 67
20 41 c42 87 55 160 55 307 -1 124 -4 149 -28 220 -84 253 -268 416 -517 460
-43 8 -76 19 -79 27 -18 55 -131 259 -182 328 -205 281 -523 473 -871 524
-124 19 -302 19 -408 1z"/>
<path d="M3330 418 c-140 -77 -256 -141 -258 -143 -4 -3 79 -155 85 -155 2 0
56 28 119 61 63 34 117 59 120 56 3 -3 -8 -55 -25 -116 -17 -61 -31 -113 -31
-116 0 -3 39 -5 88 -5 l87 0 30 100 c34 115 28 116 101 -17 l45 -83 54 0 c59
0 127 26 123 47 -4 18 -272 512 -278 512 -3 0 -120 -64 -260 -141z"/>
<path d="M2905 426 c-11 -31 -108 -354 -112 -374 -10 -41 -21 -33 -69 51 l-47
83 -54 -29 c-30 -16 -53 -32 -51 -36 2 -4 17 -33 33 -64 l30 -57 135 0 135 0
54 188 c29 103 55 194 57 202 6 19 -105 55 -111 36z"/>
<path d="M3005 34 l-60 -33 83 -1 c45 0 82 2 82 5 0 13 -31 65 -38 64 -4 -1
-34 -16 -67 -35z"/>
</g>
</svg>
