<?xml version="1.0" standalone="no"?>
<!DOCTYPE svg PUBLIC "-//W3C//DTD SVG 20010904//EN"
 "http://www.w3.org/TR/2001/REC-SVG-20010904/DTD/svg10.dtd">
<svg version="1.0" xmlns="http://www.w3.org/2000/svg"
 width="1300.000000pt" height="1291.000000pt" viewBox="0 0 1300.000000 1291.000000"
 preserveAspectRatio="xMidYMid meet">

<g transform="translate(0.000000,1291.000000) scale(0.100000,-0.100000)"
fill="#000000" stroke="none">
<path d="M0 11457 l0 -1454 26 -11 c29 -14 24 -33 -6 -25 -20 5 -20 0 -20
-4981 l0 -4986 6500 0 6500 0 0 1345 c0 1212 -2 1345 -16 1345 -8 0 -12 5 -9
10 4 6 11 8 16 5 5 -4 9 1966 9 5099 l0 5106 -6500 0 -6500 0 0 -1453z m1887
892 c213 -270 335 -429 356 -461 17 -27 17 -28 0 -28 -10 0 -97 -9 -193 -20
-96 -11 -181 -20 -190 -19 -21 1 209 48 240 49 14 0 42 5 63 11 l38 10 -36 42
c-51 60 -56 66 -107 132 -110 141 -147 189 -213 276 -38 51 -90 118 -115 150
-25 32 -85 113 -134 180 l-90 122 -18 -39 c-29 -65 -56 -128 -78 -185 -11 -30
-30 -73 -40 -96 -11 -24 -20 -50 -20 -58 0 -9 -12 -39 -26 -67 -14 -28 -27
-58 -29 -67 -2 -9 -17 -51 -34 -94 -17 -43 -31 -83 -31 -89 0 -6 -8 -29 -19
-52 -24 -53 -60 -141 -78 -191 -7 -22 -20 -54 -28 -72 -22 -46 -19 -55 13 -49
15 3 77 10 137 15 61 6 137 12 170 15 33 3 -3 -5 -80 -18 -77 -13 -178 -31
-225 -39 -47 -9 -86 -14 -88 -12 -3 2 19 58 63 160 7 17 18 46 25 65 7 19 22
55 35 80 12 25 26 56 30 70 4 14 23 59 42 100 19 41 41 89 48 105 7 17 17 41
23 55 11 26 23 53 66 155 14 33 46 114 71 180 26 66 51 130 56 143 8 22 18 13
127 -121 64 -79 186 -231 269 -338z m10350 203 c32 -21 82 -53 111 -72 28 -18
52 -37 52 -42 0 -26 -38 -14 -113 36 -47 31 -88 56 -91 56 -3 0 -6 -101 -6
-225 0 -218 -1 -225 -20 -225 -19 0 -20 7 -20 220 0 121 -3 220 -7 220 -5 0
-48 -25 -98 -55 -76 -46 -91 -52 -98 -39 -5 8 -7 17 -5 19 4 4 232 145 235
145 1 0 28 -17 60 -38z m-4216 -8 c73 -21 159 -68 198 -107 58 -60 101 -112
101 -125 0 -7 -15 4 -32 25 -55 63 -90 91 -158 127 -145 76 -326 78 -461 4
-67 -36 -157 -126 -196 -197 -47 -83 -76 -205 -70 -291 3 -38 1 -57 -4 -45 -4
11 -8 59 -8 107 -2 210 119 395 314 480 33 14 69 28 80 31 48 11 185 6 236 -9z
m-6350 -41 c13 -16 12 -17 -3 -4 -17 13 -22 21 -14 21 2 0 10 -8 17 -17z
m2929 -83 c25 -16 80 -48 123 -72 96 -52 112 -68 94 -92 -12 -17 -17 -15 -78
21 -35 22 -88 54 -116 71 l-53 31 0 -279 0 -280 -25 0 -25 0 -2 284 -3 285
-114 -76 c-89 -60 -115 -73 -122 -62 -5 8 -9 19 -8 24 0 15 241 173 264 173
11 0 40 -12 65 -28z m-2849 -22 c16 -29 2 -21 -22 15 -17 23 -18 28 -6 18 10
-8 23 -23 28 -33z m2265 0 c16 -24 33 -51 39 -60 5 -9 29 -44 52 -77 23 -34
45 -70 48 -81 6 -20 -13 -59 -108 -213 -55 -90 -60 -94 -86 -78 -10 7 -4 24
30 81 80 131 88 145 89 152 0 4 -120 9 -267 10 l-268 3 -3 23 -3 22 275 0
c251 0 308 5 276 25 -5 3 -33 41 -60 83 -27 42 -53 82 -58 87 -20 25 -23 37
-12 50 18 22 25 19 56 -27z m3714 32 c-8 -5 -19 -10 -25 -10 -5 0 -3 5 5 10 8
5 20 10 25 10 6 0 3 -5 -5 -10z m-2451 -271 c-1 -148 1 -273 4 -276 6 -6 90
38 95 49 7 15 132 79 142 73 24 -15 2 -35 -132 -116 l-142 -86 -36 21 c-19 11
-57 36 -85 56 -27 20 -54 39 -60 41 -33 14 -85 56 -83 68 5 27 25 21 104 -31
44 -29 94 -61 112 -71 l32 -18 0 103 c1 57 0 183 0 281 l-1 177 26 0 26 0 -2
-271z m711 -4 c0 -151 2 -275 5 -275 5 0 81 47 173 107 51 33 54 34 67 16 16
-21 7 -31 -84 -85 -29 -18 -70 -43 -90 -55 -20 -13 -45 -27 -56 -33 -11 -5
-27 -15 -36 -21 -13 -10 -25 -5 -65 22 -27 19 -57 39 -66 44 -45 26 -148 99
-147 104 5 43 14 41 129 -34 62 -41 115 -75 117 -75 2 0 3 126 3 280 l0 280
25 0 25 0 0 -275z m-4205 195 c10 -11 16 -20 13 -20 -3 0 -13 9 -23 20 -10 11
-16 20 -13 20 3 0 13 -9 23 -20z m-415 -47 c-11 -17 -11 -17 -6 0 3 10 6 24 7
30 0 9 2 9 5 0 3 -7 0 -20 -6 -30z m458 -18 c-3 -3 -9 2 -12 12 -6 14 -5 15 5
6 7 -7 10 -15 7 -18z m6521 -29 c-3 -3 -11 5 -18 17 -13 21 -12 21 5 5 10 -10
16 -20 13 -22z m-6436 -71 c11 -16 14 -25 6 -18 -8 7 -30 34 -48 60 -24 36
-26 40 -6 18 14 -16 36 -43 48 -60z m-618 -76 c-25 -63 -50 -118 -56 -124 -5
-5 3 20 17 55 14 36 29 77 34 91 12 39 42 100 47 96 2 -3 -17 -56 -42 -118z
m9744 62 c33 -46 26 -72 -41 -170 -35 -50 -90 -130 -123 -177 l-60 -86 26 -22
c14 -11 61 -46 103 -76 184 -131 192 -138 202 -186 7 -38 -11 -76 -73 -156
-48 -61 -88 -84 -129 -74 -27 7 -166 105 -268 189 -32 26 -62 47 -67 45 -4 -2
-39 -44 -76 -94 -190 -254 -189 -254 -254 -254 -30 0 -141 77 -158 109 -14 25
-14 67 0 93 6 11 62 89 125 174 63 85 114 158 114 164 0 6 -25 27 -56 48 -78
51 -88 59 -187 130 -118 87 -125 121 -45 225 69 90 90 107 128 107 41 0 51 -6
235 -153 l120 -96 20 22 c11 13 35 41 53 62 45 53 29 24 -25 -47 l-43 -57
-113 79 c-61 43 -123 88 -138 99 -14 10 -44 29 -66 41 -50 26 -64 20 -114 -42
-97 -120 -95 -138 19 -225 43 -32 79 -61 82 -64 3 -3 40 -32 82 -63 46 -34 75
-63 71 -70 -3 -6 -22 -31 -42 -56 -122 -150 -221 -295 -221 -322 0 -53 133
-157 184 -144 16 4 53 45 108 121 45 64 94 131 108 150 14 19 36 50 50 69 14
20 29 36 34 36 9 0 92 -57 235 -164 95 -71 133 -84 165 -57 8 7 36 44 63 82
46 68 47 71 32 97 -8 15 -84 79 -169 143 -85 64 -155 121 -155 127 0 11 48 78
184 255 54 70 91 127 91 141 0 13 -11 35 -25 50 -13 14 -20 26 -15 26 5 0 18
-13 29 -29z m-9036 -105 c64 -82 111 -151 90 -131 -9 9 -116 148 -152 196 -7
11 -11 19 -8 19 3 0 35 -38 70 -84z m8788 -109 c-10 -9 -11 -8 -5 6 3 10 9 15
12 12 3 -3 0 -11 -7 -18z m-9586 -84 c-38 -88 -44 -71 -9 23 16 41 31 68 32
59 2 -10 -8 -46 -23 -82z m7182 35 c-3 -8 -6 -5 -6 6 -1 11 2 17 5 13 3 -3 4
-12 1 -19z m-6340 -4 c-3 -3 -12 -4 -19 -1 -8 3 -5 6 6 6 11 1 17 -2 13 -5z
m5373 -13 c0 -11 3 -28 7 -38 3 -10 3 -15 -1 -12 -12 11 -25 69 -15 69 5 0 9
-9 9 -19z m2925 -11 c3 -6 -1 -7 -9 -4 -18 7 -21 14 -7 14 6 0 13 -4 16 -10z
m-1994 -73 c-10 -9 -11 -8 -5 6 3 10 9 15 12 12 3 -3 0 -11 -7 -18z m-882 -52
c0 -5 -6 1 -14 15 -8 14 -14 30 -14 35 0 6 6 -1 14 -15 8 -14 14 -29 14 -35z
m-6294 35 c3 -5 1 -10 -4 -10 -6 0 -11 5 -11 10 0 6 2 10 4 10 3 0 8 -4 11
-10z m7157 -22 c-7 -7 -12 -8 -12 -2 0 14 12 26 19 19 2 -3 -1 -11 -7 -17z
m-30 -55 c-9 -21 -27 -46 -40 -57 -13 -10 -36 -32 -52 -49 -18 -19 -34 -28
-44 -24 -25 10 -19 27 17 43 17 8 55 39 82 69 28 30 51 54 52 55 2 0 -5 -17
-15 -37z m-701 -99 c38 -26 89 -50 174 -80 33 -11 207 -4 250 11 22 7 57 21
79 30 57 24 71 3 16 -25 -74 -38 -131 -50 -224 -49 -108 2 -191 29 -280 93
-56 40 -136 123 -136 141 0 4 17 -14 39 -41 21 -27 58 -63 82 -80z m535 41
c-11 -8 -22 -12 -25 -9 -6 6 19 24 34 24 6 -1 1 -7 -9 -15z m2728 -164 c-4 -4
-116 75 -157 112 -18 16 11 -2 64 -40 53 -37 95 -70 93 -72z m-2946 92 c-10
-2 -26 -2 -35 0 -10 3 -2 5 17 5 19 0 27 -2 18 -5z m2572 -37 c0 -3 -6 -11
-13 -18 -7 -7 -20 -26 -30 -41 -10 -16 -21 -26 -24 -23 -3 3 9 23 27 46 29 37
40 47 40 36z m405 -76 c3 -6 -1 -7 -9 -4 -18 7 -21 14 -7 14 6 0 13 -4 16 -10z
m-475 -24 c0 -2 -7 -9 -15 -16 -13 -11 -14 -10 -9 4 5 14 24 23 24 12z m-74
-94 c-17 -16 -18 -16 -5 5 7 12 15 20 18 17 3 -2 -3 -12 -13 -22z m-9979 -322
c2 -177 5 -224 15 -222 7 2 50 28 96 59 68 46 85 54 93 42 7 -10 -1 -23 -28
-46 -21 -18 -41 -33 -44 -33 -4 0 -36 -20 -73 -45 l-67 -44 -38 22 c-110 65
-201 121 -201 126 0 3 4 12 9 19 6 10 29 0 96 -42 49 -31 93 -56 97 -56 4 0 8
102 8 226 0 209 1 225 18 222 15 -3 17 -23 19 -228z m1563 -45 c91 -91 163
-165 160 -165 -3 0 -79 74 -170 165 -91 91 -163 165 -160 165 3 0 79 -74 170
-165z m9330 151 c0 -2 -8 -10 -17 -17 -16 -13 -17 -12 -4 4 13 16 21 21 21 13z
m-7450 -79 c0 -2 -10 -12 -22 -23 l-23 -19 19 23 c18 21 26 27 26 19z m3760 0
c0 -2 -10 -12 -22 -23 l-23 -19 19 23 c18 21 26 27 26 19z m3610 -1 c0 -2 -8
-10 -17 -17 -16 -13 -17 -12 -4 4 13 16 21 21 21 13z m-80 -80 c0 -2 -8 -10
-17 -17 -16 -13 -17 -12 -4 4 13 16 21 21 21 13z m-7380 -10 c0 -2 -8 -10 -17
-17 -16 -13 -17 -12 -4 4 13 16 21 21 21 13z m-40 -39 c0 -2 -17 -19 -37 -38
l-38 -34 34 38 c33 34 41 42 41 34z m3720 -41 c0 -2 -8 -10 -17 -17 -16 -13
-17 -12 -4 4 13 16 21 21 21 13z m-1895 -16 c3 -5 -19 -51 -49 -101 -31 -50
-56 -92 -56 -95 0 -2 95 -4 211 -4 198 0 211 1 198 17 -11 13 -8 13 13 -2 14
-11 31 -27 36 -36 10 -16 -9 -17 -226 -18 -132 0 -236 -4 -235 -9 1 -5 24 -42
51 -83 26 -41 51 -79 55 -85 4 -7 0 -17 -7 -23 -12 -10 -27 8 -85 93 -39 58
-71 113 -71 121 0 8 24 52 53 98 29 45 59 94 66 110 15 27 35 35 46 17z m5435
-54 c0 -2 -8 -10 -17 -17 -16 -13 -17 -12 -4 4 13 16 21 21 21 13z m-7380 -10
c0 -2 -8 -10 -17 -17 -16 -13 -17 -12 -4 4 13 16 21 21 21 13z m3760 0 c0 -2
-8 -10 -17 -17 -16 -13 -17 -12 -4 4 13 16 21 21 21 13z m-4576 -21 c95 -25
167 -66 231 -131 52 -53 133 -179 122 -190 -2 -2 -17 20 -32 48 -32 59 -111
148 -132 148 -7 0 -13 4 -13 9 0 11 -113 66 -165 80 -22 6 -79 11 -127 11
-167 0 -311 -80 -403 -225 -65 -101 -90 -201 -83 -322 4 -58 3 -72 -5 -53 -5
14 -10 68 -10 120 -1 115 28 209 95 305 113 165 334 249 522 200z m776 -18 c0
-2 -17 -19 -37 -38 l-38 -34 34 38 c33 34 41 42 41 34z m7340 -31 c0 -2 -8
-10 -17 -17 -16 -13 -17 -12 -4 4 13 16 21 21 21 13z m-3620 -10 c0 -2 -8 -10
-17 -17 -16 -13 -17 -12 -4 4 13 16 21 21 21 13z m3540 -70 c0 -2 -8 -10 -17
-17 -16 -13 -17 -12 -4 4 13 16 21 21 21 13z m-7380 -10 c0 -2 -8 -10 -17 -17
-16 -13 -17 -12 -4 4 13 16 21 21 21 13z m3760 0 c0 -2 -8 -10 -17 -17 -16
-13 -17 -12 -4 4 13 16 21 21 21 13z m-4829 -63 c13 -16 12 -17 -3 -4 -10 7
-18 15 -18 17 0 8 8 3 21 -13z m989 -17 c0 -2 -8 -10 -17 -17 -16 -13 -17 -12
-4 4 13 16 21 21 21 13z m3760 0 c0 -2 -8 -10 -17 -17 -16 -13 -17 -12 -4 4
13 16 21 21 21 13z m-4515 -216 c88 -88 158 -160 155 -160 -3 0 -77 72 -165
160 -88 88 -158 160 -155 160 3 0 77 -72 165 -160z m685 147 c0 -2 -10 -12
-22 -23 l-23 -19 19 23 c18 21 26 27 26 19z m3760 0 c0 -2 -10 -12 -22 -23
l-23 -19 19 23 c18 21 26 27 26 19z m1608 -37 c53 -30 85 -81 89 -143 3 -29
-2 -200 -10 -382 -9 -181 -13 -332 -11 -335 3 -2 161 -10 352 -17 191 -8 365
-18 388 -24 46 -12 100 -58 116 -98 12 -32 11 -293 -2 -342 -12 -43 -53 -90
-99 -114 -36 -18 -45 -18 -652 11 l-126 6 -7 -103 c-3 -57 -9 -180 -11 -274
-10 -301 -18 -379 -46 -419 -13 -19 -41 -45 -62 -57 -36 -20 -49 -21 -190 -17
-169 5 -206 15 -250 67 -33 40 -46 89 -43 166 2 33 9 192 16 353 7 160 10 295
6 299 -3 4 -91 10 -194 14 -103 4 -245 10 -315 13 -121 5 -128 4 -116 -12 13
-16 12 -16 -7 1 -11 9 -34 17 -50 17 -72 0 -137 40 -170 103 -23 43 -18 280 7
363 12 39 53 78 102 99 34 14 68 14 370 0 183 -8 349 -15 370 -15 l37 0 0 58
c0 91 21 644 26 680 3 18 19 48 36 68 53 60 73 65 251 59 136 -4 164 -7 195
-25z m-1688 -43 c0 -2 -10 -12 -22 -23 l-23 -19 19 23 c18 21 26 27 26 19z
m-3800 -40 c0 -2 -19 -21 -42 -42 l-43 -40 40 43 c36 39 45 47 45 39z m3710
-51 c0 -2 -8 -10 -17 -17 -16 -13 -17 -12 -4 4 13 16 21 21 21 13z m-3830 -69
c0 -2 -10 -12 -22 -23 l-23 -19 19 23 c18 21 26 27 26 19z m3760 0 c0 -2 -10
-12 -22 -23 l-23 -19 19 23 c18 21 26 27 26 19z m-3850 -91 c0 -2 -8 -10 -17
-17 -16 -13 -17 -12 -4 4 13 16 21 21 21 13z m3760 0 c0 -2 -8 -10 -17 -17
-16 -13 -17 -12 -4 4 13 16 21 21 21 13z m-4512 -81 c-3 -3 -9 2 -12 12 -6 14
-5 15 5 6 7 -7 10 -15 7 -18z m665 -8 c-3 -4 -6 -7 -7 -5 -1 2 -8 12 -16 22
-14 18 -14 18 7 6 12 -8 19 -18 16 -23z m7387 18 c-10 -13 -9 -19 6 -38 l18
-22 -24 22 c-20 18 -21 24 -10 37 7 9 15 16 17 16 3 0 0 -7 -7 -15z m-3620 -9
c0 -2 -8 -10 -17 -17 -16 -13 -17 -12 -4 4 13 16 21 21 21 13z m-3735 -36 c10
-11 16 -20 13 -20 -3 0 -13 9 -23 20 -10 11 -16 20 -13 20 3 0 13 -9 23 -20z
m202 -52 c-82 -146 -200 -231 -363 -259 -49 -8 -80 -8 -130 1 -63 12 -66 12
-92 -11 l-27 -24 22 25 22 25 -52 24 c-60 28 -99 52 -94 58 3 2 20 -5 38 -16
19 -11 54 -27 78 -36 41 -14 46 -14 65 2 18 16 19 16 8 1 -12 -15 -9 -18 23
-24 75 -14 213 14 304 60 17 9 33 17 35 17 2 1 22 17 44 37 33 30 38 39 29 52
-10 13 -10 13 4 2 14 -10 20 -7 42 19 14 17 35 50 48 74 13 24 25 42 27 40 3
-2 -12 -32 -31 -67z m3493 48 c0 -2 -8 -10 -17 -17 -16 -13 -17 -12 -4 4 13
16 21 21 21 13z m-4361 -36 c11 -24 11 -24 -3 -6 -9 11 -16 24 -16 30 0 12 5
7 19 -24z m4300 -27 c-6 -7 -14 -13 -17 -13 -3 0 -1 5 6 12 9 9 8 16 -6 32
-17 21 -17 21 5 2 18 -15 20 -22 12 -33z m-3739 23 c0 -2 -8 -10 -17 -17 -16
-13 -17 -12 -4 4 13 16 21 21 21 13z m-712 -28 c-3 -7 -17 -13 -31 -13 -30 -1
-36 11 -9 18 32 9 44 7 40 -5z m4493 -15 c13 -16 12 -17 -3 -4 -10 7 -18 15
-18 17 0 8 8 3 21 -13z m-4631 -23 c0 -5 -9 -10 -20 -10 -11 0 -20 5 -20 10 0
6 9 10 20 10 11 0 20 -4 20 -10z m780 -3 c0 -2 -10 -12 -22 -23 l-23 -19 19
23 c18 21 26 27 26 19z m3760 0 c0 -2 -10 -12 -22 -23 l-23 -19 19 23 c18 21
26 27 26 19z m-6295 -15 c11 -8 18 -32 9 -32 -13 0 -44 21 -44 30 0 12 21 13
35 2z m2116 -9 c13 -16 12 -17 -3 -4 -17 13 -22 21 -14 21 2 0 10 -8 17 -17z
m-511 -12 c0 -5 -11 -11 -25 -13 -17 -4 -25 -1 -25 8 0 8 11 14 25 14 14 0 25
-4 25 -9z m880 -15 c0 -2 -8 -10 -17 -17 -16 -13 -17 -12 -4 4 13 16 21 21 21
13z m795 -406 c225 -225 408 -410 405 -410 -3 0 -190 185 -415 410 -225 226
-408 410 -405 410 3 0 190 -184 415 -410z m-3141 385 c25 -19 16 -28 -17 -20
-17 5 -24 12 -20 21 6 17 13 17 37 -1z m1326 4 c0 -6 -7 -9 -15 -5 -8 3 -15 1
-15 -4 0 -6 -7 -10 -15 -10 -16 0 -20 12 -8 23 11 11 53 8 53 -4z m701 -6 c13
-16 12 -17 -3 -4 -10 7 -18 15 -18 17 0 8 8 3 21 -13z m8508 -5 c69 -110 121
-198 121 -208 0 -6 -26 -50 -58 -98 -32 -48 -61 -95 -65 -105 -9 -24 -32 -16
-32 10 0 11 -7 28 -15 39 -14 18 -14 18 4 4 17 -13 21 -12 42 15 33 41 77 116
71 121 -8 9 -247 9 -247 1 0 -5 -6 -5 -12 0 -7 4 -52 6 -99 5 -70 -3 -87 -1
-92 12 -5 13 6 16 66 18 57 2 71 6 69 18 -3 12 0 12 15 -2 25 -22 293 -27 293
-5 0 8 -22 51 -50 97 -27 46 -50 87 -50 92 0 17 26 7 39 -14z m-849 -2 c0 -2
-8 -10 -17 -17 -16 -13 -17 -12 -4 4 13 16 21 21 21 13z m-8536 -14 c3 -5 -1
-9 -9 -9 -8 0 -15 4 -15 9 0 4 4 8 9 8 6 0 12 -4 15 -8z m36 4 c0 -3 -4 -8
-10 -11 -5 -3 -10 -1 -10 4 0 6 5 11 10 11 6 0 10 -2 10 -4z m1114 -10 c-3 -8
-13 -17 -22 -21 -13 -5 -13 -2 3 15 21 24 26 25 19 6z m3766 10 c0 -2 -8 -10
-17 -17 -16 -13 -17 -12 -4 4 13 16 21 21 21 13z m-5900 -26 c0 -5 -5 -10 -11
-10 -5 0 -7 5 -4 10 3 6 8 10 11 10 2 0 4 -4 4 -10z m870 1 c9 -2 -24 -21 -36
-21 -7 0 -14 6 -17 13 -4 11 19 14 53 8z m1353 2 c-7 -2 -19 -2 -25 0 -7 3 -2
5 12 5 14 0 19 -2 13 -5z m-2256 -9 c-3 -3 -12 -4 -19 -1 -8 3 -5 6 6 6 11 1
17 -2 13 -5z m173 -14 c0 -6 -13 -9 -30 -8 -16 1 -30 6 -30 10 0 4 14 8 30 8
17 0 30 -5 30 -10z m585 0 c3 -5 -3 -10 -14 -10 -12 0 -21 5 -21 10 0 6 6 10
14 10 8 0 18 -4 21 -10z m-439 -11 c2 -4 0 -10 -6 -14 -5 -3 -10 -2 -10 3 0 5
-11 7 -25 4 -14 -2 -25 0 -25 6 0 12 58 13 66 1z m144 -4 c0 -10 -10 -15 -30
-15 -38 0 -39 17 -2 23 15 2 28 5 30 6 1 0 2 -6 2 -14z m145 5 c4 -6 -7 -10
-24 -10 -17 0 -31 5 -31 10 0 6 11 10 24 10 14 0 28 -4 31 -10z m5245 -24 c0
-2 -8 -10 -17 -17 -16 -13 -17 -12 -4 4 13 16 21 21 21 13z m-765 -46 c35 -38
24 -80 -43 -176 -34 -49 -89 -128 -122 -177 l-60 -87 48 -34 c26 -19 90 -66
142 -105 52 -38 96 -68 99 -66 10 11 41 -59 41 -94 0 -30 -11 -52 -51 -107
-66 -90 -83 -104 -130 -104 -32 0 -56 13 -161 92 -68 51 -139 103 -158 116
l-34 24 -29 -33 c-48 -58 -128 -161 -194 -251 -25 -34 -46 -51 -72 -59 -44
-13 -57 -8 -143 58 -45 34 -59 51 -64 79 -7 39 -3 46 172 283 46 63 81 118 77
121 -22 19 -177 131 -241 174 -81 54 -92 69 -92 119 0 47 81 168 132 197 57
32 84 19 257 -121 112 -90 136 -109 142 -109 4 0 26 25 49 56 23 30 44 53 47
50 3 -3 -1 -12 -10 -20 -8 -8 -27 -35 -43 -60 -16 -25 -33 -46 -38 -46 -5 0
-24 11 -42 25 -17 13 -63 46 -101 71 -66 46 -93 65 -152 112 -28 22 -76 29
-96 14 -28 -19 -105 -131 -111 -160 -8 -38 3 -50 167 -174 171 -130 165 -123
145 -150 -23 -32 -53 -72 -113 -150 -29 -37 -53 -70 -53 -73 0 -3 -11 -17 -24
-31 -13 -15 -33 -45 -45 -69 -26 -52 -18 -82 31 -116 18 -13 42 -32 53 -42 26
-24 62 -32 93 -21 25 9 45 34 169 212 32 45 71 101 87 123 16 22 34 38 41 35
12 -4 205 -144 287 -207 64 -50 94 -39 167 61 42 56 53 104 29 128 -9 9 -16 8
-32 -6 -20 -16 -20 -16 -7 1 17 21 25 12 -109 112 -58 43 -121 92 -142 109
l-36 30 21 31 c12 16 42 55 67 86 197 245 209 264 185 309 -8 15 -20 30 -27
33 -7 3 -8 6 -2 6 6 1 19 -8 29 -19z m7409 -1 c-8 -14 -54 -10 -54 4 0 9 10
12 30 9 16 -2 27 -8 24 -13z m-166 -30 c-18 -12 -48 -11 -48 2 0 5 5 7 10 4 6
-3 10 -2 10 3 0 6 9 8 21 5 16 -4 17 -8 7 -14z m-10318 -3 c0 -2 -8 -10 -17
-17 -16 -13 -17 -12 -4 4 13 16 21 21 21 13z m3760 0 c0 -2 -8 -10 -17 -17
-16 -13 -17 -12 -4 4 13 16 21 21 21 13z m6426 -32 c-3 -9 -6 -17 -6 -20 0 -2
-7 0 -17 3 -11 4 -14 3 -9 -5 4 -7 2 -12 -3 -12 -17 0 -13 21 7 36 23 18 35
17 28 -2z m-6496 -37 c0 -2 -10 -12 -22 -23 l-23 -19 19 23 c18 21 26 27 26
19z m-976 -22 c-4 -8 -11 -15 -16 -15 -6 0 -5 6 2 15 7 8 14 15 16 15 2 0 1
-7 -2 -15z m7346 -20 c0 -8 -9 -15 -21 -15 -11 0 -17 -4 -14 -10 3 -5 2 -10
-4 -10 -5 0 -12 4 -16 9 -7 12 29 33 39 24 3 -3 6 -1 6 5 0 7 2 12 5 12 3 0 5
-7 5 -15z m-1749 -42 c13 -16 12 -17 -3 -4 -10 7 -18 15 -18 17 0 8 8 3 21
-13z m-8461 4 c0 -2 -10 -12 -22 -23 l-23 -19 19 23 c18 21 26 27 26 19z
m3760 0 c0 -2 -10 -12 -22 -23 l-23 -19 19 23 c18 21 26 27 26 19z m-798 -56
c-15 -21 -29 -37 -31 -35 -4 4 47 74 54 74 3 0 -8 -18 -23 -39z m7111 -22
c-11 -12 -26 -18 -33 -14 -8 5 -4 14 12 29 30 29 50 14 21 -15z m-10153 -2 c0
-2 -10 -12 -22 -23 l-23 -19 19 23 c18 21 26 27 26 19z m3750 -11 c0 -2 -8
-10 -17 -17 -16 -13 -17 -12 -4 4 13 16 21 21 21 13z m-1120 -36 c0 -5 -2 -10
-4 -10 -3 0 -8 5 -11 10 -3 6 -1 10 4 10 6 0 11 -4 11 -10z m1050 -33 c0 -2
-10 -12 -22 -23 l-23 -19 19 23 c18 21 26 27 26 19z m6380 -5 c0 -17 -38 -44
-45 -33 -3 6 2 11 12 12 12 0 14 2 4 6 -11 5 -11 7 0 14 18 11 29 11 29 1z
m-10150 -6 c0 -2 -8 -10 -17 -17 -16 -13 -17 -12 -4 4 13 16 21 21 21 13z
m-70 -69 c0 -2 -10 -12 -22 -23 l-23 -19 19 23 c18 21 26 27 26 19z m3750 -11
c0 -2 -8 -10 -17 -17 -16 -13 -17 -12 -4 4 13 16 21 21 21 13z m6370 -37 c0
-6 -4 -7 -10 -4 -5 3 -10 -1 -10 -9 0 -17 -12 -21 -23 -9 -9 9 23 44 34 37 5
-3 9 -10 9 -15z m-7090 -13 c0 -2 -7 -7 -16 -10 -8 -3 -12 -2 -9 4 6 10 25 14
25 6z m-3120 -30 c0 -2 -8 -10 -17 -17 -16 -13 -17 -12 -4 4 13 16 21 21 21
13z m3760 0 c0 -2 -8 -10 -17 -17 -16 -13 -17 -12 -4 4 13 16 21 21 21 13z
m-482 -90 c50 -38 92 -70 92 -73 0 -5 -27 12 -71 45 -19 15 -59 44 -87 65 -29
22 -52 41 -52 44 0 3 6 1 13 -4 6 -5 54 -40 105 -77z m6842 22 c0 -7 -7 -22
-15 -32 -12 -16 -18 -17 -27 -8 -8 8 -8 12 -1 12 6 0 13 9 16 20 6 22 27 28
27 8z m-10190 -1 c0 -2 -10 -12 -22 -23 l-23 -19 19 23 c18 21 26 27 26 19z
m3760 -1 c0 -2 -8 -10 -17 -17 -16 -13 -17 -12 -4 4 13 16 21 21 21 13z m-699
-63 c-11 -16 -32 -41 -46 -58 l-27 -30 23 35 c23 36 60 80 66 80 3 0 -5 -12
-16 -27z m-3141 -16 c0 -2 -10 -12 -22 -23 l-23 -19 19 23 c18 21 26 27 26 19z
m3561 -44 c13 -16 12 -17 -3 -4 -10 7 -18 15 -18 17 0 8 8 3 21 -13z m6617
-22 c-12 -20 -38 -29 -38 -13 0 4 7 18 16 31 21 29 42 13 22 -18z m-10228 16
c0 -2 -12 -14 -27 -28 l-28 -24 24 28 c23 25 31 32 31 24z m3110 -46 c-5 -11
-15 -23 -22 -27 -7 -5 -8 -2 -3 7 21 37 44 55 25 20z m620 16 c0 -2 -10 -12
-22 -23 l-23 -19 19 23 c18 21 26 27 26 19z m6423 -105 c-9 -26 -24 -42 -34
-36 -5 3 -2 19 6 35 16 31 39 32 28 1z m-9247 -149 c57 -38 102 -72 100 -78
-5 -19 -38 -17 -59 3 -12 11 -35 27 -52 35 -16 8 -41 25 -54 36 -13 12 -28 21
-33 21 -4 0 -8 -103 -8 -230 0 -223 -1 -230 -20 -230 -19 0 -20 7 -20 225 0
124 -2 225 -4 225 -2 0 -45 -25 -96 -57 -74 -45 -94 -53 -101 -42 -6 10 -1 20
19 36 15 13 30 23 34 23 4 0 42 22 85 50 43 27 84 50 92 50 7 0 60 -30 117
-67z m9177 31 c9 -9 -23 -55 -34 -49 -4 3 -3 17 3 30 11 25 20 30 31 19z
m-445 -154 c22 -52 61 -144 87 -205 48 -113 81 -189 134 -309 17 -37 31 -72
31 -77 0 -5 16 -41 35 -80 19 -39 35 -77 35 -85 0 -7 11 -37 24 -66 39 -85 77
-190 72 -195 -7 -7 -386 50 -410 61 -6 3 12 4 39 1 206 -19 317 -27 321 -22 3
2 -7 25 -21 50 -14 25 -25 51 -25 57 0 5 -9 29 -19 53 -28 61 -54 121 -55 128
-1 3 -11 28 -22 55 -33 76 -83 198 -185 457 -51 130 -96 237 -100 237 -3 0
-58 -66 -120 -146 -63 -81 -121 -154 -130 -164 -9 -10 -18 -21 -20 -26 -2 -5
-38 -54 -79 -109 -41 -55 -132 -178 -203 -273 -71 -95 -128 -175 -126 -177 3
-2 81 -16 174 -32 94 -15 157 -29 140 -31 -37 -3 -364 34 -372 42 -4 3 4 19
18 34 13 15 35 43 49 62 13 19 28 40 32 45 26 32 111 138 210 260 148 182 207
258 406 527 15 20 30 34 33 30 3 -4 24 -50 47 -102z m369 -9 c-7 -18 -16 -27
-25 -24 -11 5 -11 7 0 14 7 5 14 13 14 19 2 18 4 20 13 20 5 0 4 -13 -2 -29z
m-1614 -22 c7 -1 1 -4 -13 -8 -29 -9 -43 -4 -34 10 3 6 13 8 21 5 8 -3 20 -6
26 -7z m-133 -48 c0 -5 -6 -14 -14 -20 -10 -9 -15 -8 -19 3 -3 8 -3 17 0 20 9
9 33 7 33 -3z m-40 -21 c0 -5 -4 -10 -10 -10 -5 0 -10 5 -10 10 0 6 5 10 10
10 6 0 10 -4 10 -10z m1740 -24 c0 -22 -23 -56 -37 -55 -17 1 -17 2 0 6 9 2
17 12 17 21 0 15 -2 15 -10 2 -8 -13 -10 -13 -10 1 0 9 3 19 7 22 7 8 33 10
33 3z m-1857 -44 c-17 -10 -28 -11 -36 -3 -7 7 -2 12 17 17 14 3 26 11 26 18
0 6 5 4 10 -4 7 -11 3 -18 -17 -28z m-109 -51 c7 -11 -22 -23 -35 -15 -5 3 -9
-3 -9 -12 0 -14 -3 -15 -12 -6 -10 10 -10 15 1 21 8 5 21 7 29 3 10 -3 13 -1
8 6 -4 7 -3 12 3 12 5 0 12 -4 15 -9z m-134 -84 c0 -16 -38 -39 -52 -31 -7 4
-2 14 13 25 28 22 39 24 39 6z m1849 -62 c0 -5 -6 1 -14 15 -8 14 -14 30 -14
35 0 6 6 -1 14 -15 8 -14 14 -29 14 -35z m-9787 -25 c44 -13 93 -51 113 -90 9
-18 23 -145 42 -389 15 -199 30 -367 34 -373 5 -7 45 -7 140 1 543 46 611 49
655 22 66 -40 82 -76 95 -205 20 -206 8 -266 -63 -319 -25 -18 -53 -23 -256
-43 -36 -4 -50 -9 -45 -17 5 -9 3 -9 -8 0 -12 9 -56 9 -204 -2 -105 -8 -203
-15 -220 -15 -57 -1 -57 -3 -46 -156 45 -594 45 -582 26 -629 -20 -53 -61 -91
-116 -105 -22 -6 -107 -12 -188 -13 l-147 -2 -38 29 c-21 16 -45 45 -53 65
-15 36 -32 211 -53 541 -6 96 -13 186 -16 199 -6 27 51 28 -447 -10 -152 -12
-292 -18 -311 -15 -50 10 -111 67 -125 118 -14 54 -32 288 -23 320 24 92 80
125 235 138 301 25 507 40 559 40 31 0 59 3 61 8 6 10 -9 252 -33 513 -21 233
-19 255 24 312 39 51 84 65 231 75 72 5 132 10 135 10 3 1 22 -3 42 -8z m7818
1 c0 -14 -41 -41 -52 -35 -15 9 -8 24 15 34 29 12 37 12 37 1z m-141 -117
c-16 -17 -26 -21 -33 -13 -8 7 -4 16 13 30 32 26 48 13 20 -17z m2200 -84 c0
-8 -6 0 -14 19 -8 18 -15 36 -15 40 1 13 29 -45 29 -59z m-2301 4 c-3 -19 -34
-41 -43 -32 -7 7 25 48 38 48 5 0 7 -7 5 -16z m1622 -44 c-11 -16 -26 -33 -32
-36 -7 -4 1 9 16 29 34 44 46 50 16 7z m727 -77 c-5 -5 -47 83 -47 96 1 3 12
-16 26 -42 14 -27 23 -51 21 -54z m-2447 19 c0 -14 -46 -53 -53 -45 -4 3 3 17
15 30 22 23 38 30 38 15z m1660 -22 c-11 -16 -26 -33 -32 -36 -7 -4 1 9 16 29
34 44 46 50 16 7z m810 -54 c0 -12 -5 -7 -19 24 -11 24 -11 24 3 6 9 -11 16
-24 16 -30z m23 -61 c16 -45 14 -65 -2 -22 -16 42 -22 67 -18 67 3 0 12 -20
20 -45z m-893 25 c0 -5 -5 -10 -11 -10 -5 0 -7 5 -4 10 3 6 8 10 11 10 2 0 4
-4 4 -10z m-1700 -3 c0 -10 -41 -49 -46 -44 -9 9 16 47 31 47 8 0 15 -2 15 -3z
m2639 -129 c1 -5 -12 -8 -29 -8 -16 0 -30 5 -30 11 0 7 9 9 21 6 14 -4 19 -2
15 8 -2 7 -2 16 2 20 6 5 20 -18 21 -37z m-116 15 c-7 -2 -19 -2 -25 0 -7 3
-2 5 12 5 14 0 19 -2 13 -5z m-2613 -10 c-1 -15 -37 -56 -42 -47 -9 15 10 54
27 54 8 0 15 -3 15 -7z m-80 -130 c-1 -5 -7 -19 -15 -33 -13 -22 -14 -23 -15
-5 0 17 -2 17 -10 5 -13 -20 -13 -4 0 21 10 18 40 27 40 12z m-3389 -110 c13
-16 12 -17 -3 -4 -10 7 -18 15 -18 17 0 8 8 3 21 -13z m3315 -25 c4 -6 0 -16
-9 -23 -9 -7 -14 -15 -10 -18 3 -4 -1 -7 -10 -7 -13 0 -14 5 -6 30 11 32 23
38 35 18z m-4976 -101 c0 -1 -217 -218 -482 -482 l-483 -480 480 483 c446 448
485 486 485 479z m3560 -11 c0 -2 -8 -10 -17 -17 -16 -13 -17 -12 -4 4 13 16
21 21 21 13z m-80 -80 c0 -2 -8 -10 -17 -17 -16 -13 -17 -12 -4 4 13 16 21 21
21 13z m1346 -37 c32 -6 84 -23 114 -37 76 -37 180 -142 219 -222 l12 -25 -21
25 c-11 14 -39 46 -61 73 -99 117 -281 184 -429 159 -38 -6 -87 -18 -109 -26
-54 -18 -142 -78 -177 -119 -60 -70 -67 -82 -103 -156 -35 -75 -36 -78 -36
-198 0 -80 -3 -114 -9 -100 -17 44 -10 208 13 282 27 89 56 135 132 212 119
120 275 165 455 132z m-1426 -43 c0 -2 -8 -10 -17 -17 -16 -13 -17 -12 -4 4
13 16 21 21 21 13z m-1419 -23 c13 -16 12 -17 -3 -4 -10 7 -18 15 -18 17 0 8
8 3 21 -13z m-216 -98 c72 -47 130 -90 129 -95 -3 -26 -5 -30 -16 -30 -7 0
-60 32 -117 70 -58 39 -108 70 -113 70 -4 0 -8 -125 -8 -278 0 -271 -1 -278
-20 -279 -19 -2 -20 5 -22 240 -1 133 -2 257 -1 275 0 17 -4 32 -9 32 -4 0
-55 -29 -112 -65 -92 -58 -126 -74 -126 -61 0 2 -3 11 -6 19 -4 11 22 32 91
74 54 32 116 70 139 85 22 14 46 27 51 27 6 1 69 -37 140 -84z m3042 79 c-3
-3 -12 -4 -19 -1 -8 3 -5 6 6 6 11 1 17 -2 13 -5z m-4791 -29 c4 -9 -5 -33
-20 -55 -14 -22 -26 -43 -26 -46 0 -4 -15 -27 -33 -53 -63 -88 -82 -81 228
-81 l275 0 0 -25 0 -25 -280 0 c-154 0 -280 -2 -280 -5 0 -3 32 -54 71 -112
53 -78 69 -110 63 -121 -6 -8 -14 -15 -19 -16 -9 -1 -183 251 -184 266 -1 4
30 57 69 118 38 60 77 124 85 140 17 32 42 39 51 15z m884 -266 c0 -248 2
-280 15 -275 9 3 61 35 116 71 81 53 104 64 115 54 8 -6 14 -15 14 -19 0 -8
-237 -166 -265 -176 -7 -3 -57 21 -110 53 -52 32 -111 67 -131 79 -54 32 -61
42 -43 60 14 13 26 8 124 -51 59 -36 109 -65 111 -65 2 0 4 121 4 268 0 148 3
272 7 275 3 4 15 7 25 7 17 0 18 -15 18 -281z m1668 185 c30 -49 63 -102 73
-119 45 -73 45 -68 -6 -147 -26 -40 -60 -91 -76 -114 -22 -32 -26 -44 -16 -54
9 -10 9 -11 -2 -5 -7 4 -16 2 -21 -5 -4 -7 -16 -9 -28 -6 -18 6 -19 10 -9 36
6 17 17 30 24 30 7 0 13 6 13 13 0 7 7 22 15 32 38 50 86 127 82 131 -2 3 -62
5 -133 5 -183 0 -169 2 -153 -18 13 -17 13 -17 -7 0 -17 14 -41 17 -142 17
l-122 0 0 25 c0 25 0 25 96 25 73 0 94 3 88 13 -6 10 -4 10 7 0 9 -9 61 -13
186 -13 95 0 173 2 173 4 0 2 -18 31 -41 65 -24 36 -38 68 -35 77 3 8 2 13 -3
10 -8 -5 -43 37 -54 66 -6 16 8 29 27 24 5 -1 34 -42 64 -92z m752 72 c0 -2
-8 -10 -17 -17 -16 -13 -17 -12 -4 4 13 16 21 21 21 13z m-160 -160 c0 -2 -8
-10 -17 -17 -16 -13 -17 -12 -4 4 13 16 21 21 21 13z m-4540 -161 c19 -19 32
-35 29 -35 -3 0 -20 16 -39 35 -19 19 -32 35 -29 35 3 0 20 -16 39 -35z m4380
1 c0 -2 -8 -10 -17 -17 -16 -13 -17 -12 -4 4 13 16 21 21 21 13z m-4304 -78
l29 -33 -32 29 c-18 17 -33 31 -33 33 0 8 8 1 36 -29z m4224 -2 c0 -2 -8 -10
-17 -17 -16 -13 -17 -12 -4 4 13 16 21 21 21 13z m-4155 -66 c10 -11 16 -20
13 -20 -3 0 -13 9 -23 20 -10 11 -16 20 -13 20 3 0 13 -9 23 -20z m4075 -14
c0 -2 -8 -10 -17 -17 -16 -13 -17 -12 -4 4 13 16 21 21 21 13z m4410 -56 c0
-5 -22 -46 -50 -92 -27 -46 -50 -86 -50 -90 0 -5 99 -8 220 -8 213 0 220 -1
220 -20 0 -19 -7 -20 -225 -20 -124 0 -225 -3 -225 -8 0 -4 25 -46 55 -92 30
-47 54 -89 52 -95 -11 -31 -41 3 -127 138 l-42 68 52 87 c69 113 99 154 111
147 5 -4 9 -10 9 -15z m-8405 -10 c10 -11 16 -20 13 -20 -3 0 -13 9 -23 20
-10 11 -16 20 -13 20 3 0 13 -9 23 -20z m80 -80 c10 -11 16 -20 13 -20 -3 0
-13 9 -23 20 -10 11 -16 20 -13 20 3 0 13 -9 23 -20z m6255 12 c0 -5 -7 -17
-15 -28 -14 -18 -14 -17 -4 9 12 27 19 34 19 19z m-2489 -39 c13 -16 12 -17
-3 -4 -10 7 -18 15 -18 17 0 8 8 3 21 -13z m3664 -33 c-16 -16 -31 -28 -33
-25 -4 4 48 54 57 55 3 0 -8 -13 -24 -30z m-1233 -32 c-47 -69 -117 -127 -199
-166 -72 -34 -82 -36 -182 -36 -87 -1 -118 3 -171 23 -62 22 -164 80 -156 88
2 3 24 -8 47 -23 159 -100 409 -83 559 38 72 58 90 74 90 82 0 3 8 15 17 26
29 34 26 13 -5 -32z m-6095 -12 c-2 -1 -261 -257 -577 -571 l-575 -570 569
572 570 572 -19 23 c-19 22 -18 22 8 -1 15 -14 26 -25 24 -25z m3573 10 c0 -2
-8 -10 -17 -17 -16 -13 -17 -12 -4 4 13 16 21 21 21 13z m3791 -43 c13 -16 12
-17 -3 -4 -10 7 -18 15 -18 17 0 8 8 3 21 -13z m-7306 -23 c10 -11 16 -20 13
-20 -3 0 -13 9 -23 20 -10 11 -16 20 -13 20 3 0 13 -9 23 -20z m5306 3 c13
-16 12 -17 -3 -4 -10 7 -18 15 -18 17 0 8 8 3 21 -13z m-1530 -40 c13 -16 12
-17 -3 -4 -10 7 -18 15 -18 17 0 8 8 3 21 -13z m-3691 -48 c19 -19 32 -35 29
-35 -3 0 -20 16 -39 35 -19 19 -32 35 -29 35 3 0 20 -16 39 -35z m3771 -32
c13 -16 12 -17 -3 -4 -10 7 -18 15 -18 17 0 8 8 3 21 -13z m-3696 -43 c10 -11
16 -20 13 -20 -3 0 -13 9 -23 20 -10 11 -16 20 -13 20 3 0 13 -9 23 -20z m75
-75 c13 -14 21 -25 18 -25 -2 0 -15 11 -28 25 -13 14 -21 25 -18 25 2 0 15
-11 28 -25z m2960 -19 c0 -2 -8 -10 -17 -17 -16 -13 -17 -12 -4 4 13 16 21 21
21 13z m-2875 -66 c10 -11 16 -20 13 -20 -3 0 -13 9 -23 20 -10 11 -16 20 -13
20 3 0 13 -9 23 -20z m85 -85 c13 -14 21 -25 18 -25 -2 0 -15 11 -28 25 -13
14 -21 25 -18 25 2 0 15 -11 28 -25z m2630 -9 c0 -2 -8 -10 -17 -17 -16 -13
-17 -12 -4 4 13 16 21 21 21 13z m-2560 -61 c19 -19 32 -35 29 -35 -3 0 -20
16 -39 35 -19 19 -32 35 -29 35 3 0 20 -16 39 -35z m85 -85 c10 -11 16 -20 13
-20 -3 0 -13 9 -23 20 -10 11 -16 20 -13 20 3 0 13 -9 23 -20z m2315 -14 c0
-2 -8 -10 -17 -17 -16 -13 -17 -12 -4 4 13 16 21 21 21 13z m-2235 -66 c10
-11 16 -20 13 -20 -3 0 -13 9 -23 20 -10 11 -16 20 -13 20 3 0 13 -9 23 -20z
m3776 -37 c13 -16 12 -17 -3 -4 -10 7 -18 15 -18 17 0 8 8 3 21 -13z m-3696
-43 c10 -11 16 -20 13 -20 -3 0 -13 9 -23 20 -10 11 -16 20 -13 20 3 0 13 -9
23 -20z m85 -85 c13 -14 21 -25 18 -25 -2 0 -15 11 -28 25 -13 14 -21 25 -18
25 2 0 15 -11 28 -25z m70 -70 c19 -19 32 -35 29 -35 -3 0 -20 16 -39 35 -19
19 -32 35 -29 35 3 0 20 -16 39 -35z m3750 -10 c13 -14 21 -25 18 -25 -2 0
-15 11 -28 25 -13 14 -21 25 -18 25 2 0 15 -11 28 -25z m4099 -20 c37 -19 77
-66 90 -107 6 -18 18 -121 26 -228 9 -107 22 -264 29 -347 7 -84 15 -155 17
-158 3 -2 73 2 155 10 247 25 577 47 609 41 36 -7 86 -51 109 -95 19 -36 42
-292 31 -348 -4 -20 -22 -50 -44 -72 -45 -45 -88 -57 -231 -66 -52 -4 -165
-13 -250 -21 -85 -8 -192 -18 -238 -21 -45 -3 -85 -9 -87 -13 -3 -5 2 -79 9
-166 41 -460 48 -554 42 -586 -10 -56 -67 -114 -123 -127 -99 -22 -279 -33
-324 -20 -45 14 -95 58 -110 97 -9 23 -32 252 -60 600 -11 142 -13 152 -32
152 -12 0 -71 -4 -131 -10 -492 -44 -582 -50 -607 -45 -49 11 -105 60 -122
107 -24 65 -42 297 -28 341 16 46 45 84 82 103 30 15 279 43 574 64 83 6 160
13 173 15 28 7 28 14 3 278 -44 452 -44 462 -21 513 11 26 17 51 13 57 -3 6
-1 7 6 3 6 -4 23 2 37 13 29 23 61 31 164 41 130 13 209 11 239 -5z m-6219
-39 c0 -2 -8 -10 -17 -17 -16 -13 -17 -12 -4 4 13 16 21 21 21 13z m3527 -85
c66 -43 123 -83 126 -88 3 -5 2 -15 -3 -22 -8 -14 -41 4 -175 95 -27 19 -53
34 -57 34 -5 0 -8 -126 -8 -281 l0 -280 -22 3 -23 3 0 273 c0 149 -4 272 -9
272 -10 0 -167 -94 -205 -123 -23 -17 -25 -17 -34 0 -8 13 -4 22 19 39 52 40
239 152 255 153 9 1 70 -35 136 -78z m-709 37 c119 -197 152 -253 152 -259 0
-5 -17 -34 -38 -66 -21 -32 -52 -78 -68 -102 -16 -24 -34 -53 -40 -63 -7 -11
-16 -24 -21 -29 -11 -11 -43 -1 -43 13 0 6 32 58 70 115 39 57 68 108 65 113
-4 6 -117 10 -281 10 -267 0 -274 0 -274 20 0 20 7 20 275 20 212 0 275 3 275
12 0 7 -15 35 -33 63 -101 151 -109 168 -84 178 22 9 25 8 45 -25z m1922 22
c13 -8 12 -13 -4 -42 -11 -18 -22 -35 -25 -38 -4 -3 -12 -16 -19 -30 -7 -14
-25 -45 -41 -70 -16 -25 -30 -51 -30 -57 -1 -10 59 -13 269 -13 263 0 270 0
270 -20 0 -20 -7 -20 -275 -20 -151 0 -275 -3 -275 -7 0 -8 87 -148 117 -189
21 -28 30 -54 19 -54 -2 0 -11 -2 -18 -5 -10 -4 -37 28 -83 97 -37 57 -76 115
-86 130 -11 15 -19 31 -19 36 0 8 43 80 152 260 22 35 25 36 48 22z m-590
-273 c0 -151 3 -276 6 -279 3 -4 42 19 87 50 140 97 133 94 152 75 9 -8 13
-19 8 -23 -25 -24 -257 -170 -269 -170 -8 0 -77 39 -154 86 -126 77 -139 87
-130 105 6 10 13 19 15 19 3 0 56 -31 118 -69 l112 -69 3 274 2 274 25 0 25 0
0 -273z m-3853 208 c-4 -8 -11 -15 -17 -15 -14 0 -13 27 3 33 16 6 21 1 14
-18z m8 -115 c-3 -5 -2 -10 3 -10 6 0 8 -9 5 -20 -3 -11 -9 -17 -14 -14 -13 7
-11 54 2 54 5 0 7 -4 4 -10z m48 -162 c6 -22 1 -38 -12 -38 -4 0 -8 6 -8 13 0
6 -4 20 -8 30 -5 12 -3 17 8 17 8 0 17 -10 20 -22z m-3395 -112 l71 -114 -70
-106 c-75 -113 -86 -125 -95 -103 -3 8 20 51 50 95 31 45 56 86 56 92 0 6 -78
10 -225 10 -193 0 -225 2 -225 15 0 13 30 15 213 15 116 0 218 4 224 8 9 6 6
17 -12 44 -38 56 -85 138 -85 148 0 6 6 10 14 10 7 0 45 -51 84 -114z m2630
70 c15 -8 36 -24 47 -37 20 -24 20 -24 0 -9 -11 8 -23 19 -26 23 -3 5 -24 15
-45 22 -21 8 -31 14 -21 15 10 0 30 -6 45 -14z m816 -98 c8 -30 7 -38 -2 -38
-12 0 -33 40 -27 50 10 17 22 11 29 -12z m-1481 -19 c12 -7 47 -33 77 -59 30
-26 69 -55 85 -66 17 -10 32 -21 35 -24 26 -27 102 -80 108 -76 5 3 33 37 62
75 30 39 56 69 58 66 6 -6 -109 -175 -119 -175 -4 0 -52 33 -106 74 -174 129
-238 168 -267 160 -35 -8 -138 -149 -134 -183 3 -26 13 -35 221 -195 l116 -90
-32 -40 c-18 -22 -39 -50 -47 -62 -8 -12 -49 -67 -91 -121 -93 -121 -101 -136
-97 -176 2 -24 14 -40 53 -70 121 -92 135 -88 236 62 39 58 83 120 98 138 14
17 39 50 55 72 17 23 36 41 44 41 13 0 51 -25 102 -67 27 -22 184 -137 212
-155 15 -10 33 -18 41 -18 19 0 65 48 110 112 53 78 46 91 -109 203 -68 50
-133 97 -144 107 -12 9 -31 23 -42 30 -21 14 -20 17 58 114 183 227 204 258
204 300 0 29 3 35 10 24 17 -27 11 -61 -18 -99 -16 -20 -52 -72 -82 -116 -29
-44 -71 -106 -92 -138 -22 -32 -38 -60 -36 -61 1 -1 21 -16 43 -32 22 -16 42
-31 45 -34 13 -13 98 -78 124 -94 52 -33 111 -100 114 -128 2 -32 -24 -82 -76
-147 -55 -69 -57 -70 -99 -77 -34 -5 -45 -1 -90 33 -29 21 -64 47 -79 58 -16
11 -52 39 -81 63 -29 23 -56 42 -60 42 -4 0 -18 10 -31 23 l-24 22 -25 -30
c-13 -16 -32 -42 -41 -56 -10 -14 -29 -41 -45 -60 -15 -19 -54 -69 -87 -111
-93 -121 -122 -126 -226 -45 -69 53 -69 53 -69 103 1 46 6 57 80 156 119 159
160 218 160 230 0 6 -36 35 -80 64 -44 29 -102 71 -130 92 -27 22 -60 45 -72
51 -27 14 -53 60 -53 95 0 39 93 174 135 195 27 13 72 13 98 0z m-3319 -98 c1
-17 3 -31 6 -31 3 0 14 -26 24 -57 10 -32 26 -83 36 -113 32 -100 131 -413
156 -495 13 -44 36 -118 50 -165 14 -47 36 -122 49 -167 27 -98 32 -95 -95
-57 -47 14 -112 32 -145 40 -105 26 -137 35 -133 40 4 3 111 -17 295 -54 24
-5 45 -7 47 -4 3 2 -1 20 -9 40 -8 19 -21 58 -29 86 -8 28 -35 121 -61 206
-26 85 -60 200 -76 255 -17 55 -41 138 -55 185 -14 47 -31 105 -38 130 -28
100 -51 170 -56 170 -6 0 -88 -83 -207 -209 -48 -52 -104 -110 -123 -131 -46
-48 -177 -192 -230 -255 -24 -27 -81 -90 -128 -140 l-85 -90 34 -8 c19 -5 63
-17 99 -27 36 -11 98 -27 138 -36 105 -25 81 -29 -35 -6 -54 11 -140 28 -191
38 -64 12 -92 21 -90 30 4 15 175 199 353 378 208 210 456 476 464 497 6 20
34 -19 35 -50z m4873 -26 c13 -30 -2 -35 -23 -7 -17 22 -17 32 -1 32 6 0 17
-11 24 -25z m-1024 -77 c-65 -91 -103 -140 -103 -131 0 10 128 183 135 183 3
0 -12 -24 -32 -52z m-3965 -48 c-7 -11 -17 -20 -22 -20 -5 0 -1 9 9 20 10 11
20 20 22 20 2 0 -2 -9 -9 -20z m5062 6 c0 -8 8 -16 18 -18 16 -3 16 -4 0 -10
-11 -5 -22 1 -32 18 -15 21 -15 24 -1 24 8 0 15 -6 15 -14z m-1530 -33 c0 -7
-39 17 -46 28 -3 6 5 3 20 -6 14 -10 26 -19 26 -22z m41 -30 c13 -16 12 -17
-3 -4 -17 13 -22 21 -14 21 2 0 10 -8 17 -17z m104 -71 c11 -6 15 -12 8 -12
-7 0 -22 10 -35 23 -13 12 -17 17 -8 11 8 -6 24 -16 35 -22z m1501 -11 c-10
-15 -29 -2 -22 15 3 8 2 13 -2 13 -17 -3 -23 2 -16 12 4 7 13 4 26 -9 11 -11
17 -25 14 -31z m-5037 -26 l0 -20 -9 20 c-5 11 -9 27 -9 35 -1 13 0 13 9 0 5
-8 9 -24 9 -35z m3664 0 c-3 -9 -8 -14 -10 -11 -3 3 -2 9 2 15 9 16 15 13 8
-4z m-3644 -75 c0 -10 -3 -8 -9 5 -12 27 -12 43 0 25 5 -8 9 -22 9 -30z m5125
18 c18 -30 -4 -33 -32 -4 l-27 28 24 -4 c13 -2 29 -11 35 -20z m-1544 -32 c0
-2 -8 -10 -17 -17 -16 -13 -17 -12 -4 4 13 16 21 21 21 13z m185 -56 c28 -21
59 -48 70 -61 l20 -24 -21 18 c-11 9 -24 17 -28 17 -7 0 -136 101 -136 107 0
7 45 -20 95 -57z m-3736 -25 c0 -5 -4 -3 -9 5 -5 8 -9 22 -9 30 0 16 17 -16
18 -35z m3510 26 c-8 -10 -40 -55 -73 -100 -32 -45 -60 -80 -63 -77 -4 4 26
46 105 149 35 44 60 68 31 28z m1696 -1 c10 -11 16 -22 13 -25 -8 -9 -38 6
-32 16 3 5 -2 9 -11 9 -9 0 -13 5 -10 10 9 15 20 12 40 -10z m1376 -87 c80
-86 172 -187 254 -278 44 -50 103 -115 130 -145 91 -100 211 -235 231 -259 10
-13 47 -55 82 -93 34 -38 62 -73 62 -78 0 -12 -17 -16 -165 -40 -71 -11 -152
-25 -178 -30 -27 -6 -56 -10 -65 -9 -21 0 245 68 273 69 11 1 33 6 49 13 l29
13 -139 155 c-76 85 -164 183 -194 218 -30 35 -66 76 -78 90 -13 14 -43 48
-65 75 -54 64 -136 157 -156 177 -9 10 -36 42 -61 73 -25 31 -48 56 -51 56 -4
0 -19 -35 -34 -77 -31 -90 -67 -176 -63 -152 6 35 83 269 89 269 3 0 26 -21
50 -47z m-1248 3 c19 -15 23 -36 6 -36 -5 0 -7 5 -4 10 3 6 -3 10 -14 10 -21
0 -35 13 -24 24 9 9 16 7 36 -8z m-5312 -22 c5 -15 8 -29 5 -31 -2 -2 -8 10
-14 26 -13 38 -5 41 9 5z m-592 -1 c-38 -49 -53 -53 -23 -8 9 14 21 25 26 25
6 0 4 -8 -3 -17z m4451 -8 c11 -13 10 -14 -4 -9 -9 3 -16 10 -16 15 0 13 6 11
20 -6z m1564 -39 c-4 -11 0 -13 15 -9 15 4 21 1 21 -11 0 -19 -5 -20 -31 -6
-20 11 -27 40 -9 40 5 0 7 -6 4 -14z m-5407 -18 c-3 -8 -6 -5 -6 6 -1 11 2 17
5 13 3 -3 4 -12 1 -19z m-684 -12 c-10 -13 -20 -22 -22 -20 -4 4 29 44 36 44
2 0 -4 -11 -14 -24z m-43 -51 c-7 -9 -15 -13 -18 -10 -3 2 1 11 8 20 7 9 15
13 18 10 3 -2 -1 -11 -8 -20z m6296 11 c24 -18 17 -26 -18 -19 -17 3 -25 10
-21 19 7 18 14 18 39 0z m-5549 -18 c-3 -8 -6 -5 -6 6 -1 11 2 17 5 13 3 -3 4
-12 1 -19z m6598 -28 c10 -11 16 -20 13 -20 -3 0 -13 9 -23 20 -10 11 -16 20
-13 20 3 0 13 -9 23 -20z m-7375 6 c0 -2 -8 -10 -17 -17 -16 -13 -17 -12 -4 4
13 16 21 21 21 13z m6466 -16 c8 0 14 -7 14 -15 0 -8 -4 -15 -10 -15 -5 0 -10
5 -10 11 0 5 -4 8 -9 5 -5 -3 -15 2 -22 11 -12 15 -12 16 4 10 10 -4 25 -7 33
-7z m-6519 -45 c0 -8 -4 -15 -9 -15 -10 0 -11 14 -1 23 9 10 10 9 10 -8z
m6638 5 c3 -5 1 -10 -4 -10 -6 0 -11 5 -11 10 0 6 2 10 4 10 3 0 8 -4 11 -10z
m-5778 -22 c-3 -8 -6 -5 -6 6 -1 11 2 17 5 13 3 -3 4 -12 1 -19z m5820 -1 c-1
-5 -6 -8 -10 -8 -4 1 -17 1 -29 1 -18 0 -20 2 -9 9 18 12 52 10 48 -2z m505
-84 c-25 -74 -41 -124 -58 -188 -2 -5 -12 -37 -23 -70 -59 -179 -141 -442
-141 -454 0 -10 9 -12 33 -8 17 3 88 15 157 26 69 12 136 24 150 27 14 3 22 3
18 -1 -3 -4 -53 -17 -110 -30 -57 -13 -143 -32 -193 -44 -49 -11 -95 -21 -101
-21 -11 0 41 166 126 400 23 63 43 122 45 130 2 8 17 49 33 90 16 41 41 112
57 158 15 46 29 81 32 78 3 -2 -9 -44 -25 -93z m-366 57 c8 0 14 -4 14 -10 0
-12 -57 -13 -64 -1 -8 12 6 22 22 16 7 -3 20 -5 28 -5z m-5939 -42 c-3 -8 -6
-5 -6 6 -1 11 2 17 5 13 3 -3 4 -12 1 -19z m1053 -543 c278 -278 503 -505 500
-505 -3 0 -232 227 -510 505 -278 278 -503 505 -500 505 3 0 232 -227 510
-505z m-1011 413 c1 -5 -3 -8 -7 -8 -4 0 -8 12 -9 28 -1 23 -1 24 7 7 5 -11 9
-23 9 -27z m6741 -3 c19 -19 32 -35 29 -35 -3 0 -20 16 -39 35 -19 19 -32 35
-29 35 3 0 20 -16 39 -35z m1430 -210 c124 -124 223 -225 220 -225 -3 0 -106
101 -230 225 -124 124 -223 225 -220 225 3 0 106 -101 230 -225z m-3845 145
c10 -11 16 -20 13 -20 -3 0 -13 9 -23 20 -10 11 -16 20 -13 20 3 0 13 -9 23
-20z m-1031 -11 c-3 -5 -10 -7 -15 -3 -5 3 -7 10 -3 15 3 5 10 7 15 3 5 -3 7
-10 3 -15z m3511 1 c10 -11 16 -20 13 -20 -3 0 -13 9 -23 20 -10 11 -16 20
-13 20 3 0 13 -9 23 -20z m51 -62 l29 -33 -32 29 c-31 28 -38 36 -30 36 2 0
16 -15 33 -32z m-3654 -38 c-13 -14 -22 -18 -27 -11 -3 6 1 14 9 17 9 3 16 13
16 22 0 12 3 13 11 5 8 -8 6 -17 -9 -33z m3718 -35 l25 -30 -27 24 c-16 14
-28 29 -28 34 0 6 1 8 3 6 1 -2 13 -17 27 -34z m-830 21 c0 -2 -8 -10 -17 -17
-16 -13 -17 -12 -4 4 13 16 21 21 21 13z m-2965 -66 c6 -10 -33 -55 -41 -47
-9 9 8 37 19 30 6 -4 8 0 4 10 -7 18 8 24 18 7z m3864 -31 c18 -22 27 -37 20
-33 -17 7 -74 74 -62 73 4 0 23 -18 42 -40z m2482 -137 c5 -58 2 -63 -145
-277 -27 -38 -60 -83 -73 -98 -13 -16 -21 -33 -17 -38 5 -9 193 -146 271 -197
40 -27 67 -83 58 -120 -8 -32 -108 -168 -134 -181 -33 -18 -86 -13 -119 12
-17 12 -46 33 -64 46 -32 23 -31 22 7 -20 22 -24 2 -7 -45 37 -75 70 -169 144
-184 144 -4 0 -139 -173 -228 -291 -31 -41 -77 -64 -112 -55 -13 3 -47 24 -75
46 -28 22 -55 40 -60 40 -15 0 -33 67 -25 92 4 13 25 47 48 77 23 29 50 66 61
81 11 16 49 68 83 116 l64 87 -29 23 c-24 20 -144 105 -217 154 -113 76 -122
119 -47 227 79 112 126 130 201 78 23 -16 94 -71 158 -122 65 -51 122 -93 127
-93 6 0 30 27 54 60 24 33 45 60 48 60 7 0 -92 -139 -100 -140 -7 0 -35 19
-227 155 -61 44 -115 75 -129 75 -31 0 -115 -86 -106 -109 3 -8 3 -12 -1 -8
-9 9 -44 -42 -44 -65 0 -23 30 -52 130 -128 118 -90 195 -152 198 -160 1 -4
-11 -24 -27 -46 -17 -21 -42 -55 -56 -74 -14 -19 -45 -60 -68 -90 -54 -68
-102 -139 -110 -163 -9 -24 10 -70 25 -61 6 4 8 3 5 -3 -3 -5 3 -16 15 -24 11
-8 36 -26 56 -41 22 -18 47 -28 68 -28 38 0 59 23 170 185 37 55 83 118 101
139 38 46 39 52 16 80 -10 12 3 3 28 -19 26 -22 63 -51 84 -65 20 -14 52 -37
70 -52 18 -16 35 -28 39 -28 3 0 32 -20 65 -45 70 -53 101 -67 124 -54 9 5 39
40 67 76 62 84 66 120 18 155 -18 12 -37 26 -43 30 -65 52 -179 138 -184 138
-3 1 -23 15 -44 33 l-37 32 71 90 c39 50 78 99 88 110 9 12 41 51 69 89 53 68
67 100 35 75 -11 -8 -9 -3 4 11 25 29 19 47 -31 93 -28 26 -26 25 12 -3 23
-17 43 -39 43 -48z m-6449 30 c-7 -2 -12 -11 -12 -20 0 -12 -3 -13 -12 -4 -9
9 -7 16 8 30 11 11 21 15 23 9 2 -6 -1 -13 -7 -15z m3135 -14 c-3 -8 -6 -5 -6
6 -1 11 2 17 5 13 3 -3 4 -12 1 -19z m-3227 -118 c0 -13 -5 -18 -15 -14 -12 5
-13 10 -4 20 15 19 19 18 19 -6z m-60 -90 c0 -5 -4 -10 -10 -10 -5 0 -10 -9
-10 -20 0 -11 -4 -20 -10 -20 -13 0 -13 3 2 35 11 25 28 34 28 15z m2109 -104
l46 -46 -4 -248 c-2 -136 -5 -313 -8 -394 l-5 -146 54 -6 c29 -3 193 -10 363
-16 348 -13 369 -17 421 -86 29 -37 29 -39 28 -173 -1 -190 -7 -223 -52 -270
-58 -61 -69 -62 -473 -44 -198 9 -361 14 -363 12 -2 -2 -11 -170 -20 -372 -17
-406 -19 -415 -84 -465 l-36 -27 -169 2 c-199 3 -233 15 -276 92 l-24 44 12
346 c7 190 14 358 17 373 7 34 1 35 -251 43 -474 16 -519 21 -569 64 -44 39
-50 68 -47 230 3 203 22 251 116 287 40 15 71 15 405 -1 199 -9 363 -15 365
-13 2 1 11 169 20 372 14 318 18 373 34 405 43 84 68 92 280 87 l174 -4 46
-46z m3821 -3 c0 -7 -39 17 -46 28 -3 6 5 3 20 -6 14 -10 26 -19 26 -22z m-50
-70 c0 -8 -9 0 -50 45 l-45 47 48 -45 c26 -24 47 -45 47 -47z m460 84 c0 -2
-10 -12 -22 -23 l-23 -19 19 23 c18 21 26 27 26 19z m-6425 -54 c-5 -10 -8
-21 -7 -25 1 -4 -5 -5 -13 -2 -12 5 -12 9 2 30 17 27 30 25 18 -3z m-63 -125
c-6 -6 -15 -8 -19 -4 -4 4 -1 11 7 16 19 12 27 3 12 -12z m6306 -5 c-12 -15
-22 -18 -14 -4 4 5 0 11 -6 14 -7 3 -3 4 9 4 17 -1 19 -4 11 -14z m-148 -28
c13 -14 21 -25 18 -25 -2 0 -15 11 -28 25 -13 14 -21 25 -18 25 2 0 15 -11 28
-25z m-6160 11 c0 -11 -19 -15 -25 -6 -3 5 1 10 9 10 9 0 16 -2 16 -4z m6252
-39 c-26 -27 -30 -36 -20 -47 11 -12 10 -12 -4 -1 -14 11 -22 5 -57 -48 -23
-33 -47 -63 -53 -67 -7 -4 -5 2 5 13 20 23 22 37 5 27 -7 -4 7 14 31 39 29 30
42 51 37 62 -3 9 -2 14 4 10 6 -4 24 5 41 19 43 36 49 32 11 -7z m-7397 -26
c3 -5 2 -12 -3 -15 -5 -3 -9 1 -9 9 0 17 3 19 12 6z m7625 -48 c0 -7 -58 36
-66 49 -4 7 9 -1 29 -16 20 -16 37 -30 37 -33z m-6530 17 c0 -5 -6 -10 -12
-11 -10 0 -10 -2 0 -6 10 -4 10 -8 1 -19 -17 -21 -30 -6 -17 21 11 25 28 34
28 15z m2605 2 c-3 -3 2 -14 12 -24 24 -27 10 -22 -15 5 -17 18 -19 24 -7 24
8 0 13 -3 10 -5z m-3585 -87 c35 -36 62 -65 59 -65 -2 0 -34 29 -69 65 -35 36
-62 65 -59 65 2 0 34 -29 69 -65z m7571 28 c10 -12 5 -11 -18 6 -18 12 -33 24
-33 27 0 9 37 -15 51 -33z m2398 -14 c-22 -14 -33 -10 -19 6 7 8 17 12 22 9 6
-4 5 -10 -3 -15z m-2849 -32 c0 -2 -15 -16 -32 -33 l-33 -29 29 33 c28 30 36
37 36 29z m-6202 -38 c-10 -5 -18 -17 -18 -26 0 -9 -3 -14 -6 -10 -11 11 7 47
24 47 16 -1 15 -2 0 -11z m8960 -8 c-7 -11 -16 -17 -21 -14 -4 3 0 11 10 19
24 18 25 17 11 -5z m-2758 -5 c0 -2 -8 -10 -17 -17 -16 -13 -17 -12 -4 4 13
16 21 21 21 13z m-7802 -58 c129 -86 200 -127 209 -120 4 4 -3 -5 -16 -20 -21
-24 -26 -26 -40 -14 -29 25 -201 136 -211 136 -7 0 -10 -61 -9 -185 1 -170 3
-185 18 -173 13 10 13 9 -1 -8 -14 -16 -18 -39 -18 -101 0 -84 -3 -95 -26 -86
-12 4 -14 53 -14 274 0 289 0 288 -50 249 -14 -11 -31 -20 -37 -20 -7 0 -13
-4 -13 -8 0 -5 -12 -15 -27 -23 -16 -8 -30 -16 -33 -19 -16 -16 -72 -40 -80
-35 -17 11 -11 31 13 43 12 6 74 45 137 86 63 41 116 75 118 75 2 1 38 -22 80
-51z m763 -34 c89 -60 129 -92 129 -105 0 -26 -25 -24 -64 6 -18 14 -36 25
-39 25 -3 0 -32 18 -63 40 -32 22 -63 40 -71 40 -10 0 -13 -53 -13 -276 l0
-275 -22 3 -23 3 -2 268 c0 148 -3 270 -5 273 -3 2 -33 -14 -67 -36 -34 -22
-64 -40 -67 -40 -2 0 -22 -12 -44 -26 -39 -26 -70 -27 -70 -2 0 7 48 42 106
78 59 36 121 75 138 87 17 12 35 22 39 22 5 1 66 -38 138 -85z m-1342 -46 c41
-62 76 -119 78 -128 2 -8 -14 -43 -36 -78 -23 -34 -41 -65 -41 -67 0 -8 -70
-114 -79 -119 -5 -3 -14 0 -19 7 -8 10 4 38 47 112 33 55 57 103 54 107 -2 4
-110 7 -240 7 -230 -1 -273 5 -247 31 6 6 112 11 256 12 l247 3 -64 99 c-50
76 -62 102 -54 113 6 7 14 13 18 13 3 0 39 -51 80 -112z m-889 -148 c0 -137 2
-250 5 -250 3 0 11 5 18 10 20 18 179 121 181 118 1 -2 7 -10 14 -20 11 -14
-1 -25 -100 -90 -62 -41 -118 -78 -124 -81 -12 -7 -41 9 -199 103 -76 45 -82
53 -66 79 8 12 16 10 48 -12 22 -15 42 -27 45 -27 3 0 29 -16 58 -35 29 -19
56 -35 61 -35 5 0 9 107 9 245 l0 245 25 0 25 0 0 -250z m11947 224 c-3 -3
-12 -4 -19 -1 -8 3 -5 6 6 6 11 1 17 -2 13 -5z m-9327 -340 c162 -163 289
-293 283 -290 -9 5 -13 0 -13 -13 0 -11 -4 -23 -10 -26 -6 -4 -10 5 -10 19 0
14 6 26 12 26 7 0 -118 131 -277 290 -159 160 -288 290 -285 290 3 0 138 -133
300 -296z m400 266 c-6 -4 -11 -11 -10 -16 1 -5 -3 -9 -10 -10 -6 -2 -6 0 -1
2 6 3 7 12 4 21 -3 8 0 19 8 24 9 5 15 4 18 -2 2 -6 -2 -15 -9 -19z m8810 -5
c-7 -9 -15 -13 -17 -11 -7 7 7 26 19 26 6 0 6 -6 -2 -15z m-91 -56 c-24 -15
-45 -11 -24 5 11 8 24 12 28 9 5 -3 3 -9 -4 -14z m-1914 -49 c10 -11 16 -20
13 -20 -3 0 -13 9 -23 20 -10 11 -16 20 -13 20 3 0 13 -9 23 -20z m1805 0
c-24 -15 -36 -11 -14 4 10 8 21 12 24 10 2 -3 -2 -9 -10 -14z m-8654 -27 c-2
-15 -8 -29 -15 -31 -12 -4 -13 3 -5 36 9 31 23 28 20 -5z m8554 -12 c0 -9 -41
-23 -49 -16 -3 4 28 20 47 24 1 1 2 -3 2 -8z m-1760 -70 c0 -4 -11 -6 -25 -3
-14 2 -25 6 -25 8 0 2 11 4 25 4 14 0 25 -4 25 -9z m1530 -11 c0 -5 -2 -10 -4
-10 -3 0 -8 5 -11 10 -3 6 -1 10 4 10 6 0 11 -4 11 -10z m-1435 -18 c-3 -3
-11 0 -18 7 -9 10 -8 11 6 5 10 -3 15 -9 12 -12z m-6935 -66 c-8 -8 -9 -4 -6
14 2 14 6 32 7 40 1 8 4 2 6 -14 3 -16 0 -33 -7 -40z m7063 51 c4 3 7 0 7 -8
0 -8 109 -124 243 -259 l242 -245 -261 255 c-143 140 -262 259 -262 264 -1 5
4 3 11 -3 8 -6 17 -8 20 -4z m1182 3 c-28 -12 -37 -12 -30 0 3 6 16 10 28 9
21 0 21 -1 2 -9z m-935 -40 c0 -5 -7 -10 -15 -10 -8 0 -15 5 -15 10 0 6 7 10
15 10 8 0 15 -4 15 -10z m717 4 c-3 -3 -12 -4 -19 -1 -8 3 -5 6 6 6 11 1 17
-2 13 -5z m-607 -14 c0 -13 -11 -13 -30 0 -12 8 -11 10 8 10 12 0 22 -4 22
-10z m120 -6 c0 -2 -9 -4 -20 -4 -11 0 -20 4 -20 9 0 5 9 7 20 4 11 -3 20 -7
20 -9z m340 6 c0 -5 -4 -10 -10 -10 -5 0 -10 5 -10 10 0 6 5 10 10 10 6 0 10
-4 10 -10z m-97 -7 c-7 -2 -21 -2 -30 0 -10 3 -4 5 12 5 17 0 24 -2 18 -5z
m-7793 -90 c-1 -21 -13 -53 -21 -53 -10 0 -12 43 -2 53 9 9 23 9 23 0z m105
-263 c10 -11 16 -20 13 -20 -3 0 -13 9 -23 20 -10 11 -16 20 -13 20 3 0 13 -9
23 -20z m-145 -44 c0 -14 -4 -28 -10 -31 -6 -4 -10 7 -10 24 0 17 5 31 10 31
6 0 10 -11 10 -24z m7631 -83 c13 -16 12 -17 -3 -4 -10 7 -18 15 -18 17 0 8 8
3 21 -13z m-2630 -79 c71 -47 129 -89 129 -93 0 -5 -6 -13 -13 -19 -10 -8 -40
6 -120 59 -59 38 -112 69 -118 69 -6 0 -10 -42 -9 -117 1 -65 1 -189 1 -275
l-1 -158 -25 0 -25 0 0 266 c0 147 -1 269 -4 271 -3 3 -75 -37 -147 -82 -66
-41 -82 -47 -90 -33 -5 7 -9 16 -9 20 0 10 272 178 288 178 8 0 72 -38 143
-86z m599 51 c0 -7 -31 -60 -70 -119 -38 -58 -70 -108 -70 -111 0 -2 125 -6
278 -7 l277 -3 3 -22 3 -23 -275 -2 -276 -3 46 -75 c26 -41 58 -94 71 -117
l23 -42 -22 -6 c-13 -5 -24 -2 -29 6 -31 49 -148 238 -158 254 -12 19 -6 31
52 120 107 162 116 175 132 168 8 -3 15 -11 15 -18z m810 10 c9 -11 -1 -34
-59 -121 -39 -58 -71 -110 -71 -115 0 -5 124 -9 275 -9 l275 0 0 -25 0 -25
-274 0 -275 0 70 -112 c38 -62 69 -116 69 -120 0 -7 -40 -22 -44 -16 -2 1 -19
30 -38 63 -57 97 -102 169 -115 183 -7 7 -13 21 -13 30 0 23 166 281 181 282
4 0 12 -7 19 -15z m-2300 -280 c0 -157 4 -275 9 -275 5 0 57 32 116 71 96 64
108 70 122 56 14 -14 11 -18 -28 -44 -24 -15 -45 -31 -47 -35 -2 -5 -8 -8 -13
-8 -7 0 -95 -56 -109 -70 -3 -3 -18 -12 -35 -21 -30 -17 -30 -17 -125 42 -52
32 -109 66 -127 75 -46 23 -67 48 -50 62 10 9 26 3 68 -23 29 -19 72 -44 94
-56 22 -12 42 -25 45 -30 3 -4 11 -9 18 -11 11 -2 13 50 12 270 l-1 272 26 0
25 0 0 -275z m-4112 233 c-4 -41 -23 -39 -24 2 -1 20 4 30 13 30 10 0 13 -10
11 -32z m2 -148 c0 -20 -5 -30 -15 -30 -10 0 -15 10 -15 30 0 20 5 30 15 30
10 0 15 -10 15 -30z m-1439 -104 c62 -13 87 -23 176 -70 56 -30 161 -158 177
-216 4 -15 -2 -9 -15 15 -12 22 -52 69 -88 106 -55 53 -82 71 -151 100 -78 31
-93 34 -190 34 -92 0 -114 -4 -175 -28 -93 -37 -170 -98 -227 -181 -69 -100
-92 -177 -92 -306 0 -59 -3 -92 -7 -75 -12 56 -9 191 6 250 47 179 204 331
382 369 87 19 123 19 204 2z m1435 -33 c-4 -9 -1 -20 6 -25 10 -6 8 -8 -4 -8
-13 0 -18 8 -18 25 0 14 5 25 11 25 6 0 8 -7 5 -17z m886 -107 c34 -63 80
-135 93 -146 8 -7 17 -27 21 -45 5 -29 -2 -46 -61 -134 -37 -56 -70 -101 -73
-101 -4 0 -13 4 -20 9 -11 6 -6 19 22 58 20 28 36 54 36 59 0 5 11 22 25 38
14 16 25 33 25 37 0 5 -100 7 -222 4 -221 -5 -244 -2 -232 29 3 8 69 11 207
10 111 0 210 2 220 6 17 5 16 8 -5 40 -45 67 -88 147 -81 153 13 14 32 6 45
-17z m-876 -31 c-3 -8 -1 -15 4 -15 6 0 10 -7 10 -16 0 -9 -6 -14 -12 -12 -17
6 -23 58 -8 58 7 0 10 -7 6 -15z m8585 -17 c1 -18 0 -120 -1 -225 -1 -134 2
-193 9 -193 6 0 49 25 96 56 76 50 105 59 105 34 0 -7 -145 -107 -208 -144
-12 -7 -47 11 -182 95 -80 50 -75 45 -60 63 10 14 16 13 44 -7 52 -37 139 -87
151 -87 3 0 5 99 5 220 0 213 1 220 20 220 16 0 20 -7 21 -32z m-8568 -130
c-4 -19 -3 -20 6 -8 9 13 11 11 11 -7 0 -27 -16 -38 -24 -17 -9 23 -7 54 3 54
5 0 7 -10 4 -22z m35 -158 c1 -18 -3 -30 -10 -30 -6 0 -9 3 -5 6 3 3 2 17 -3
30 -7 17 -6 24 3 24 7 0 14 -13 15 -30z m42 -146 c0 -16 -5 -24 -12 -22 -18 6
-19 48 -2 48 8 0 14 -11 14 -26z m34 -130 c8 -29 3 -39 -12 -30 -6 3 -8 16 -4
28 4 16 2 19 -8 13 -9 -5 -11 -4 -6 3 12 19 23 14 30 -14z m-1266 -90 c-80
-111 -196 -186 -314 -202 -158 -22 -311 27 -421 135 -32 30 -51 50 -41 44 9
-7 32 -27 51 -45 67 -63 206 -116 306 -116 105 0 248 46 312 100 49 42 119
113 119 122 0 4 5 8 11 8 5 0 -5 -21 -23 -46z m1302 -34 c0 -5 -5 -10 -11 -10
-5 0 -7 5 -4 10 3 6 8 10 11 10 2 0 4 -4 4 -10z m14 -41 c-8 -14 -24 -10 -24
6 0 9 6 12 15 9 8 -4 12 -10 9 -15z m47 -115 c12 -34 9 -36 -15 -13 -15 14
-16 19 -5 19 12 0 11 2 -1 10 -10 7 -11 10 -2 10 7 0 17 -12 23 -26z m49 -124
c0 -5 -4 -10 -9 -10 -6 0 -13 5 -16 10 -3 6 1 10 9 10 9 0 16 -4 16 -10z"/>
<path d="M8250 10435 c-68 -30 -70 -40 -86 -429 -8 -193 -17 -369 -19 -391
l-5 -40 -148 7 c-353 18 -609 24 -636 17 -34 -10 -75 -45 -86 -74 -11 -30 -16
-267 -6 -284 7 -10 6 -12 -4 -6 -9 6 -10 2 -5 -16 17 -56 66 -103 102 -98 10
1 25 -1 33 -4 19 -7 468 -27 618 -27 61 0 113 -3 115 -7 3 -5 1 -78 -3 -163
-5 -85 -12 -261 -15 -392 -7 -216 -6 -239 11 -266 25 -44 78 -59 227 -65 109
-5 134 -3 170 12 77 33 75 16 101 739 2 57 7 106 10 109 3 4 133 1 289 -5 411
-18 492 -16 532 8 48 30 57 60 62 217 3 120 1 149 -13 178 -33 71 -44 73 -612
91 -128 4 -235 11 -238 16 -3 5 -1 122 5 261 6 139 12 315 13 392 4 208 -8
220 -237 229 -114 5 -147 3 -175 -9z m220 -202 c30 -60 61 -121 68 -137 l13
-29 -146 5 c-80 4 -149 8 -152 12 -3 3 17 40 46 83 28 43 63 99 77 126 15 26
30 47 33 47 4 0 31 -48 61 -107z m-915 -860 c-4 -82 -9 -149 -10 -151 -3 -4
-73 38 -178 105 l-79 50 34 21 c43 26 227 122 234 122 3 0 2 -66 -1 -147z
m1692 -14 c62 -39 113 -74 113 -78 0 -4 -37 -25 -82 -49 -46 -23 -104 -54
-130 -69 -27 -14 -51 -24 -54 -21 -3 3 -2 72 2 152 6 125 9 146 22 141 8 -3
66 -37 129 -76z m243 8 c0 -2 -10 -12 -22 -23 l-23 -19 19 23 c18 21 26 27 26
19z m-80 -80 c0 -2 -10 -12 -22 -23 l-23 -19 19 23 c18 21 26 27 26 19z
m-2075 -117 c10 -11 16 -20 13 -20 -3 0 -13 9 -23 20 -10 11 -16 20 -13 20 3
0 13 -9 23 -20z m1925 -34 c0 -2 -8 -10 -17 -17 -16 -13 -17 -12 -4 4 13 16
21 21 21 13z m-762 -591 c3 -2 -14 -34 -37 -70 -22 -36 -41 -69 -41 -72 0 -3
-10 -20 -23 -37 -12 -17 -29 -43 -37 -59 -7 -15 -17 -24 -22 -19 -10 10 -138
259 -138 269 0 7 291 -4 298 -12z"/>
<path d="M8373 10233 c-15 -27 -38 -63 -50 -82 -13 -19 -23 -38 -23 -42 0 -5
45 -9 100 -9 55 0 100 2 100 5 0 10 -83 165 -91 170 -4 3 -20 -16 -36 -42z"/>
<path d="M7441 9430 c-41 -22 -79 -44 -83 -48 -10 -10 150 -115 163 -106 11 6
12 194 2 194 -5 -1 -41 -19 -82 -40z"/>
<path d="M9125 9294 c-4 -52 -5 -98 -2 -100 6 -7 177 78 177 88 0 4 -19 20
-42 35 -24 14 -59 37 -79 50 -19 13 -38 23 -41 23 -3 0 -9 -43 -13 -96z"/>
<path d="M8250 8524 c0 -4 21 -45 46 -91 l46 -84 27 38 c15 21 39 59 54 84
l27 46 -67 6 c-87 9 -133 9 -133 1z"/>
<path d="M1454 8161 c-84 -8 -132 -33 -157 -81 -14 -29 -16 -51 -12 -130 9
-152 44 -612 50 -647 4 -23 2 -33 -7 -33 -7 -1 -29 -3 -48 -5 -39 -5 -393 -31
-545 -40 -172 -10 -186 -14 -229 -57 l-39 -39 7 -146 c7 -161 18 -200 69 -237
35 -25 117 -26 391 -1 97 8 234 18 305 21 l129 7 6 -39 c3 -21 15 -178 26
-349 25 -370 30 -405 71 -440 44 -36 67 -39 220 -28 150 11 175 20 210 76 23
36 22 68 -6 392 -7 88 -17 221 -20 295 l-7 136 163 12 c90 7 184 12 209 12 59
0 92 9 83 24 -4 6 1 5 10 -3 14 -11 41 -11 159 -1 153 13 185 23 217 69 24 33
26 86 12 238 -11 108 -24 139 -71 171 -40 27 -54 27 -490 -9 -129 -10 -244
-19 -254 -19 -19 0 -19 0 0 -22 18 -22 18 -22 -8 0 -15 14 -35 22 -48 20 -27
-4 -28 -2 -35 147 -7 141 -44 591 -51 627 -3 15 -21 41 -40 58 -33 29 -39 30
-117 29 -45 -1 -114 -5 -153 -8z m146 -231 c44 -66 80 -121 80 -123 0 -7 -290
-30 -296 -24 -7 7 118 267 128 267 4 0 44 -54 88 -120z m130 -465 c13 -14 21
-25 18 -25 -2 0 -15 11 -28 25 -13 14 -21 25 -18 25 2 0 15 -11 28 -25z m688
-271 c53 -25 112 -53 131 -61 28 -12 32 -17 20 -27 -15 -14 -237 -166 -243
-166 -2 0 -6 46 -10 103 -4 56 -9 123 -13 150 -4 33 -2 47 6 47 7 0 56 -21
109 -46z m-437 19 c13 -16 12 -17 -3 -4 -10 7 -18 15 -18 17 0 8 8 3 21 -13z
m59 -58 c13 -14 21 -25 18 -25 -2 0 -15 11 -28 25 -13 14 -21 25 -18 25 2 0
15 -11 28 -25z m-1266 -172 l7 -142 -133 64 c-73 36 -133 68 -132 72 1 16 239
170 245 159 4 -6 9 -75 13 -153z m1356 82 c13 -14 21 -25 18 -25 -2 0 -15 11
-28 25 -13 14 -21 25 -18 25 2 0 15 -11 28 -25z m80 -80 c13 -14 21 -25 18
-25 -2 0 -15 11 -28 25 -13 14 -21 25 -18 25 2 0 15 -11 28 -25z m85 -85 c10
-11 16 -20 13 -20 -3 0 -13 9 -23 20 -10 11 -16 20 -13 20 3 0 13 -9 23 -20z
m-485 -615 c0 -9 -131 -270 -135 -270 -7 0 -165 235 -165 245 0 4 53 11 118
15 64 3 122 8 127 10 16 5 55 6 55 0z"/>
<path d="M1471 7911 c-23 -44 -41 -85 -41 -91 0 -8 30 -9 98 -4 53 4 99 8 101
10 5 5 -85 138 -104 154 -11 9 -21 -3 -54 -69z"/>
<path d="M2340 7100 c0 -69 4 -100 12 -100 12 0 149 89 160 105 4 6 -11 18
-35 29 -23 11 -63 30 -89 43 l-48 23 0 -100z"/>
<path d="M648 7040 c-43 -28 -78 -54 -78 -58 0 -9 171 -94 178 -88 7 7 -9 196
-16 196 -4 0 -42 -23 -84 -50z"/>
<path d="M1643 6251 c-39 -3 -74 -9 -78 -13 -6 -5 39 -83 56 -98 3 -3 14 -20
24 -37 11 -18 22 -33 25 -33 6 1 90 171 90 183 0 4 -10 6 -22 5 -13 -1 -55 -4
-95 -7z"/>
<path d="M9349 8103 c-13 -16 -12 -17 4 -4 9 7 17 15 17 17 0 8 -8 3 -21 -13z"/>
<path d="M11413 5326 c-124 -13 -154 -27 -186 -87 -13 -25 -17 -46 -12 -79 3
-25 12 -128 20 -230 8 -102 22 -255 29 -340 8 -85 13 -156 12 -157 -1 -2 -83
-10 -182 -18 -476 -43 -585 -54 -610 -67 -55 -27 -69 -60 -66 -158 6 -206 23
-264 91 -304 30 -17 38 -17 199 -2 92 9 239 23 327 31 88 8 188 17 223 21 34
4 62 3 63 -2 0 -5 2 -20 4 -34 2 -14 11 -108 20 -210 34 -401 46 -509 56 -539
7 -20 26 -40 54 -56 42 -25 43 -25 161 -15 66 7 134 14 153 17 41 5 97 57 107
97 3 15 -8 177 -25 359 -17 183 -31 355 -31 383 l0 51 108 7 c59 4 206 16 327
27 369 34 377 36 410 105 16 33 16 48 6 163 -17 188 -32 222 -103 242 -40 10
-145 4 -428 -26 -74 -8 -178 -17 -230 -20 -52 -3 -104 -8 -116 -10 -19 -4 -21
3 -37 163 -9 92 -21 226 -27 297 -29 346 -30 351 -101 387 -38 20 -54 20 -216
4z m115 -221 c32 -44 65 -92 74 -107 l18 -27 -43 -5 c-94 -13 -251 -26 -255
-21 -5 4 8 35 84 201 34 74 37 78 51 59 8 -11 40 -56 71 -100z m867 -747 c69
-35 125 -65 125 -68 0 -5 -235 -170 -243 -170 -3 0 -10 44 -16 98 -22 203 -22
202 -6 202 8 0 71 -28 140 -62z m-1676 -204 c7 -80 11 -147 9 -150 -6 -5 -262
114 -265 123 -2 7 224 171 238 172 3 1 11 -65 18 -145z m1043 -700 c6 -5 -106
-249 -121 -266 -4 -5 -29 24 -56 63 -28 39 -59 83 -70 98 -12 14 -28 38 -38
53 l-17 27 53 6 c28 4 93 10 142 14 50 5 93 9 96 10 3 0 8 -2 11 -5z"/>
<path d="M11433 5143 c-3 -10 -21 -51 -39 -90 l-33 -73 77 1 c42 1 90 4 105 8
l28 6 -25 35 c-14 19 -29 40 -33 45 -5 6 -19 27 -32 48 -25 41 -38 46 -48 20z"/>
<path d="M12287 4283 c3 -49 8 -94 12 -100 5 -9 33 6 90 47 l83 59 -53 25
c-52 24 -129 56 -134 56 -2 0 0 -39 2 -87z"/>
<path d="M10598 4194 c-43 -31 -78 -59 -78 -63 0 -10 169 -86 175 -79 7 6 -7
198 -14 198 -3 -1 -41 -26 -83 -56z"/>
<path d="M11573 3413 c-29 -2 -53 -9 -53 -14 0 -5 17 -33 38 -62 21 -29 44
-62 51 -74 6 -13 15 -23 20 -23 7 0 91 163 91 176 0 4 -58 3 -147 -3z"/>
<path d="M5823 2971 c-58 -37 -61 -52 -73 -362 -6 -156 -14 -331 -17 -388 l-5
-104 -177 7 c-97 4 -269 11 -383 17 -194 10 -210 10 -245 -8 -26 -12 -45 -32
-60 -63 -21 -40 -23 -59 -23 -185 0 -156 12 -194 68 -217 28 -11 192 -21 507
-32 99 -4 206 -9 239 -12 l58 -6 -6 -97 c-4 -53 -11 -225 -16 -384 -14 -399
-21 -385 219 -400 149 -9 162 -9 192 9 69 41 72 62 95 672 l7 182 91 0 c50 -1
224 -7 386 -15 273 -13 298 -12 329 3 66 32 75 57 82 215 3 78 2 155 -3 171
-11 41 -45 75 -87 86 -20 5 -193 14 -386 20 -192 6 -360 13 -372 15 -21 5 -21
8 -17 152 2 82 6 157 8 168 3 11 8 122 12 247 6 223 6 227 -16 257 -36 52 -65
61 -227 67 -137 5 -150 4 -180 -15z m241 -220 c36 -72 66 -132 66 -135 0 -8
-181 -6 -247 2 l-53 7 81 128 c44 70 82 127 84 127 1 0 33 -58 69 -129z m-922
-833 c-2 -79 -8 -147 -13 -152 -5 -5 -15 -4 -25 5 -9 7 -24 18 -35 24 -10 5
-59 35 -110 67 -88 54 -90 57 -67 69 67 37 244 128 249 129 3 0 3 -64 1 -142z
m1682 -15 c69 -43 122 -81 118 -84 -10 -9 -254 -139 -261 -139 -3 0 -5 67 -3
150 2 84 7 150 12 150 5 0 66 -35 134 -77z m-786 -813 l54 0 -19 -29 c-10 -17
-39 -65 -65 -108 -27 -43 -56 -89 -67 -102 l-18 -24 -15 29 c-8 16 -38 72 -66
125 -29 54 -52 103 -52 109 0 10 23 12 98 7 53 -4 121 -7 150 -7z"/>
<path d="M5934 2737 c-28 -45 -50 -85 -48 -88 2 -4 49 -7 104 -8 l101 -2 -48
91 c-26 49 -50 90 -53 90 -3 -1 -28 -38 -56 -83z"/>
<path d="M5020 1969 c-41 -22 -78 -43 -82 -47 -4 -4 31 -31 78 -61 47 -29 87
-52 89 -49 8 8 7 192 -1 194 -5 2 -43 -15 -84 -37z"/>
<path d="M6708 1834 c-2 -53 -1 -97 0 -99 4 -4 134 57 164 77 19 13 17 16 -43
54 -66 42 -104 64 -113 64 -2 0 -6 -43 -8 -96z"/>
<path d="M5848 1033 c38 -81 73 -143 81 -143 4 0 20 21 35 48 14 26 37 63 51
83 l24 36 -46 7 c-25 3 -72 6 -104 6 l-58 0 17 -37z"/>
</g>
</svg>
