<?xml version="1.0" standalone="no"?>
<!DOCTYPE svg PUBLIC "-//W3C//DTD SVG 20010904//EN"
 "http://www.w3.org/TR/2001/REC-SVG-20010904/DTD/svg10.dtd">
<svg version="1.0" xmlns="http://www.w3.org/2000/svg"
 width="1300.000000pt" height="1263.000000pt" viewBox="0 0 1300.000000 1263.000000"
 preserveAspectRatio="xMidYMid meet">

<g transform="translate(0.000000,1263.000000) scale(0.100000,-0.100000)"
fill="#000000" stroke="none">
<path d="M7422 12615 c-168 -38 -328 -111 -472 -216 -103 -75 -266 -237 -343
-339 -51 -69 -56 -80 -58 -133 -2 -48 -5 -57 -18 -51 -37 15 -46 7 -98 -91
-287 -543 -289 -1116 -4 -1492 133 -176 310 -282 559 -333 259 -54 578 -46
1007 26 143 24 810 157 1225 244 337 71 478 91 678 97 281 9 438 -20 637 -117
331 -161 667 -562 794 -945 100 -302 75 -634 -66 -907 -21 -40 -39 -76 -41
-80 -2 -5 5 -8 16 -8 40 0 47 -25 50 -192 l2 -158 -40 0 -40 0 0 140 c0 133
-1 140 -20 140 -12 0 -20 -7 -21 -17 0 -10 0 -73 1 -141 l1 -123 -38 3 -38 3
-3 83 c-2 72 -5 82 -17 72 -11 -9 -15 -34 -15 -87 l0 -74 -37 3 c-31 2 -39 7
-41 26 -3 19 -6 21 -18 11 -8 -6 -14 -18 -14 -25 0 -8 -6 -14 -14 -14 -7 0
-45 -26 -82 -58 -243 -203 -488 -294 -789 -295 -283 -1 -554 72 -881 236 -218
109 -378 211 -614 391 -295 224 -341 257 -442 322 -132 84 -260 146 -373 180
-117 35 -309 40 -420 10 -188 -49 -403 -189 -574 -372 -136 -146 -218 -282
-275 -454 l-34 -105 -88 -6 c-295 -20 -525 -216 -597 -508 -18 -72 -44 -276
-53 -424 l-6 -99 -821 5 c-617 4 -871 9 -1017 21 -107 8 -223 15 -257 16 l-63
0 0 -55 c0 -48 -2 -55 -20 -55 -11 0 -20 5 -20 10 0 6 -7 10 -15 10 -8 0 -15
-4 -15 -10 0 -18 -39 -11 -50 9 -13 26 -13 64 2 79 6 6 8 15 4 19 -4 5 -134
10 -289 11 -300 4 -517 -10 -732 -47 -754 -131 -1349 -497 -1815 -1116 -276
-368 -427 -693 -516 -1113 -28 -132 -30 -164 -9 -156 19 8 61 -39 69 -77 3
-18 6 -85 6 -150 l0 -119 -34 0 c-25 0 -36 5 -41 19 -5 17 -8 16 -35 -9 l-30
-28 -6 -209 c-19 -629 80 -1075 339 -1533 294 -517 783 -968 1282 -1180 238
-101 486 -160 770 -183 22 -2 -508 -4 -1177 -5 l-1218 -2 0 -445 0 -445 6500
0 6500 0 0 445 0 445 -5157 2 c-2837 1 -5140 3 -5118 5 426 35 790 137 1182
333 555 276 927 598 1348 1165 254 343 467 572 626 675 122 79 271 126 488
154 162 21 341 -1 538 -66 231 -76 424 -256 833 -778 295 -375 487 -568 768
-768 423 -302 934 -516 1433 -601 199 -34 319 -44 524 -44 209 0 340 11 515
44 413 78 814 272 1097 532 32 30 68 62 81 73 13 10 63 64 111 119 438 503
661 948 717 1430 18 153 16 297 -12 698 -46 682 -151 1066 -406 1486 -433 712
-1047 1178 -1788 1356 -285 68 -535 95 -890 95 -136 0 -268 -3 -294 -6 l-46
-7 0 -58 c0 -52 -2 -59 -20 -59 -11 0 -20 5 -20 10 0 6 -7 10 -15 10 -8 0 -15
-4 -15 -10 0 -18 -39 -11 -50 9 -13 26 -13 64 1 78 6 6 7 13 2 15 -4 3 -120
-4 -258 -14 -205 -16 -397 -20 -1071 -25 l-821 -5 -7 99 c-16 238 -68 444
-141 558 -74 117 -222 244 -350 300 -30 14 -55 29 -55 35 0 21 42 135 72 193
45 90 100 161 206 265 202 201 400 287 594 260 166 -22 306 -102 691 -391 155
-117 334 -246 397 -288 509 -338 1057 -509 1501 -470 319 29 567 132 836 348
123 98 293 279 293 311 0 15 4 21 13 17 6 -4 4 0 -6 8 -16 13 -17 30 -15 148
l3 134 38 3 37 3 0 -117 0 -117 20 26 c17 21 20 40 20 116 l0 91 41 0 c22 0
38 -4 34 -9 -3 -5 -1 -12 4 -15 10 -7 58 102 95 219 141 445 47 936 -263 1376
-247 349 -542 587 -861 693 -174 58 -266 70 -510 70 -250 0 -376 -15 -765 -96
-1339 -275 -1535 -308 -1845 -308 -434 0 -659 113 -792 395 -187 402 -16 1036
392 1446 169 170 331 264 525 304 44 9 90 23 102 31 55 35 76 109 48 168 -35
73 -103 96 -213 71z m-867 -5170 c132 -35 255 -119 314 -214 35 -58 58 -132
76 -245 7 -45 13 -66 14 -48 1 31 3 32 42 32 l40 0 -3 -205 c-3 -196 -4 -205
-25 -227 -18 -17 -37 -23 -88 -26 l-65 -4 0 35 c0 36 0 36 48 39 47 3 47 3 50
41 l3 38 -20 -20 c-26 -26 -67 -27 -80 -2 -6 10 -13 37 -17 60 -9 59 -22 51
-26 -16 l-3 -58 -35 0 -35 0 -3 58 c-3 48 -6 57 -22 57 -16 0 -19 -9 -22 -57
l-3 -58 -38 -3 -39 -3 3 58 c2 48 0 59 -14 61 -14 3 -17 -6 -17 -58 l0 -61
-37 3 -38 3 -3 58 c-2 42 -7 57 -17 57 -12 0 -15 -14 -15 -60 0 -59 0 -60 -29
-60 -18 0 -34 8 -43 22 l-15 22 -12 -22 c-14 -26 -52 -29 -74 -7 -17 17 -31
70 -23 84 4 5 2 12 -3 16 -6 3 -11 -18 -13 -52 l-3 -58 -35 0 -35 0 -3 58 c-2
42 -7 57 -17 57 -12 0 -15 -14 -15 -60 0 -60 0 -60 -30 -60 -20 0 -33 7 -41
22 l-12 22 -15 -22 c-17 -25 -54 -29 -75 -7 -20 19 -29 77 -18 107 5 14 21 38
36 54 34 36 29 58 -13 62 -32 3 -33 5 -26 35 8 38 21 56 49 67 17 7 23 24 37
122 10 67 26 137 41 170 44 99 132 175 231 199 54 13 170 10 231 -6z m-2890
-980 c525 -36 588 -36 2945 -33 l2335 4 300 23 c509 40 962 35 1255 -15 763
-128 1359 -542 1793 -1245 161 -261 253 -505 311 -829 52 -290 94 -919 76
-1123 -28 -307 -129 -584 -321 -877 -424 -648 -856 -953 -1509 -1066 -127 -21
-503 -30 -641 -15 -615 69 -1180 300 -1645 673 -203 163 -301 266 -582 618
-315 393 -468 561 -637 695 -124 98 -332 191 -515 230 -231 49 -377 52 -600
15 -478 -81 -725 -272 -1235 -950 -242 -321 -373 -467 -561 -624 -218 -182
-396 -300 -644 -425 -421 -214 -821 -315 -1235 -314 -596 2 -1078 214 -1532
674 -368 373 -601 818 -678 1295 -29 178 -41 670 -20 805 3 18 -3 33 -20 49
-34 32 -40 81 -15 129 11 22 29 45 40 51 11 6 20 20 20 30 0 17 -7 20 -41 20
-41 0 -41 0 -34 33 9 42 20 54 61 69 21 7 36 20 39 33 20 100 73 296 102 379
168 485 578 1001 1034 1302 353 232 769 365 1265 404 148 12 620 4 889 -15z
m-3407 -2233 l2 -213 -37 3 -38 3 -3 213 -2 213 37 -3 38 -3 3 -213z m522
-3733 l0 -200 -32 3 -33 3 -3 185 c-1 101 0 190 2 197 3 7 19 13 36 13 l30 0
0 -201z m-119 112 c23 -18 24 -27 29 -165 l5 -146 -32 0 c-17 0 -33 6 -36 13
-4 10 -7 10 -18 0 -7 -7 -28 -13 -46 -13 -44 0 -68 35 -60 91 6 46 25 71 78
101 41 23 55 51 33 68 -17 15 -34 4 -34 -21 0 -15 -7 -19 -35 -19 -32 0 -35 2
-35 30 0 69 95 107 151 61z m282 8 c39 -18 47 -50 47 -189 l0 -130 -29 0 c-16
0 -31 6 -34 13 -4 10 -7 10 -18 0 -19 -18 -69 -16 -91 4 -23 20 -24 90 -3 121
9 12 36 36 61 53 34 23 44 36 42 52 -4 29 -30 28 -43 0 -7 -17 -18 -23 -44
-23 -32 0 -33 1 -27 33 12 62 78 94 139 66z m157 -4 c18 21 56 19 73 -5 l14
-20 18 20 c22 24 58 26 79 4 13 -13 16 -42 16 -165 l0 -149 -29 0 -29 0 -4
125 c-2 84 -7 128 -16 137 -24 24 -32 -12 -32 -139 l0 -123 -35 0 -34 0 -3
133 c-3 109 -6 132 -18 132 -12 0 -15 -23 -18 -132 l-3 -133 -34 0 -35 0 0
159 0 160 28 3 c15 2 32 -2 38 -9 9 -11 14 -10 24 2z m290 -120 c5 -122 6
-130 25 -130 19 0 20 8 23 126 l3 127 34 4 35 4 0 -188 c0 -187 0 -189 -25
-213 -20 -21 -34 -25 -85 -25 -60 0 -60 0 -60 29 0 28 2 30 48 33 43 3 47 5
50 30 3 27 3 27 -24 14 -33 -18 -64 -8 -81 25 -12 23 -19 279 -8 290 2 3 17 5
32 4 l28 0 5 -130z m9785 85 c0 -27 -4 -50 -10 -50 -5 0 -10 23 -10 50 0 28 5
50 10 50 6 0 10 -22 10 -50z m470 0 c0 -27 -4 -50 -10 -50 -5 0 -10 23 -10 50
0 28 5 50 10 50 6 0 10 -22 10 -50z m93 38 c7 -7 12 -24 12 -38 0 -34 -17 -50
-52 -50 -27 0 -28 2 -28 50 0 48 1 50 28 50 15 0 33 -5 40 -12z m160 -14 c2
-11 -4 -27 -13 -34 -21 -17 -19 -28 8 -33 16 -3 13 -5 -10 -6 -38 -1 -41 8
-13 34 27 25 27 59 0 52 -11 -3 -17 -1 -14 4 10 17 39 5 42 -17z m97 -24 c0
-43 -1 -45 -32 -48 l-33 -3 0 51 0 51 33 -3 c31 -3 32 -5 32 -48z m85 35 c10
-12 10 -18 0 -30 -7 -8 -19 -15 -26 -15 -8 0 -14 -9 -14 -20 0 -11 -4 -20 -10
-20 -5 0 -10 23 -10 50 0 46 2 50 24 50 13 0 29 -7 36 -15z m35 -22 c4 -22 10
-31 13 -23 23 69 23 68 42 25 l18 -40 7 38 c4 20 11 37 15 37 9 0 -9 -80 -20
-93 -4 -5 -14 8 -21 30 l-12 38 -17 -40 c-19 -42 -21 -41 -39 28 -5 20 -6 37
-1 37 4 0 11 -17 15 -37z m168 22 c4 -8 2 -17 -4 -21 -6 -4 -6 -11 2 -20 17
-21 3 -46 -23 -42 -19 2 -23 10 -24 43 -1 22 0 43 3 48 7 13 41 8 46 -8z m95
3 c7 -7 12 -24 12 -38 0 -34 -17 -50 -52 -50 -27 0 -28 2 -28 50 0 48 1 50 28
50 15 0 33 -5 40 -12z m100 0 c7 -7 12 -24 12 -38 0 -34 -17 -50 -52 -50 -27
0 -28 2 -28 50 0 48 1 50 28 50 15 0 33 -5 40 -12z m-1171 -53 l1 -40 -6 35
c-4 22 -13 35 -22 35 -9 0 -17 -13 -21 -35 l-6 -35 -2 38 c-1 24 -6 37 -15 37
-8 0 -18 -17 -24 -37 l-10 -38 -1 41 -1 41 53 -1 52 -1 2 -40z m77 29 c3 -9 6
-26 6 -38 0 -19 -5 -23 -27 -22 -35 1 -45 35 -14 43 26 7 27 20 4 26 -14 4
-13 5 3 6 12 0 25 -6 28 -15z m84 -41 c-3 -54 -5 -58 -28 -60 -25 -3 -25 -3
-2 7 12 5 22 14 22 19 0 5 -10 11 -22 13 -15 2 -24 11 -26 26 -5 36 5 52 33
52 25 0 26 -2 23 -57z m90 35 c3 -14 -3 -18 -23 -18 -33 0 -29 -21 6 -32 22
-6 21 -7 -6 -5 -23 2 -31 7 -33 25 -2 13 -1 30 2 38 8 21 50 14 54 -8z m232
12 c0 -5 -4 -10 -10 -10 -5 0 -10 5 -10 10 0 6 5 10 10 10 6 0 10 -4 10 -10z
m0 -60 c0 -5 -4 -10 -10 -10 -5 0 -10 5 -10 10 0 6 5 10 10 10 6 0 10 -4 10
-10z m-30 -190 c0 -47 -3 -60 -15 -60 -12 0 -15 13 -15 60 0 47 3 60 15 60 12
0 15 -13 15 -60z m-580 10 c0 -11 5 -20 10 -20 6 0 10 9 10 20 0 30 27 24 38
-7 l10 -28 7 28 c7 28 25 38 25 13 0 -27 -22 -76 -35 -76 -7 0 -16 15 -20 33
l-8 32 -6 -30 c-8 -40 -36 -45 -44 -8 -3 15 -9 36 -12 46 -5 12 -2 17 9 17 9
0 16 -8 16 -20z m140 0 c0 -11 5 -20 10 -20 6 0 10 9 10 21 0 29 32 21 41 -11
l6 -25 8 28 c7 28 25 38 25 13 0 -7 -5 -27 -11 -45 -13 -37 -39 -42 -39 -7 0
36 -17 40 -24 6 -8 -45 -31 -37 -43 15 -8 36 -8 45 3 45 8 0 14 -9 14 -20z
m140 0 c0 -11 5 -20 10 -20 6 0 10 9 10 20 0 30 27 24 38 -7 l10 -28 7 28 c7
28 25 38 25 13 0 -27 -22 -76 -35 -76 -7 0 -16 15 -20 33 l-7 32 -9 -32 c-13
-46 -34 -41 -46 12 -8 36 -8 45 3 45 8 0 14 -9 14 -20z m234 11 c3 -4 7 -24
10 -43 4 -35 4 -35 -32 -34 -32 1 -37 4 -37 26 0 17 7 26 25 31 24 7 24 7 3 8
-13 1 -23 6 -23 11 0 12 47 13 54 1z m154 -8 c4 -10 7 -24 6 -30 -1 -7 -2 -19
-3 -26 0 -7 -14 -13 -33 -12 -28 0 -33 4 -33 25 0 17 7 26 25 31 24 7 24 7 3
8 -31 1 -29 21 2 21 13 0 28 -8 33 -17z m160 -2 c12 -25 8 -64 -5 -68 -9 -3
-13 7 -13 31 0 25 -4 36 -15 36 -10 0 -15 -11 -15 -35 0 -44 -18 -46 -22 -3
-4 46 -28 49 -28 4 0 -25 -4 -36 -15 -36 -11 0 -15 12 -15 44 l0 43 60 0 c46
0 63 -4 68 -16z m57 -8 l8 -28 10 28 c6 15 17 27 25 27 10 0 12 -6 7 -17 -4
-10 -14 -37 -22 -60 -13 -39 -38 -62 -52 -47 -3 4 0 9 7 11 16 6 15 33 -3 77
-13 30 -13 36 -1 36 8 0 17 -12 21 -27z m175 18 c0 -5 -9 -11 -20 -14 -11 -3
-20 -13 -20 -22 0 -9 9 -19 20 -22 25 -7 26 -23 2 -23 -24 0 -42 19 -42 45 0
12 5 26 12 33 14 14 48 16 48 3z m90 -5 c28 -35 -11 -93 -47 -70 -36 22 -23
84 17 84 10 0 23 -7 30 -14z m160 -7 c13 -24 9 -69 -7 -69 -8 0 -13 13 -13 35
0 24 -5 35 -15 35 -10 0 -15 -11 -15 -35 0 -44 -18 -46 -22 -3 -4 46 -28 49
-28 4 0 -25 -4 -36 -15 -36 -11 0 -15 12 -15 44 l0 43 60 0 c48 0 63 -4 70
-18z m-889 -62 c-13 -13 -26 -3 -16 12 3 6 11 8 17 5 6 -4 6 -10 -1 -17z m550
0 c-13 -13 -26 -3 -16 12 3 6 11 8 17 5 6 -4 6 -10 -1 -17z"/>
<path d="M6040 6715 c0 -18 5 -25 20 -25 15 0 20 7 20 25 0 18 -5 25 -20 25
-15 0 -20 -7 -20 -25z"/>
<path d="M6360 6715 c0 -18 5 -25 20 -25 15 0 20 7 20 25 0 18 -5 25 -20 25
-15 0 -20 -7 -20 -25z"/>
<path d="M6920 6717 c0 -13 3 -26 6 -30 12 -12 34 6 34 29 0 17 -6 24 -20 24
-14 0 -20 -7 -20 -23z"/>
<path d="M10250 5544 c-270 -52 -470 -297 -470 -575 0 -262 158 -484 385 -544
133 -34 367 -7 487 57 173 92 270 266 272 488 1 170 -52 308 -158 414 -73 73
-134 107 -239 135 -78 20 -229 34 -277 25z m207 -330 c98 -27 145 -96 151
-226 4 -76 1 -92 -21 -141 -33 -72 -83 -103 -193 -119 -145 -21 -219 7 -266
100 -51 102 -47 206 14 297 70 105 162 131 315 89z"/>
<path d="M2245 5110 c-239 -49 -367 -227 -404 -564 -6 -52 -11 -118 -11 -145
l0 -50 -178 6 c-193 7 -249 -1 -334 -43 -139 -70 -184 -188 -175 -464 8 -243
44 -349 156 -453 104 -97 243 -139 469 -141 l144 -1 -6 -55 c-16 -148 -18
-267 -6 -325 12 -57 14 -58 21 -30 5 17 23 40 44 54 35 24 48 61 20 61 -8 0
-15 -7 -15 -15 0 -9 -9 -15 -25 -15 -27 0 -32 18 -15 50 21 40 102 30 114 -14
3 -11 6 -60 6 -108 0 -89 -8 -106 -37 -77 -8 8 -17 8 -31 0 -11 -6 -28 -8 -36
-5 -24 9 -19 -6 19 -58 75 -102 185 -148 370 -155 289 -11 500 80 594 257 54
100 73 194 77 380 l4 165 125 2 c236 4 357 58 453 203 76 113 112 280 92 418
-13 89 -60 198 -101 238 l-29 28 0 -92 c0 -84 -2 -92 -19 -92 -11 0 -21 6 -24
13 -4 10 -7 10 -18 0 -20 -20 -44 -15 -58 11 -20 37 -5 81 35 105 35 21 48 61
19 61 -8 0 -15 -7 -15 -15 0 -9 -10 -15 -26 -15 -23 0 -25 3 -20 28 8 29 34
55 47 46 5 -3 9 -1 9 4 0 14 -125 67 -200 85 -87 22 -217 37 -310 37 l-75 0
-1 133 c-1 205 -37 310 -140 408 -120 113 -341 173 -509 139z m215 -322 c19
-6 48 -20 64 -31 50 -35 56 -66 57 -294 0 -133 5 -220 12 -241 15 -40 62 -91
90 -97 12 -2 114 -6 227 -9 281 -7 394 -35 441 -109 29 -46 24 -172 -10 -240
-38 -78 -50 -81 -321 -87 -159 -3 -242 -9 -256 -17 -31 -18 -73 -70 -80 -100
-4 -13 -1 -102 6 -196 20 -283 -8 -409 -100 -454 -65 -32 -220 -50 -301 -35
-34 6 -67 16 -72 21 -18 18 -19 114 -3 231 19 135 21 287 4 342 -12 42 -64 94
-103 104 -13 3 -95 2 -182 -3 -339 -20 -450 17 -470 153 -10 76 -11 300 0 311
11 10 181 10 367 -1 174 -10 216 -2 272 54 42 42 42 42 39 195 -5 207 31 411
84 474 42 49 136 60 235 29z"/>
<path d="M9220 4588 c-36 -13 -86 -35 -112 -51 -102 -60 -206 -189 -248 -310
-31 -87 -38 -249 -15 -337 51 -199 168 -332 342 -391 128 -44 365 -24 498 41
126 61 222 177 265 321 18 60 16 75 -10 58 -8 -5 -41 -9 -72 -9 l-58 0 0 34
c0 34 1 35 48 38 l47 3 3 40 3 40 -21 -22 c-21 -24 -46 -29 -68 -15 -23 15
-32 76 -31 210 l1 132 39 0 39 0 0 -140 c0 -133 1 -140 20 -140 19 0 20 7 20
117 0 113 -1 118 -30 164 -98 151 -251 227 -475 235 -106 4 -127 2 -185 -18z
m0 -251 c4 -94 7 -105 18 -86 8 12 9 18 3 14 -7 -4 -10 2 -7 17 3 13 5 29 5
36 1 19 63 52 99 52 31 0 45 -10 84 -58 26 -32 38 -27 38 13 0 40 15 51 55 41
14 -4 25 -14 25 -23 0 -14 3 -13 16 5 19 27 48 28 74 2 l20 -20 22 20 c12 11
32 20 44 20 42 0 49 -23 53 -192 l3 -158 -41 0 c-23 0 -40 3 -40 8 1 4 1 67 0
140 -1 126 -2 132 -21 132 -20 0 -21 -4 -18 -177 3 -158 1 -182 -16 -216 -38
-77 -133 -119 -272 -120 -99 0 -151 30 -191 110 l-28 58 -3 248 -3 248 38 -3
38 -3 5 -108z m-146 8 c31 -33 36 -64 36 -206 l0 -119 -34 0 c-26 0 -35 5 -39
21 l-6 20 -20 -20 c-39 -39 -82 -18 -95 44 -10 48 17 102 69 133 35 21 44 33
45 55 0 20 -5 27 -20 27 -13 0 -20 -7 -20 -20 0 -17 -7 -20 -41 -20 -41 0 -41
0 -34 33 12 54 40 75 103 76 23 1 40 -7 56 -24z"/>
<path d="M9537 4293 c-8 -7 11 -33 24 -33 5 0 9 9 9 20 0 19 -20 27 -33 13z"/>
<path d="M9002 4160 c-20 -32 -15 -70 8 -70 17 0 20 7 20 45 0 49 -8 56 -28
25z"/>
<path d="M11141 4594 c-30 -8 -77 -27 -105 -41 -71 -38 -195 -164 -234 -240
-40 -77 -72 -198 -72 -275 0 -125 57 -291 133 -387 48 -61 149 -128 232 -154
86 -27 240 -28 355 -3 279 60 445 287 426 584 -20 325 -253 534 -593 531 -48
0 -112 -7 -142 -15z m272 -314 c53 -16 112 -72 133 -127 39 -102 16 -243 -51
-301 -39 -35 -76 -48 -169 -61 -133 -19 -212 19 -256 121 -60 137 -4 303 123
368 35 18 53 21 112 16 39 -3 87 -10 108 -16z"/>
<path d="M346 4285 c-3 -8 -1 -15 4 -15 6 0 10 7 10 15 0 8 -2 15 -4 15 -2 0
-6 -7 -10 -15z"/>
<path d="M3482 4168 c-17 -17 -15 -58 3 -58 10 0 15 11 15 35 0 39 -1 40 -18
23z"/>
<path d="M5673 4159 c-178 -13 -263 -44 -289 -105 -19 -46 -3 -80 51 -108 38
-20 56 -21 310 -21 293 1 352 9 441 60 43 26 70 71 60 102 -22 70 -236 96
-573 72z"/>
<path d="M6908 4160 c-77 -12 -123 -33 -144 -65 -17 -26 -17 -28 0 -60 21 -39
69 -67 156 -91 55 -16 105 -19 335 -19 250 0 273 1 310 20 54 27 71 62 51 110
-19 44 -87 79 -186 94 -89 15 -452 22 -522 11z"/>
<path d="M10206 3665 c-192 -49 -358 -222 -411 -430 -47 -185 16 -418 149
-551 109 -109 237 -152 419 -141 186 11 302 56 407 157 168 162 206 469 87
695 -40 76 -137 174 -204 208 -125 64 -329 92 -447 62z m239 -317 c110 -27
165 -108 165 -243 0 -152 -58 -220 -209 -245 -149 -25 -228 6 -277 107 -22 47
-28 72 -28 133 -1 66 3 82 30 130 55 96 137 144 229 134 28 -3 68 -10 90 -16z"/>
<path d="M1983 2869 c-16 -16 -17 -59 -3 -59 14 0 22 23 18 50 -2 17 -5 19
-15 9z"/>
<path d="M596 431 c-31 -32 -31 -64 -2 -69 25 -5 36 15 34 61 -1 20 -2 37 -3
37 -1 0 -14 -13 -29 -29z"/>
<path d="M893 438 c-33 -36 -35 -78 -3 -78 25 0 32 17 28 65 l-3 37 -22 -24z"/>
<path d="M11690 580 c0 -33 3 -41 16 -38 26 5 41 35 28 56 -6 9 -19 18 -28 20
-13 3 -16 -5 -16 -38z"/>
<path d="M11950 605 c0 -10 7 -15 18 -13 21 4 19 22 -2 26 -10 2 -16 -3 -16
-13z"/>
<path d="M11950 560 c0 -15 5 -20 18 -18 9 2 17 10 17 18 0 8 -8 16 -17 18
-13 2 -18 -3 -18 -18z"/>
<path d="M12040 600 c0 -11 7 -20 15 -20 8 0 15 9 15 20 0 11 -7 20 -15 20 -8
0 -15 -9 -15 -20z"/>
<path d="M12247 614 c-8 -8 1 -24 14 -24 5 0 9 7 9 15 0 15 -12 20 -23 9z"/>
<path d="M12244 569 c-8 -14 11 -33 25 -25 6 4 11 11 11 16 0 13 -29 20 -36 9z"/>
<path d="M12330 580 c0 -33 3 -41 16 -38 9 2 22 11 28 21 13 20 -2 50 -28 55
-13 3 -16 -5 -16 -38z"/>
<path d="M12430 580 c0 -33 3 -41 16 -38 26 5 41 35 28 56 -6 9 -19 18 -28 20
-13 3 -16 -5 -16 -38z"/>
<path d="M11340 555 c0 -8 7 -15 15 -15 8 0 15 7 15 15 0 8 -7 15 -15 15 -8 0
-15 -7 -15 -15z"/>
<path d="M11424 586 c-9 -22 2 -46 21 -46 12 0 15 8 13 27 -3 30 -25 42 -34
19z"/>
<path d="M11515 590 c-3 -5 3 -10 15 -10 12 0 18 5 15 10 -3 6 -10 10 -15 10
-5 0 -12 -4 -15 -10z"/>
<path d="M11657 333 c-12 -11 -8 -23 8 -23 8 0 15 7 15 15 0 16 -12 20 -23 8z"/>
<path d="M11807 333 c-12 -11 -8 -23 8 -23 8 0 15 7 15 15 0 16 -12 20 -23 8z"/>
<path d="M12283 344 c-8 -21 13 -42 28 -27 13 13 5 43 -11 43 -6 0 -13 -7 -17
-16z"/>
<path d="M3481 6768 c-8 -15 -11 -35 -7 -44 11 -28 28 -1 24 37 l-4 34 -13
-27z"/>
<path d="M9481 6768 c-8 -15 -11 -35 -7 -44 11 -28 28 -1 24 37 l-4 34 -13
-27z"/>
<path d="M53 4303 c-7 -3 -13 -21 -13 -41 0 -33 1 -35 16 -20 18 18 15 67 -3
61z"/>
<path d="M46 4168 c-24 -33 -21 -78 4 -78 17 0 20 7 20 50 0 28 -2 50 -4 50
-3 0 -12 -10 -20 -22z"/>
</g>
</svg>
